<?xml version="1.0" encoding="UTF-8" ?>
<svg version="1.1" width="64" height="64" xmlns="http://www.w3.org/2000/svg" shape-rendering="crispEdges">
<rect x="30" y="4" width="3" height="1" fill="#AC0F75" />
<rect x="29" y="5" width="1" height="1" fill="#AC0F75" />
<rect x="30" y="5" width="3" height="1" fill="#FC8FDA" />
<rect x="33" y="5" width="2" height="1" fill="#AC0F75" />
<rect x="28" y="6" width="1" height="2" fill="#AC0F75" />
<rect x="29" y="6" width="2" height="1" fill="#FC8FDA" />
<rect x="31" y="6" width="2" height="3" fill="#FCA9E2" />
<rect x="33" y="6" width="2" height="1" fill="#FC8FDA" />
<rect x="35" y="6" width="2" height="1" fill="#AC0F75" />
<rect x="29" y="7" width="1" height="1" fill="#AC0F75" />
<rect x="30" y="7" width="1" height="2" fill="#FC8FDA" />
<rect x="33" y="7" width="2" height="5" fill="#FCA9E2" />
<rect x="35" y="7" width="2" height="6" fill="#FC8FDA" />
<rect x="37" y="7" width="1" height="1" fill="#AC0F75" />
<rect x="27" y="8" width="1" height="1" fill="#AC0F75" />
<rect x="28" y="8" width="2" height="1" fill="#FC8FDA" />
<rect x="37" y="8" width="1" height="3" fill="#FC8FDA" />
<rect x="38" y="8" width="1" height="1" fill="#AC0F75" />
<rect x="26" y="9" width="1" height="1" fill="#AC0F75" />
<rect x="27" y="9" width="2" height="1" fill="#FC8FDA" />
<rect x="29" y="9" width="2" height="1" fill="#7AF9FF" />
<rect x="31" y="9" width="2" height="1" fill="#FC8FDA" />
<rect x="38" y="9" width="1" height="5" fill="#F45BC4" />
<rect x="39" y="9" width="1" height="5" fill="#AC0F75" />
<rect x="25" y="10" width="1" height="1" fill="#AC0F75" />
<rect x="26" y="10" width="2" height="1" fill="#FC8FDA" />
<rect x="28" y="10" width="2" height="1" fill="#7AF9FF" />
<rect x="30" y="10" width="3" height="2" fill="#FCA9E2" />
<rect x="24" y="11" width="1" height="3" fill="#AC0F75" />
<rect x="25" y="11" width="2" height="2" fill="#FC8FDA" />
<rect x="27" y="11" width="2" height="1" fill="#7AF9FF" />
<rect x="29" y="11" width="1" height="2" fill="#FCA9E2" />
<rect x="37" y="11" width="1" height="4" fill="#F45BC4" />
<rect x="27" y="12" width="1" height="2" fill="#FC8FDA" />
<rect x="28" y="12" width="1" height="1" fill="#FCA9E2" />
<rect x="30" y="12" width="1" height="1" fill="#FCA9E2" />
<rect x="31" y="12" width="4" height="2" fill="#FC8FDA" />
<rect x="23" y="13" width="1" height="1" fill="#AC0F75" />
<rect x="25" y="13" width="1" height="1" fill="#AC0F75" />
<rect x="26" y="13" width="1" height="1" fill="#FC8FDA" />
<rect x="28" y="13" width="3" height="1" fill="#FC8FDA" />
<rect x="35" y="13" width="2" height="2" fill="#F45BC4" />
<rect x="40" y="13" width="3" height="1" fill="#AC0F75" />
<rect x="21" y="14" width="2" height="1" fill="#AC0F75" />
<rect x="23" y="14" width="3" height="1" fill="#FC8FDA" />
<rect x="26" y="14" width="4" height="1" fill="#FFF17A" />
<rect x="30" y="14" width="1" height="1" fill="#FC8FDA" />
<rect x="31" y="14" width="4" height="1" fill="#F45BC4" />
<rect x="38" y="14" width="4" height="1" fill="#FC8FDA" />
<rect x="42" y="14" width="1" height="2" fill="#F45BC4" />
<rect x="43" y="14" width="1" height="1" fill="#AC0F75" />
<rect x="20" y="15" width="1" height="1" fill="#AC0F75" />
<rect x="21" y="15" width="4" height="1" fill="#FC8FDA" />
<rect x="25" y="15" width="2" height="1" fill="#FFF17A" />
<rect x="27" y="15" width="3" height="2" fill="#FC8FDA" />
<rect x="30" y="15" width="2" height="1" fill="#F45BC4" />
<rect x="32" y="15" width="9" height="1" fill="#FC8FDA" />
<rect x="41" y="15" width="1" height="2" fill="#FFF17A" />
<rect x="43" y="15" width="1" height="2" fill="#F45BC4" />
<rect x="44" y="15" width="1" height="3" fill="#AC0F75" />
<rect x="19" y="16" width="1" height="4" fill="#AC0F75" />
<rect x="20" y="16" width="4" height="1" fill="#FC8FDA" />
<rect x="24" y="16" width="2" height="3" fill="#FCA9E2" />
<rect x="26" y="16" width="1" height="7" fill="#FC8FDA" />
<rect x="30" y="16" width="4" height="1" fill="#FC8FDA" />
<rect x="34" y="16" width="1" height="2" fill="#7AF9FF" />
<rect x="35" y="16" width="4" height="1" fill="#FCA9E2" />
<rect x="39" y="16" width="2" height="2" fill="#FC8FDA" />
<rect x="42" y="16" width="1" height="2" fill="#FFF17A" />
<rect x="20" y="17" width="2" height="3" fill="#FC8FDA" />
<rect x="22" y="17" width="2" height="2" fill="#FCA9E2" />
<rect x="27" y="17" width="2" height="4" fill="#FC8FDA" />
<rect x="29" y="17" width="5" height="2" fill="#FCA9E2" />
<rect x="35" y="17" width="2" height="1" fill="#7AF9FF" />
<rect x="37" y="17" width="2" height="1" fill="#FCA9E2" />
<rect x="41" y="17" width="1" height="1" fill="#FC8FDA" />
<rect x="43" y="17" width="1" height="1" fill="#FFF17A" />
<rect x="45" y="17" width="1" height="1" fill="#AC0F75" />
<rect x="34" y="18" width="2" height="1" fill="#FCA9E2" />
<rect x="36" y="18" width="2" height="1" fill="#7AF9FF" />
<rect x="38" y="18" width="2" height="1" fill="#FC8FDA" />
<rect x="40" y="18" width="4" height="1" fill="#F45BC4" />
<rect x="44" y="18" width="1" height="1" fill="#FFF17A" />
<rect x="45" y="18" width="1" height="3" fill="#FC8FDA" />
<rect x="46" y="18" width="1" height="1" fill="#AC0F75" />
<rect x="18" y="19" width="1" height="1" fill="#AC0F75" />
<rect x="22" y="19" width="4" height="1" fill="#FC8FDA" />
<rect x="29" y="19" width="7" height="1" fill="#FC8FDA" />
<rect x="36" y="19" width="1" height="2" fill="#F45BC4" />
<rect x="37" y="19" width="1" height="1" fill="#7AF9FF" />
<rect x="38" y="19" width="4" height="1" fill="#F45BC4" />
<rect x="42" y="19" width="3" height="2" fill="#FCA9E2" />
<rect x="46" y="19" width="1" height="1" fill="#FC8FDA" />
<rect x="47" y="19" width="1" height="1" fill="#AC0F75" />
<rect x="17" y="20" width="1" height="1" fill="#AC0F75" />
<rect x="18" y="20" width="3" height="1" fill="#FC8FDA" />
<rect x="21" y="20" width="4" height="2" fill="#FCA9E2" />
<rect x="25" y="20" width="1" height="3" fill="#FC8FDA" />
<rect x="29" y="20" width="5" height="1" fill="#FC8FDA" />
<rect x="34" y="20" width="2" height="1" fill="#F45BC4" />
<rect x="37" y="20" width="3" height="1" fill="#F45BC4" />
<rect x="40" y="20" width="2" height="1" fill="#FC8FDA" />
<rect x="46" y="20" width="1" height="1" fill="#F45BC4" />
<rect x="47" y="20" width="1" height="3" fill="#C92495" />
<rect x="48" y="20" width="1" height="3" fill="#AC0F75" />
<rect x="16" y="21" width="1" height="1" fill="#AC0F75" />
<rect x="17" y="21" width="2" height="7" fill="#FC8FDA" />
<rect x="19" y="21" width="2" height="2" fill="#FCA9E2" />
<rect x="27" y="21" width="1" height="3" fill="#FC8FDA" />
<rect x="28" y="21" width="7" height="1" fill="#F45BC4" />
<rect x="35" y="21" width="3" height="1" fill="#FC8FDA" />
<rect x="38" y="21" width="3" height="1" fill="#F45BC4" />
<rect x="41" y="21" width="3" height="2" fill="#FCA9E2" />
<rect x="44" y="21" width="1" height="1" fill="#FC8FDA" />
<rect x="45" y="21" width="1" height="3" fill="#F45BC4" />
<rect x="46" y="21" width="1" height="4" fill="#C92495" />
<rect x="15" y="22" width="1" height="4" fill="#AC0F75" />
<rect x="16" y="22" width="1" height="3" fill="#FC8FDA" />
<rect x="21" y="22" width="1" height="1" fill="#FCA9E2" />
<rect x="22" y="22" width="3" height="1" fill="#7AF9FF" />
<rect x="28" y="22" width="4" height="2" fill="#FC8FDA" />
<rect x="32" y="22" width="7" height="1" fill="#F45BC4" />
<rect x="39" y="22" width="2" height="3" fill="#FC8FDA" />
<rect x="44" y="22" width="1" height="3" fill="#F45BC4" />
<rect x="19" y="23" width="2" height="1" fill="#FC8FDA" />
<rect x="21" y="23" width="2" height="1" fill="#7AF9FF" />
<rect x="23" y="23" width="4" height="3" fill="#FCA9E2" />
<rect x="32" y="23" width="7" height="1" fill="#FC8FDA" />
<rect x="41" y="23" width="2" height="1" fill="#FC8FDA" />
<rect x="43" y="23" width="1" height="2" fill="#F45BC4" />
<rect x="47" y="23" width="1" height="2" fill="#AC0F75" />
<rect x="19" y="24" width="1" height="4" fill="#FC8FDA" />
<rect x="20" y="24" width="2" height="1" fill="#7AF9FF" />
<rect x="22" y="24" width="1" height="3" fill="#FCA9E2" />
<rect x="27" y="24" width="4" height="2" fill="#FCA9E2" />
<rect x="31" y="24" width="2" height="1" fill="#FFF17A" />
<rect x="33" y="24" width="6" height="1" fill="#FC8FDA" />
<rect x="41" y="24" width="2" height="2" fill="#F45BC4" />
<rect x="45" y="24" width="1" height="1" fill="#C92495" />
<rect x="14" y="25" width="1" height="1" fill="#AC0F75" />
<rect x="16" y="25" width="1" height="1" fill="#AC0F75" />
<rect x="20" y="25" width="2" height="2" fill="#FCA9E2" />
<rect x="31" y="25" width="1" height="1" fill="#FC8FDA" />
<rect x="32" y="25" width="2" height="1" fill="#FFF17A" />
<rect x="34" y="25" width="3" height="1" fill="#FC8FDA" />
<rect x="37" y="25" width="4" height="1" fill="#F45BC4" />
<rect x="43" y="25" width="5" height="1" fill="#FC8FDA" />
<rect x="48" y="25" width="2" height="1" fill="#AC0F75" />
<rect x="13" y="26" width="1" height="1" fill="#AC0F75" />
<rect x="14" y="26" width="3" height="3" fill="#FC8FDA" />
<rect x="23" y="26" width="2" height="1" fill="#FCA9E2" />
<rect x="25" y="26" width="5" height="1" fill="#FC8FDA" />
<rect x="30" y="26" width="3" height="1" fill="#F45BC4" />
<rect x="33" y="26" width="2" height="1" fill="#FFF17A" />
<rect x="35" y="26" width="3" height="1" fill="#F45BC4" />
<rect x="38" y="26" width="3" height="1" fill="#FC8FDA" />
<rect x="41" y="26" width="3" height="2" fill="#FCA9E2" />
<rect x="44" y="26" width="2" height="1" fill="#7AF9FF" />
<rect x="46" y="26" width="4" height="1" fill="#FC8FDA" />
<rect x="50" y="26" width="1" height="1" fill="#AC0F75" />
<rect x="12" y="27" width="1" height="5" fill="#AC0F75" />
<rect x="13" y="27" width="1" height="5" fill="#FC8FDA" />
<rect x="20" y="27" width="5" height="1" fill="#FC8FDA" />
<rect x="25" y="27" width="6" height="1" fill="#F45BC4" />
<rect x="31" y="27" width="8" height="1" fill="#FC8FDA" />
<rect x="39" y="27" width="2" height="2" fill="#FCA9E2" />
<rect x="44" y="27" width="1" height="1" fill="#FCA9E2" />
<rect x="45" y="27" width="2" height="1" fill="#7AF9FF" />
<rect x="47" y="27" width="2" height="1" fill="#FC8FDA" />
<rect x="49" y="27" width="2" height="2" fill="#F45BC4" />
<rect x="51" y="27" width="1" height="5" fill="#AC0F75" />
<rect x="17" y="28" width="1" height="1" fill="#FC8FDA" />
<rect x="18" y="28" width="8" height="1" fill="#F45BC4" />
<rect x="26" y="28" width="1" height="1" fill="#FC8FDA" />
<rect x="27" y="28" width="9" height="2" fill="#FCA9E2" />
<rect x="36" y="28" width="3" height="2" fill="#FC8FDA" />
<rect x="41" y="28" width="2" height="1" fill="#FCA9E2" />
<rect x="43" y="28" width="3" height="2" fill="#FC8FDA" />
<rect x="46" y="28" width="2" height="1" fill="#7AF9FF" />
<rect x="48" y="28" width="1" height="1" fill="#FC8FDA" />
<rect x="14" y="29" width="13" height="1" fill="#FCA9E2" />
<rect x="39" y="29" width="4" height="1" fill="#FC8FDA" />
<rect x="46" y="29" width="1" height="1" fill="#FC8FDA" />
<rect x="47" y="29" width="3" height="2" fill="#F45BC4" />
<rect x="50" y="29" width="1" height="3" fill="#C92495" />
<rect x="14" y="30" width="11" height="1" fill="#FCA9E2" />
<rect x="25" y="30" width="2" height="1" fill="#FFF17A" />
<rect x="27" y="30" width="2" height="1" fill="#FCA9E2" />
<rect x="29" y="30" width="8" height="1" fill="#FC8FDA" />
<rect x="37" y="30" width="10" height="1" fill="#F45BC4" />
<rect x="14" y="31" width="1" height="2" fill="#FC8FDA" />
<rect x="15" y="31" width="3" height="2" fill="#FCA9E2" />
<rect x="18" y="31" width="2" height="2" fill="#FC8FDA" />
<rect x="20" y="31" width="2" height="1" fill="#FCA9E2" />
<rect x="22" y="31" width="4" height="1" fill="#FFF17A" />
<rect x="26" y="31" width="7" height="1" fill="#FC8FDA" />
<rect x="33" y="31" width="11" height="1" fill="#F45BC4" />
<rect x="44" y="31" width="6" height="2" fill="#C92495" />
<rect x="13" y="32" width="1" height="1" fill="#AC0F75" />
<rect x="20" y="32" width="7" height="1" fill="#FC8FDA" />
<rect x="27" y="32" width="17" height="1" fill="#C92495" />
<rect x="50" y="32" width="1" height="1" fill="#AC0F75" />
<rect x="13" y="33" width="1" height="1" fill="#FCC184" />
<rect x="14" y="33" width="36" height="1" fill="#AC0F75" />
<rect x="50" y="33" width="1" height="1" fill="#FCC184" />
<rect x="12" y="34" width="2" height="1" fill="#98622B" />
<rect x="14" y="34" width="2" height="1" fill="#FCC184" />
<rect x="16" y="34" width="2" height="1" fill="#98622B" />
<rect x="18" y="34" width="2" height="1" fill="#FCC184" />
<rect x="20" y="34" width="2" height="1" fill="#98622B" />
<rect x="22" y="34" width="2" height="1" fill="#FCC184" />
<rect x="24" y="34" width="2" height="1" fill="#98622B" />
<rect x="26" y="34" width="2" height="1" fill="#FCC184" />
<rect x="28" y="34" width="2" height="1" fill="#98622B" />
<rect x="30" y="34" width="4" height="1" fill="#FCC184" />
<rect x="34" y="34" width="2" height="1" fill="#98622B" />
<rect x="36" y="34" width="2" height="1" fill="#FCC184" />
<rect x="38" y="34" width="2" height="1" fill="#98622B" />
<rect x="40" y="34" width="2" height="1" fill="#FCC184" />
<rect x="42" y="34" width="2" height="1" fill="#98622B" />
<rect x="44" y="34" width="2" height="1" fill="#FCC184" />
<rect x="46" y="34" width="2" height="1" fill="#98622B" />
<rect x="48" y="34" width="2" height="1" fill="#FCC184" />
<rect x="50" y="34" width="2" height="1" fill="#663931" />
<rect x="11" y="35" width="1" height="4" fill="#98622B" />
<rect x="12" y="35" width="2" height="1" fill="#D9A066" />
<rect x="14" y="35" width="3" height="1" fill="#98622B" />
<rect x="17" y="35" width="1" height="3" fill="#D9A066" />
<rect x="18" y="35" width="2" height="1" fill="#98622B" />
<rect x="20" y="35" width="2" height="2" fill="#D9A066" />
<rect x="22" y="35" width="2" height="1" fill="#98622B" />
<rect x="24" y="35" width="2" height="1" fill="#D9A066" />
<rect x="26" y="35" width="2" height="1" fill="#98622B" />
<rect x="28" y="35" width="1" height="15" fill="#D9A066" />
<rect x="29" y="35" width="6" height="1" fill="#98622B" />
<rect x="35" y="35" width="1" height="15" fill="#D9A066" />
<rect x="36" y="35" width="2" height="1" fill="#98622B" />
<rect x="38" y="35" width="2" height="1" fill="#D9A066" />
<rect x="40" y="35" width="2" height="1" fill="#98622B" />
<rect x="42" y="35" width="2" height="2" fill="#D9A066" />
<rect x="44" y="35" width="2" height="1" fill="#98622B" />
<rect x="46" y="35" width="1" height="3" fill="#D9A066" />
<rect x="47" y="35" width="3" height="1" fill="#98622B" />
<rect x="50" y="35" width="2" height="2" fill="#D9A066" />
<rect x="52" y="35" width="1" height="4" fill="#663931" />
<rect x="12" y="36" width="2" height="3" fill="#E7B27C" />
<rect x="14" y="36" width="2" height="1" fill="#D9A066" />
<rect x="16" y="36" width="1" height="2" fill="#98622B" />
<rect x="18" y="36" width="2" height="1" fill="#D9A066" />
<rect x="22" y="36" width="1" height="6" fill="#D9A066" />
<rect x="23" y="36" width="1" height="5" fill="#98622B" />
<rect x="24" y="36" width="4" height="3" fill="#E7B27C" />
<rect x="29" y="36" width="1" height="8" fill="#98622B" />
<rect x="30" y="36" width="1" height="9" fill="#D9A066" />
<rect x="31" y="36" width="2" height="7" fill="#E7B27C" />
<rect x="33" y="36" width="1" height="9" fill="#D9A066" />
<rect x="34" y="36" width="1" height="7" fill="#98622B" />
<rect x="36" y="36" width="1" height="1" fill="#D9A066" />
<rect x="37" y="36" width="2" height="4" fill="#E7B27C" />
<rect x="39" y="36" width="1" height="5" fill="#D9A066" />
<rect x="40" y="36" width="1" height="5" fill="#98622B" />
<rect x="41" y="36" width="1" height="4" fill="#D9A066" />
<rect x="44" y="36" width="2" height="3" fill="#E7B27C" />
<rect x="47" y="36" width="1" height="2" fill="#98622B" />
<rect x="48" y="36" width="2" height="1" fill="#D9A066" />
<rect x="14" y="37" width="2" height="3" fill="#E7B27C" />
<rect x="18" y="37" width="3" height="2" fill="#E7B27C" />
<rect x="21" y="37" width="1" height="1" fill="#D9A066" />
<rect x="36" y="37" width="1" height="6" fill="#E7B27C" />
<rect x="42" y="37" width="2" height="5" fill="#E7B27C" />
<rect x="48" y="37" width="3" height="2" fill="#E7B27C" />
<rect x="51" y="37" width="1" height="2" fill="#D9A066" />
<rect x="16" y="38" width="1" height="4" fill="#E7B27C" />
<rect x="17" y="38" width="1" height="3" fill="#98622B" />
<rect x="21" y="38" width="1" height="9" fill="#E7B27C" />
<rect x="46" y="38" width="1" height="2" fill="#98622B" />
<rect x="47" y="38" width="1" height="1" fill="#D9A066" />
<rect x="12" y="39" width="1" height="1" fill="#98622B" />
<rect x="13" y="39" width="1" height="1" fill="#D9A066" />
<rect x="18" y="39" width="1" height="2" fill="#D9A066" />
<rect x="19" y="39" width="2" height="1" fill="#E7B27C" />
<rect x="24" y="39" width="3" height="1" fill="#E7B27C" />
<rect x="27" y="39" width="1" height="3" fill="#D9A066" />
<rect x="44" y="39" width="1" height="2" fill="#E7B27C" />
<rect x="45" y="39" width="1" height="2" fill="#D9A066" />
<rect x="47" y="39" width="3" height="2" fill="#E7B27C" />
<rect x="50" y="39" width="1" height="1" fill="#D9A066" />
<rect x="51" y="39" width="1" height="1" fill="#663931" />
<rect x="13" y="40" width="1" height="3" fill="#98622B" />
<rect x="14" y="40" width="1" height="3" fill="#D9A066" />
<rect x="15" y="40" width="1" height="2" fill="#E7B27C" />
<rect x="19" y="40" width="1" height="4" fill="#D9A066" />
<rect x="20" y="40" width="1" height="4" fill="#E7B27C" />
<rect x="24" y="40" width="1" height="1" fill="#D9A066" />
<rect x="25" y="40" width="2" height="4" fill="#E7B27C" />
<rect x="37" y="40" width="1" height="3" fill="#E7B27C" />
<rect x="38" y="40" width="1" height="9" fill="#D9A066" />
<rect x="41" y="40" width="1" height="3" fill="#E7B27C" />
<rect x="46" y="40" width="1" height="1" fill="#663931" />
<rect x="50" y="40" width="1" height="3" fill="#663931" />
<rect x="17" y="41" width="1" height="5" fill="#D9A066" />
<rect x="18" y="41" width="1" height="3" fill="#98622B" />
<rect x="23" y="41" width="1" height="8" fill="#D9A066" />
<rect x="24" y="41" width="1" height="4" fill="#98622B" />
<rect x="39" y="41" width="1" height="2" fill="#98622B" />
<rect x="40" y="41" width="1" height="8" fill="#D9A066" />
<rect x="44" y="41" width="1" height="3" fill="#D9A066" />
<rect x="45" y="41" width="1" height="3" fill="#663931" />
<rect x="46" y="41" width="3" height="2" fill="#E7B27C" />
<rect x="49" y="41" width="1" height="2" fill="#D9A066" />
<rect x="15" y="42" width="2" height="3" fill="#D9A066" />
<rect x="22" y="42" width="1" height="5" fill="#E7B27C" />
<rect x="27" y="42" width="1" height="4" fill="#E7B27C" />
<rect x="42" y="42" width="1" height="1" fill="#E7B27C" />
<rect x="43" y="42" width="1" height="5" fill="#D9A066" />
<rect x="14" y="43" width="1" height="1" fill="#98622B" />
<rect x="31" y="43" width="2" height="7" fill="#D9A066" />
<rect x="34" y="43" width="1" height="2" fill="#663931" />
<rect x="36" y="43" width="2" height="7" fill="#D9A066" />
<rect x="39" y="43" width="1" height="6" fill="#663931" />
<rect x="41" y="43" width="2" height="6" fill="#D9A066" />
<rect x="46" y="43" width="3" height="2" fill="#D9A066" />
<rect x="49" y="43" width="1" height="4" fill="#663931" />
<rect x="14" y="44" width="1" height="3" fill="#663931" />
<rect x="18" y="44" width="1" height="3" fill="#D9A066" />
<rect x="19" y="44" width="1" height="2" fill="#98622B" />
<rect x="20" y="44" width="1" height="3" fill="#D9A066" />
<rect x="25" y="44" width="1" height="5" fill="#D9A066" />
<rect x="26" y="44" width="1" height="2" fill="#E7B27C" />
<rect x="29" y="44" width="1" height="1" fill="#663931" />
<rect x="44" y="44" width="1" height="3" fill="#663931" />
<rect x="45" y="44" width="1" height="3" fill="#D9A066" />
<rect x="15" y="45" width="1" height="2" fill="#C68747" />
<rect x="16" y="45" width="1" height="1" fill="#D9A066" />
<rect x="24" y="45" width="1" height="4" fill="#663931" />
<rect x="29" y="45" width="1" height="5" fill="#D9A066" />
<rect x="30" y="45" width="1" height="10" fill="#663931" />
<rect x="33" y="45" width="1" height="10" fill="#663931" />
<rect x="34" y="45" width="1" height="5" fill="#D9A066" />
<rect x="46" y="45" width="2" height="1" fill="#D9A066" />
<rect x="48" y="45" width="1" height="2" fill="#C68747" />
<rect x="16" y="46" width="2" height="1" fill="#C68747" />
<rect x="19" y="46" width="1" height="1" fill="#663931" />
<rect x="26" y="46" width="2" height="4" fill="#D9A066" />
<rect x="46" y="46" width="2" height="1" fill="#C68747" />
<rect x="15" y="47" width="2" height="1" fill="#663931" />
<rect x="17" y="47" width="3" height="2" fill="#C68747" />
<rect x="20" y="47" width="1" height="3" fill="#663931" />
<rect x="21" y="47" width="2" height="2" fill="#D9A066" />
<rect x="43" y="47" width="1" height="3" fill="#663931" />
<rect x="44" y="47" width="3" height="2" fill="#C68747" />
<rect x="47" y="47" width="2" height="1" fill="#663931" />
<rect x="16" y="48" width="1" height="1" fill="#663931" />
<rect x="47" y="48" width="1" height="1" fill="#663931" />
<rect x="17" y="49" width="1" height="3" fill="#663931" />
<rect x="18" y="49" width="2" height="3" fill="#C68747" />
<rect x="21" y="49" width="3" height="1" fill="#C68747" />
<rect x="24" y="49" width="1" height="1" fill="#D9A066" />
<rect x="25" y="49" width="1" height="6" fill="#663931" />
<rect x="38" y="49" width="1" height="6" fill="#663931" />
<rect x="39" y="49" width="1" height="1" fill="#D9A066" />
<rect x="40" y="49" width="3" height="1" fill="#C68747" />
<rect x="44" y="49" width="2" height="3" fill="#C68747" />
<rect x="46" y="49" width="1" height="3" fill="#663931" />
<rect x="20" y="50" width="1" height="4" fill="#C68747" />
<rect x="21" y="50" width="1" height="3" fill="#663931" />
<rect x="22" y="50" width="3" height="3" fill="#C68747" />
<rect x="26" y="50" width="4" height="4" fill="#C68747" />
<rect x="31" y="50" width="2" height="4" fill="#C68747" />
<rect x="34" y="50" width="4" height="4" fill="#C68747" />
<rect x="39" y="50" width="3" height="3" fill="#C68747" />
<rect x="42" y="50" width="1" height="3" fill="#663931" />
<rect x="43" y="50" width="1" height="4" fill="#C68747" />
<rect x="18" y="52" width="1" height="1" fill="#663931" />
<rect x="19" y="52" width="1" height="1" fill="#C68747" />
<rect x="44" y="52" width="1" height="1" fill="#C68747" />
<rect x="45" y="52" width="1" height="1" fill="#663931" />
<rect x="19" y="53" width="1" height="1" fill="#663931" />
<rect x="21" y="53" width="1" height="1" fill="#C68747" />
<rect x="22" y="53" width="1" height="2" fill="#663931" />
<rect x="23" y="53" width="2" height="1" fill="#C68747" />
<rect x="39" y="53" width="2" height="1" fill="#C68747" />
<rect x="41" y="53" width="1" height="2" fill="#663931" />
<rect x="42" y="53" width="1" height="1" fill="#C68747" />
<rect x="44" y="53" width="1" height="1" fill="#663931" />
<rect x="20" y="54" width="2" height="1" fill="#663931" />
<rect x="23" y="54" width="2" height="1" fill="#663931" />
<rect x="26" y="54" width="4" height="1" fill="#663931" />
<rect x="31" y="54" width="2" height="1" fill="#663931" />
<rect x="34" y="54" width="4" height="1" fill="#663931" />
<rect x="39" y="54" width="2" height="1" fill="#663931" />
<rect x="42" y="54" width="2" height="1" fill="#663931" />
</svg>