<?xml version="1.0" encoding="UTF-8" ?>
<svg version="1.1" width="64" height="64" xmlns="http://www.w3.org/2000/svg" shape-rendering="crispEdges">
<rect x="31" y="16" width="4" height="1" fill="#661B41" />
<rect x="30" y="17" width="1" height="1" fill="#661B41" />
<rect x="31" y="17" width="4" height="1" fill="#FF89BE" />
<rect x="35" y="17" width="1" height="1" fill="#661B41" />
<rect x="29" y="18" width="1" height="2" fill="#661B41" />
<rect x="30" y="18" width="1" height="9" fill="#FF89BE" />
<rect x="31" y="18" width="3" height="2" fill="#F7A9CC" />
<rect x="34" y="18" width="2" height="1" fill="#FF89BE" />
<rect x="36" y="18" width="1" height="3" fill="#661B41" />
<rect x="34" y="19" width="1" height="4" fill="#F7A9CC" />
<rect x="35" y="19" width="1" height="2" fill="#FF89BE" />
<rect x="23" y="20" width="2" height="1" fill="#661B41" />
<rect x="28" y="20" width="1" height="2" fill="#661B41" />
<rect x="29" y="20" width="1" height="5" fill="#FF89BE" />
<rect x="31" y="20" width="1" height="6" fill="#FF89BE" />
<rect x="32" y="20" width="2" height="4" fill="#F7A9CC" />
<rect x="21" y="21" width="2" height="1" fill="#661B41" />
<rect x="23" y="21" width="2" height="2" fill="#FF89BE" />
<rect x="25" y="21" width="2" height="1" fill="#661B41" />
<rect x="35" y="21" width="2" height="1" fill="#E9619E" />
<rect x="37" y="21" width="1" height="4" fill="#661B41" />
<rect x="20" y="22" width="1" height="1" fill="#661B41" />
<rect x="21" y="22" width="2" height="1" fill="#FF89BE" />
<rect x="25" y="22" width="2" height="2" fill="#FF89BE" />
<rect x="27" y="22" width="1" height="1" fill="#661B41" />
<rect x="28" y="22" width="1" height="2" fill="#FF89BE" />
<rect x="35" y="22" width="1" height="2" fill="#FF89BE" />
<rect x="36" y="22" width="1" height="2" fill="#E9619E" />
<rect x="39" y="22" width="5" height="1" fill="#661B41" />
<rect x="19" y="23" width="1" height="3" fill="#661B41" />
<rect x="20" y="23" width="2" height="1" fill="#FF89BE" />
<rect x="22" y="23" width="3" height="3" fill="#F7A9CC" />
<rect x="27" y="23" width="1" height="2" fill="#E9619E" />
<rect x="34" y="23" width="1" height="3" fill="#FF89BE" />
<rect x="38" y="23" width="1" height="1" fill="#661B41" />
<rect x="39" y="23" width="1" height="1" fill="#FF89BE" />
<rect x="40" y="23" width="1" height="5" fill="#F7A9CC" />
<rect x="41" y="23" width="1" height="1" fill="#FF89BE" />
<rect x="42" y="23" width="2" height="1" fill="#E9619E" />
<rect x="44" y="23" width="1" height="3" fill="#661B41" />
<rect x="20" y="24" width="1" height="2" fill="#FF89BE" />
<rect x="21" y="24" width="1" height="1" fill="#F7A9CC" />
<rect x="25" y="24" width="1" height="3" fill="#F7A9CC" />
<rect x="26" y="24" width="1" height="1" fill="#FF89BE" />
<rect x="28" y="24" width="1" height="3" fill="#E9619E" />
<rect x="32" y="24" width="2" height="2" fill="#FF89BE" />
<rect x="35" y="24" width="1" height="3" fill="#E9619E" />
<rect x="36" y="24" width="1" height="2" fill="#661B41" />
<rect x="38" y="24" width="1" height="1" fill="#FF89BE" />
<rect x="39" y="24" width="1" height="4" fill="#F7A9CC" />
<rect x="41" y="24" width="1" height="3" fill="#F7A9CC" />
<rect x="42" y="24" width="1" height="1" fill="#FF89BE" />
<rect x="43" y="24" width="1" height="2" fill="#E9619E" />
<rect x="21" y="25" width="1" height="2" fill="#FF89BE" />
<rect x="26" y="25" width="1" height="1" fill="#F7A9CC" />
<rect x="27" y="25" width="1" height="3" fill="#FF89BE" />
<rect x="29" y="25" width="1" height="1" fill="#E9619E" />
<rect x="37" y="25" width="1" height="1" fill="#FF89BE" />
<rect x="38" y="25" width="1" height="3" fill="#F7A9CC" />
<rect x="42" y="25" width="1" height="1" fill="#F7A9CC" />
<rect x="20" y="26" width="1" height="1" fill="#661B41" />
<rect x="22" y="26" width="3" height="2" fill="#FF89BE" />
<rect x="26" y="26" width="1" height="3" fill="#FF89BE" />
<rect x="29" y="26" width="1" height="1" fill="#FF89BE" />
<rect x="31" y="26" width="3" height="1" fill="#CB6A1B" />
<rect x="34" y="26" width="1" height="1" fill="#E9619E" />
<rect x="36" y="26" width="1" height="3" fill="#FF89BE" />
<rect x="37" y="26" width="1" height="3" fill="#F7A9CC" />
<rect x="42" y="26" width="1" height="1" fill="#E9619E" />
<rect x="43" y="26" width="1" height="3" fill="#FF89BE" />
<rect x="44" y="26" width="1" height="4" fill="#E9619E" />
<rect x="45" y="26" width="1" height="1" fill="#661B41" />
<rect x="21" y="27" width="1" height="2" fill="#661B41" />
<rect x="25" y="27" width="1" height="3" fill="#FF89BE" />
<rect x="28" y="27" width="3" height="1" fill="#CB6A1B" />
<rect x="31" y="27" width="3" height="2" fill="#F4F245" />
<rect x="34" y="27" width="1" height="1" fill="#CB6A1B" />
<rect x="35" y="27" width="1" height="1" fill="#FF89BE" />
<rect x="41" y="27" width="2" height="3" fill="#FF89BE" />
<rect x="45" y="27" width="1" height="2" fill="#E9619E" />
<rect x="46" y="27" width="1" height="2" fill="#661B41" />
<rect x="19" y="28" width="2" height="1" fill="#661B41" />
<rect x="22" y="28" width="2" height="1" fill="#E9619E" />
<rect x="24" y="28" width="1" height="1" fill="#FF89BE" />
<rect x="27" y="28" width="1" height="1" fill="#CB6A1B" />
<rect x="28" y="28" width="2" height="2" fill="#F4F245" />
<rect x="30" y="28" width="1" height="1" fill="#FFFFFF" />
<rect x="34" y="28" width="1" height="5" fill="#F4F245" />
<rect x="35" y="28" width="1" height="1" fill="#CB6A1B" />
<rect x="38" y="28" width="3" height="2" fill="#FF89BE" />
<rect x="17" y="29" width="2" height="1" fill="#661B41" />
<rect x="19" y="29" width="5" height="1" fill="#FF89BE" />
<rect x="24" y="29" width="1" height="1" fill="#E9619E" />
<rect x="26" y="29" width="1" height="1" fill="#CB6A1B" />
<rect x="27" y="29" width="1" height="8" fill="#F4F245" />
<rect x="30" y="29" width="2" height="2" fill="#F4F245" />
<rect x="32" y="29" width="1" height="1" fill="#FFFFFF" />
<rect x="33" y="29" width="1" height="4" fill="#F4F245" />
<rect x="35" y="29" width="1" height="4" fill="#F4C345" />
<rect x="36" y="29" width="1" height="4" fill="#CB6A1B" />
<rect x="37" y="29" width="1" height="1" fill="#FF89BE" />
<rect x="43" y="29" width="1" height="3" fill="#E9619E" />
<rect x="45" y="29" width="1" height="1" fill="#661B41" />
<rect x="16" y="30" width="1" height="1" fill="#661B41" />
<rect x="17" y="30" width="1" height="1" fill="#FF89BE" />
<rect x="18" y="30" width="1" height="3" fill="#F7A9CC" />
<rect x="19" y="30" width="1" height="1" fill="#FF89BE" />
<rect x="20" y="30" width="2" height="2" fill="#F7A9CC" />
<rect x="22" y="30" width="3" height="1" fill="#FF89BE" />
<rect x="25" y="30" width="1" height="1" fill="#CB6A1B" />
<rect x="26" y="30" width="1" height="6" fill="#F4F245" />
<rect x="28" y="30" width="1" height="6" fill="#F4F245" />
<rect x="29" y="30" width="1" height="2" fill="#FFFFFF" />
<rect x="32" y="30" width="1" height="4" fill="#F4F245" />
<rect x="37" y="30" width="1" height="3" fill="#E9619E" />
<rect x="38" y="30" width="2" height="1" fill="#FF89BE" />
<rect x="40" y="30" width="3" height="1" fill="#E9619E" />
<rect x="44" y="30" width="1" height="2" fill="#661B41" />
<rect x="15" y="31" width="1" height="4" fill="#661B41" />
<rect x="16" y="31" width="1" height="1" fill="#FF89BE" />
<rect x="17" y="31" width="1" height="3" fill="#F7A9CC" />
<rect x="19" y="31" width="1" height="2" fill="#F7A9CC" />
<rect x="22" y="31" width="1" height="1" fill="#F7A9CC" />
<rect x="23" y="31" width="1" height="4" fill="#FF89BE" />
<rect x="24" y="31" width="1" height="5" fill="#CB6A1B" />
<rect x="25" y="31" width="1" height="5" fill="#F4F245" />
<rect x="30" y="31" width="1" height="5" fill="#F4F245" />
<rect x="31" y="31" width="1" height="1" fill="#FFFFFF" />
<rect x="38" y="31" width="4" height="1" fill="#E9619E" />
<rect x="42" y="31" width="1" height="2" fill="#FF89BE" />
<rect x="16" y="32" width="1" height="1" fill="#F7A9CC" />
<rect x="20" y="32" width="1" height="4" fill="#FF89BE" />
<rect x="21" y="32" width="1" height="1" fill="#F7A9CC" />
<rect x="22" y="32" width="1" height="4" fill="#FF89BE" />
<rect x="29" y="32" width="1" height="4" fill="#F4F245" />
<rect x="31" y="32" width="1" height="3" fill="#F4F245" />
<rect x="38" y="32" width="1" height="1" fill="#FF89BE" />
<rect x="39" y="32" width="1" height="4" fill="#F7A9CC" />
<rect x="40" y="32" width="2" height="1" fill="#FF89BE" />
<rect x="43" y="32" width="1" height="1" fill="#661B41" />
<rect x="16" y="33" width="1" height="2" fill="#FF89BE" />
<rect x="18" y="33" width="2" height="2" fill="#FF89BE" />
<rect x="21" y="33" width="1" height="3" fill="#FF89BE" />
<rect x="33" y="33" width="2" height="2" fill="#F4C345" />
<rect x="35" y="33" width="1" height="2" fill="#CB6A1B" />
<rect x="36" y="33" width="1" height="2" fill="#E9619E" />
<rect x="37" y="33" width="1" height="5" fill="#FF89BE" />
<rect x="38" y="33" width="1" height="1" fill="#F7A9CC" />
<rect x="40" y="33" width="3" height="2" fill="#F7A9CC" />
<rect x="43" y="33" width="1" height="5" fill="#E9619E" />
<rect x="44" y="33" width="1" height="5" fill="#661B41" />
<rect x="17" y="34" width="1" height="1" fill="#FF89BE" />
<rect x="32" y="34" width="1" height="3" fill="#F4C345" />
<rect x="38" y="34" width="1" height="4" fill="#FF89BE" />
<rect x="16" y="35" width="1" height="1" fill="#661B41" />
<rect x="17" y="35" width="3" height="1" fill="#E9619E" />
<rect x="23" y="35" width="1" height="2" fill="#E9619E" />
<rect x="31" y="35" width="1" height="3" fill="#F4C345" />
<rect x="33" y="35" width="1" height="1" fill="#F4C345" />
<rect x="34" y="35" width="1" height="1" fill="#CB6A1B" />
<rect x="35" y="35" width="1" height="3" fill="#E9619E" />
<rect x="36" y="35" width="1" height="2" fill="#FF89BE" />
<rect x="40" y="35" width="1" height="3" fill="#FF89BE" />
<rect x="41" y="35" width="1" height="1" fill="#F7A9CC" />
<rect x="42" y="35" width="1" height="4" fill="#E9619E" />
<rect x="17" y="36" width="1" height="1" fill="#661B41" />
<rect x="18" y="36" width="5" height="1" fill="#E9619E" />
<rect x="24" y="36" width="1" height="1" fill="#FF89BE" />
<rect x="25" y="36" width="1" height="1" fill="#CB6A1B" />
<rect x="26" y="36" width="1" height="1" fill="#F4C345" />
<rect x="28" y="36" width="3" height="2" fill="#F4C345" />
<rect x="33" y="36" width="1" height="1" fill="#CB6A1B" />
<rect x="34" y="36" width="1" height="2" fill="#E9619E" />
<rect x="39" y="36" width="1" height="3" fill="#FF89BE" />
<rect x="41" y="36" width="1" height="2" fill="#FF89BE" />
<rect x="18" y="37" width="2" height="1" fill="#661B41" />
<rect x="20" y="37" width="2" height="1" fill="#E9619E" />
<rect x="22" y="37" width="2" height="1" fill="#FF89BE" />
<rect x="24" y="37" width="1" height="1" fill="#F7A9CC" />
<rect x="25" y="37" width="1" height="1" fill="#E9619E" />
<rect x="26" y="37" width="1" height="1" fill="#CB6A1B" />
<rect x="27" y="37" width="1" height="1" fill="#F4C345" />
<rect x="32" y="37" width="1" height="1" fill="#CB6A1B" />
<rect x="33" y="37" width="1" height="1" fill="#E9619E" />
<rect x="36" y="37" width="1" height="1" fill="#E9619E" />
<rect x="20" y="38" width="1" height="1" fill="#661B41" />
<rect x="21" y="38" width="1" height="3" fill="#F7A9CC" />
<rect x="22" y="38" width="1" height="1" fill="#FF89BE" />
<rect x="23" y="38" width="1" height="1" fill="#F7A9CC" />
<rect x="24" y="38" width="2" height="5" fill="#FF89BE" />
<rect x="26" y="38" width="1" height="1" fill="#E9619E" />
<rect x="27" y="38" width="5" height="1" fill="#CB6A1B" />
<rect x="32" y="38" width="5" height="1" fill="#FF89BE" />
<rect x="37" y="38" width="2" height="1" fill="#E9619E" />
<rect x="40" y="38" width="2" height="2" fill="#E9619E" />
<rect x="43" y="38" width="1" height="1" fill="#661B41" />
<rect x="19" y="39" width="1" height="1" fill="#661B41" />
<rect x="20" y="39" width="1" height="2" fill="#F7A9CC" />
<rect x="22" y="39" width="1" height="2" fill="#F7A9CC" />
<rect x="23" y="39" width="1" height="4" fill="#FF89BE" />
<rect x="26" y="39" width="2" height="2" fill="#FF89BE" />
<rect x="28" y="39" width="3" height="1" fill="#E9619E" />
<rect x="31" y="39" width="5" height="1" fill="#FF89BE" />
<rect x="36" y="39" width="2" height="2" fill="#F7A9CC" />
<rect x="38" y="39" width="2" height="1" fill="#E9619E" />
<rect x="42" y="39" width="1" height="1" fill="#661B41" />
<rect x="18" y="40" width="1" height="3" fill="#661B41" />
<rect x="19" y="40" width="1" height="1" fill="#FF89BE" />
<rect x="28" y="40" width="2" height="3" fill="#E9619E" />
<rect x="30" y="40" width="4" height="1" fill="#FF89BE" />
<rect x="34" y="40" width="2" height="2" fill="#F7A9CC" />
<rect x="38" y="40" width="1" height="2" fill="#E9619E" />
<rect x="39" y="40" width="3" height="1" fill="#661B41" />
<rect x="19" y="41" width="3" height="2" fill="#E9619E" />
<rect x="22" y="41" width="1" height="1" fill="#FF89BE" />
<rect x="26" y="41" width="1" height="1" fill="#FF89BE" />
<rect x="27" y="41" width="1" height="3" fill="#E9619E" />
<rect x="30" y="41" width="3" height="2" fill="#FF89BE" />
<rect x="33" y="41" width="1" height="3" fill="#F7A9CC" />
<rect x="36" y="41" width="2" height="2" fill="#E9619E" />
<rect x="39" y="41" width="1" height="1" fill="#661B41" />
<rect x="22" y="42" width="1" height="2" fill="#E9619E" />
<rect x="26" y="42" width="1" height="2" fill="#E9619E" />
<rect x="34" y="42" width="1" height="1" fill="#F7A9CC" />
<rect x="35" y="42" width="1" height="2" fill="#E9619E" />
<rect x="38" y="42" width="1" height="1" fill="#661B41" />
<rect x="19" y="43" width="1" height="1" fill="#661B41" />
<rect x="20" y="43" width="2" height="1" fill="#E9619E" />
<rect x="23" y="43" width="3" height="1" fill="#E9619E" />
<rect x="28" y="43" width="1" height="3" fill="#661B41" />
<rect x="29" y="43" width="1" height="3" fill="#E9619E" />
<rect x="30" y="43" width="2" height="1" fill="#FF89BE" />
<rect x="32" y="43" width="1" height="2" fill="#F7A9CC" />
<rect x="34" y="43" width="1" height="3" fill="#E9619E" />
<rect x="36" y="43" width="2" height="1" fill="#661B41" />
<rect x="20" y="44" width="8" height="1" fill="#661B41" />
<rect x="30" y="44" width="1" height="1" fill="#FF89BE" />
<rect x="31" y="44" width="1" height="1" fill="#F7A9CC" />
<rect x="33" y="44" width="1" height="2" fill="#E9619E" />
<rect x="35" y="44" width="1" height="2" fill="#661B41" />
<rect x="30" y="45" width="3" height="1" fill="#E9619E" />
<rect x="29" y="46" width="6" height="1" fill="#661B41" />
</svg>