<?xml version="1.0" encoding="UTF-8" ?>
<svg version="1.1" width="64" height="64" xmlns="http://www.w3.org/2000/svg" shape-rendering="crispEdges">
<rect x="2" y="0" width="60" height="3" fill="#F7AC6F" />
<rect x="1" y="1" width="1" height="62" fill="#F7AC6F" />
<rect x="62" y="1" width="1" height="62" fill="#F7AC6F" />
<rect x="0" y="2" width="1" height="60" fill="#F7AC6F" />
<rect x="63" y="2" width="1" height="60" fill="#F7AC6F" />
<rect x="2" y="3" width="3" height="1" fill="#F7AC6F" />
<rect x="5" y="3" width="54" height="11" fill="#FAEF91" />
<rect x="59" y="3" width="3" height="1" fill="#F7AC6F" />
<rect x="2" y="4" width="2" height="1" fill="#F7AC6F" />
<rect x="4" y="4" width="1" height="56" fill="#FAEF91" />
<rect x="59" y="4" width="1" height="56" fill="#FAEF91" />
<rect x="60" y="4" width="2" height="1" fill="#F7AC6F" />
<rect x="2" y="5" width="1" height="59" fill="#F7AC6F" />
<rect x="3" y="5" width="1" height="54" fill="#FAEF91" />
<rect x="60" y="5" width="1" height="54" fill="#FAEF91" />
<rect x="61" y="5" width="1" height="59" fill="#F7AC6F" />
<rect x="5" y="14" width="5" height="1" fill="#FAEF91" />
<rect x="10" y="14" width="5" height="1" fill="#000000" />
<rect x="15" y="14" width="34" height="1" fill="#FAEF91" />
<rect x="49" y="14" width="5" height="1" fill="#000000" />
<rect x="54" y="14" width="5" height="1" fill="#FAEF91" />
<rect x="5" y="15" width="4" height="1" fill="#FAEF91" />
<rect x="9" y="15" width="1" height="1" fill="#000000" />
<rect x="10" y="15" width="5" height="3" fill="#222034" />
<rect x="15" y="15" width="3" height="1" fill="#000000" />
<rect x="18" y="15" width="28" height="1" fill="#FAEF91" />
<rect x="46" y="15" width="3" height="1" fill="#000000" />
<rect x="49" y="15" width="5" height="3" fill="#222034" />
<rect x="54" y="15" width="1" height="1" fill="#000000" />
<rect x="55" y="15" width="4" height="1" fill="#FAEF91" />
<rect x="5" y="16" width="3" height="2" fill="#FAEF91" />
<rect x="8" y="16" width="1" height="2" fill="#000000" />
<rect x="9" y="16" width="1" height="13" fill="#222034" />
<rect x="15" y="16" width="3" height="3" fill="#222034" />
<rect x="18" y="16" width="2" height="1" fill="#000000" />
<rect x="20" y="16" width="24" height="1" fill="#FAEF91" />
<rect x="44" y="16" width="2" height="1" fill="#000000" />
<rect x="46" y="16" width="3" height="3" fill="#222034" />
<rect x="54" y="16" width="1" height="13" fill="#222034" />
<rect x="55" y="16" width="1" height="2" fill="#000000" />
<rect x="56" y="16" width="3" height="2" fill="#FAEF91" />
<rect x="18" y="17" width="2" height="4" fill="#222034" />
<rect x="20" y="17" width="1" height="1" fill="#000000" />
<rect x="21" y="17" width="22" height="1" fill="#FAEF91" />
<rect x="43" y="17" width="1" height="1" fill="#000000" />
<rect x="44" y="17" width="2" height="4" fill="#222034" />
<rect x="5" y="18" width="2" height="43" fill="#FAEF91" />
<rect x="7" y="18" width="1" height="8" fill="#000000" />
<rect x="8" y="18" width="1" height="8" fill="#222034" />
<rect x="10" y="18" width="2" height="12" fill="#222034" />
<rect x="12" y="18" width="3" height="6" fill="#FF98DF" />
<rect x="20" y="18" width="1" height="4" fill="#222034" />
<rect x="21" y="18" width="2" height="1" fill="#000000" />
<rect x="23" y="18" width="18" height="1" fill="#FAEF91" />
<rect x="41" y="18" width="2" height="1" fill="#000000" />
<rect x="43" y="18" width="1" height="4" fill="#222034" />
<rect x="49" y="18" width="3" height="6" fill="#FF98DF" />
<rect x="52" y="18" width="2" height="12" fill="#222034" />
<rect x="55" y="18" width="1" height="8" fill="#222034" />
<rect x="56" y="18" width="1" height="8" fill="#000000" />
<rect x="57" y="18" width="2" height="43" fill="#FAEF91" />
<rect x="15" y="19" width="2" height="4" fill="#FF98DF" />
<rect x="17" y="19" width="1" height="1" fill="#222034" />
<rect x="21" y="19" width="2" height="3" fill="#222034" />
<rect x="23" y="19" width="1" height="1" fill="#000000" />
<rect x="24" y="19" width="16" height="1" fill="#FAEF91" />
<rect x="40" y="19" width="1" height="1" fill="#000000" />
<rect x="41" y="19" width="2" height="3" fill="#222034" />
<rect x="46" y="19" width="1" height="1" fill="#222034" />
<rect x="47" y="19" width="2" height="4" fill="#FF98DF" />
<rect x="17" y="20" width="1" height="3" fill="#FF98DF" />
<rect x="23" y="20" width="1" height="2" fill="#222034" />
<rect x="24" y="20" width="1" height="1" fill="#000000" />
<rect x="25" y="20" width="14" height="1" fill="#FAEF91" />
<rect x="39" y="20" width="1" height="1" fill="#000000" />
<rect x="40" y="20" width="1" height="2" fill="#222034" />
<rect x="46" y="20" width="1" height="3" fill="#FF98DF" />
<rect x="18" y="21" width="1" height="1" fill="#FF98DF" />
<rect x="19" y="21" width="1" height="1" fill="#222034" />
<rect x="24" y="21" width="1" height="1" fill="#222034" />
<rect x="25" y="21" width="1" height="1" fill="#000000" />
<rect x="26" y="21" width="12" height="1" fill="#FAEF91" />
<rect x="38" y="21" width="1" height="1" fill="#000000" />
<rect x="39" y="21" width="1" height="1" fill="#222034" />
<rect x="44" y="21" width="1" height="1" fill="#222034" />
<rect x="45" y="21" width="1" height="1" fill="#FF98DF" />
<rect x="18" y="22" width="28" height="1" fill="#663931" />
<rect x="15" y="23" width="3" height="1" fill="#663931" />
<rect x="18" y="23" width="28" height="2" fill="#FFFFFF" />
<rect x="46" y="23" width="3" height="1" fill="#663931" />
<rect x="12" y="24" width="2" height="1" fill="#FF98DF" />
<rect x="14" y="24" width="1" height="1" fill="#663931" />
<rect x="15" y="24" width="3" height="3" fill="#FFFFFF" />
<rect x="46" y="24" width="3" height="4" fill="#FFFFFF" />
<rect x="49" y="24" width="1" height="1" fill="#663931" />
<rect x="50" y="24" width="2" height="1" fill="#FF98DF" />
<rect x="12" y="25" width="1" height="2" fill="#FF98DF" />
<rect x="13" y="25" width="1" height="2" fill="#663931" />
<rect x="14" y="25" width="1" height="21" fill="#FFFFFF" />
<rect x="18" y="25" width="25" height="1" fill="#FFFFFF" />
<rect x="43" y="25" width="3" height="3" fill="#76E957" />
<rect x="49" y="25" width="1" height="3" fill="#FFFFFF" />
<rect x="50" y="25" width="1" height="2" fill="#663931" />
<rect x="51" y="25" width="1" height="2" fill="#FF98DF" />
<rect x="7" y="26" width="1" height="35" fill="#FAEF91" />
<rect x="8" y="26" width="1" height="3" fill="#000000" />
<rect x="18" y="26" width="4" height="1" fill="#F45BC4" />
<rect x="22" y="26" width="21" height="1" fill="#FFFFFF" />
<rect x="55" y="26" width="1" height="3" fill="#000000" />
<rect x="56" y="26" width="1" height="35" fill="#FAEF91" />
<rect x="12" y="27" width="1" height="3" fill="#663931" />
<rect x="13" y="27" width="1" height="19" fill="#FFFFFF" />
<rect x="15" y="27" width="2" height="19" fill="#FFFFFF" />
<rect x="17" y="27" width="2" height="1" fill="#F45BC4" />
<rect x="19" y="27" width="3" height="2" fill="#FC8FDA" />
<rect x="22" y="27" width="1" height="4" fill="#F45BC4" />
<rect x="23" y="27" width="20" height="1" fill="#FFFFFF" />
<rect x="50" y="27" width="1" height="19" fill="#FFFFFF" />
<rect x="51" y="27" width="1" height="3" fill="#663931" />
<rect x="17" y="28" width="1" height="3" fill="#F45BC4" />
<rect x="18" y="28" width="1" height="3" fill="#FC8FDA" />
<rect x="23" y="28" width="16" height="3" fill="#FFFFFF" />
<rect x="39" y="28" width="3" height="3" fill="#57BBE9" />
<rect x="42" y="28" width="1" height="15" fill="#FFFFFF" />
<rect x="43" y="28" width="3" height="1" fill="#F1D8EA" />
<rect x="46" y="28" width="1" height="17" fill="#FFFFFF" />
<rect x="47" y="28" width="3" height="3" fill="#E95757" />
<rect x="8" y="29" width="1" height="32" fill="#FAEF91" />
<rect x="9" y="29" width="1" height="2" fill="#000000" />
<rect x="19" y="29" width="2" height="2" fill="#FC8FDA" />
<rect x="21" y="29" width="1" height="3" fill="#F45BC4" />
<rect x="43" y="29" width="3" height="2" fill="#FFFFFF" />
<rect x="54" y="29" width="1" height="2" fill="#000000" />
<rect x="55" y="29" width="1" height="32" fill="#FAEF91" />
<rect x="10" y="30" width="1" height="1" fill="#222034" />
<rect x="11" y="30" width="1" height="3" fill="#663931" />
<rect x="12" y="30" width="1" height="14" fill="#FFFFFF" />
<rect x="51" y="30" width="1" height="14" fill="#FFFFFF" />
<rect x="52" y="30" width="1" height="3" fill="#663931" />
<rect x="53" y="30" width="1" height="1" fill="#222034" />
<rect x="9" y="31" width="1" height="6" fill="#FAEF91" />
<rect x="10" y="31" width="1" height="2" fill="#000000" />
<rect x="17" y="31" width="1" height="1" fill="#C92495" />
<rect x="18" y="31" width="3" height="1" fill="#F45BC4" />
<rect x="22" y="31" width="1" height="1" fill="#C92495" />
<rect x="23" y="31" width="13" height="1" fill="#FFFFFF" />
<rect x="36" y="31" width="4" height="1" fill="#F45BC4" />
<rect x="40" y="31" width="2" height="1" fill="#F1D8EA" />
<rect x="43" y="31" width="3" height="3" fill="#F7DA60" />
<rect x="47" y="31" width="3" height="1" fill="#F1D8EA" />
<rect x="53" y="31" width="1" height="2" fill="#000000" />
<rect x="54" y="31" width="1" height="6" fill="#FAEF91" />
<rect x="17" y="32" width="1" height="2" fill="#F1D8EA" />
<rect x="18" y="32" width="4" height="1" fill="#C92495" />
<rect x="22" y="32" width="1" height="2" fill="#F1D8EA" />
<rect x="23" y="32" width="2" height="2" fill="#FFFFFF" />
<rect x="25" y="32" width="1" height="4" fill="#FC8FDA" />
<rect x="26" y="32" width="1" height="3" fill="#FAA8E0" />
<rect x="27" y="32" width="8" height="2" fill="#FFFFFF" />
<rect x="35" y="32" width="2" height="1" fill="#F45BC4" />
<rect x="37" y="32" width="3" height="2" fill="#FC8FDA" />
<rect x="40" y="32" width="1" height="4" fill="#F45BC4" />
<rect x="41" y="32" width="1" height="10" fill="#FFFFFF" />
<rect x="47" y="32" width="3" height="14" fill="#FFFFFF" />
<rect x="10" y="33" width="1" height="4" fill="#663931" />
<rect x="11" y="33" width="1" height="8" fill="#FFFFFF" />
<rect x="18" y="33" width="4" height="1" fill="#F1D8EA" />
<rect x="35" y="33" width="1" height="3" fill="#F45BC4" />
<rect x="36" y="33" width="1" height="3" fill="#FC8FDA" />
<rect x="52" y="33" width="1" height="8" fill="#FFFFFF" />
<rect x="53" y="33" width="1" height="4" fill="#663931" />
<rect x="17" y="34" width="2" height="11" fill="#FFFFFF" />
<rect x="19" y="34" width="2" height="1" fill="#F1D8EA" />
<rect x="21" y="34" width="2" height="8" fill="#FFFFFF" />
<rect x="23" y="34" width="2" height="1" fill="#FAA8E0" />
<rect x="27" y="34" width="2" height="1" fill="#FAA8E0" />
<rect x="29" y="34" width="6" height="4" fill="#FFFFFF" />
<rect x="37" y="34" width="2" height="2" fill="#FC8FDA" />
<rect x="39" y="34" width="1" height="3" fill="#F45BC4" />
<rect x="43" y="34" width="3" height="1" fill="#F1D8EA" />
<rect x="19" y="35" width="2" height="9" fill="#FFFFFF" />
<rect x="23" y="35" width="2" height="1" fill="#F45BC4" />
<rect x="26" y="35" width="3" height="1" fill="#FC8FDA" />
<rect x="43" y="35" width="3" height="9" fill="#FFFFFF" />
<rect x="23" y="36" width="2" height="1" fill="#F1D8EA" />
<rect x="25" y="36" width="1" height="2" fill="#F45BC4" />
<rect x="26" y="36" width="1" height="2" fill="#FC8FDA" />
<rect x="27" y="36" width="2" height="2" fill="#FFFFFF" />
<rect x="35" y="36" width="1" height="1" fill="#C92495" />
<rect x="36" y="36" width="3" height="1" fill="#F45BC4" />
<rect x="40" y="36" width="1" height="1" fill="#C92495" />
<rect x="9" y="37" width="1" height="4" fill="#663931" />
<rect x="10" y="37" width="1" height="4" fill="#FFFFFF" />
<rect x="23" y="37" width="1" height="4" fill="#FFFFFF" />
<rect x="24" y="37" width="1" height="1" fill="#F1D8EA" />
<rect x="35" y="37" width="1" height="2" fill="#F1D8EA" />
<rect x="36" y="37" width="4" height="1" fill="#C92495" />
<rect x="40" y="37" width="1" height="1" fill="#FFFFFF" />
<rect x="53" y="37" width="1" height="4" fill="#FFFFFF" />
<rect x="54" y="37" width="1" height="4" fill="#663931" />
<rect x="24" y="38" width="1" height="2" fill="#FFFFFF" />
<rect x="25" y="38" width="10" height="1" fill="#F1D8EA" />
<rect x="36" y="38" width="5" height="1" fill="#F1D8EA" />
<rect x="25" y="39" width="1" height="1" fill="#F1D8EA" />
<rect x="26" y="39" width="12" height="1" fill="#663931" />
<rect x="38" y="39" width="3" height="1" fill="#F1D8EA" />
<rect x="24" y="40" width="1" height="2" fill="#F1D8EA" />
<rect x="25" y="40" width="1" height="2" fill="#663931" />
<rect x="26" y="40" width="12" height="21" fill="#FAEF91" />
<rect x="38" y="40" width="1" height="2" fill="#663931" />
<rect x="39" y="40" width="1" height="2" fill="#F1D8EA" />
<rect x="40" y="40" width="1" height="1" fill="#FFFFFF" />
<rect x="9" y="41" width="1" height="20" fill="#FAEF91" />
<rect x="10" y="41" width="1" height="5" fill="#663931" />
<rect x="11" y="41" width="1" height="5" fill="#F1D8EA" />
<rect x="23" y="41" width="1" height="2" fill="#F1D8EA" />
<rect x="40" y="41" width="1" height="2" fill="#F1D8EA" />
<rect x="52" y="41" width="1" height="5" fill="#F1D8EA" />
<rect x="53" y="41" width="1" height="5" fill="#663931" />
<rect x="54" y="41" width="1" height="20" fill="#FAEF91" />
<rect x="21" y="42" width="1" height="1" fill="#FFFFFF" />
<rect x="22" y="42" width="1" height="2" fill="#F1D8EA" />
<rect x="24" y="42" width="1" height="1" fill="#663931" />
<rect x="25" y="42" width="1" height="19" fill="#FAEF91" />
<rect x="38" y="42" width="1" height="19" fill="#FAEF91" />
<rect x="39" y="42" width="1" height="1" fill="#663931" />
<rect x="41" y="42" width="1" height="2" fill="#F1D8EA" />
<rect x="21" y="43" width="1" height="2" fill="#F1D8EA" />
<rect x="23" y="43" width="1" height="1" fill="#663931" />
<rect x="24" y="43" width="1" height="18" fill="#FAEF91" />
<rect x="39" y="43" width="1" height="18" fill="#FAEF91" />
<rect x="40" y="43" width="1" height="1" fill="#663931" />
<rect x="42" y="43" width="1" height="2" fill="#F1D8EA" />
<rect x="12" y="44" width="1" height="4" fill="#F1D8EA" />
<rect x="19" y="44" width="2" height="2" fill="#F1D8EA" />
<rect x="22" y="44" width="1" height="1" fill="#663931" />
<rect x="23" y="44" width="1" height="17" fill="#FAEF91" />
<rect x="40" y="44" width="1" height="17" fill="#FAEF91" />
<rect x="41" y="44" width="1" height="1" fill="#663931" />
<rect x="43" y="44" width="2" height="2" fill="#F1D8EA" />
<rect x="45" y="44" width="1" height="1" fill="#FFFFFF" />
<rect x="51" y="44" width="1" height="4" fill="#F1D8EA" />
<rect x="17" y="45" width="2" height="2" fill="#F1D8EA" />
<rect x="21" y="45" width="1" height="1" fill="#663931" />
<rect x="22" y="45" width="1" height="16" fill="#FAEF91" />
<rect x="41" y="45" width="1" height="16" fill="#FAEF91" />
<rect x="42" y="45" width="1" height="1" fill="#663931" />
<rect x="45" y="45" width="2" height="2" fill="#F1D8EA" />
<rect x="10" y="46" width="1" height="15" fill="#FAEF91" />
<rect x="11" y="46" width="1" height="2" fill="#663931" />
<rect x="13" y="46" width="4" height="2" fill="#F1D8EA" />
<rect x="19" y="46" width="2" height="1" fill="#663931" />
<rect x="21" y="46" width="1" height="15" fill="#FAEF91" />
<rect x="42" y="46" width="1" height="15" fill="#FAEF91" />
<rect x="43" y="46" width="2" height="1" fill="#663931" />
<rect x="47" y="46" width="4" height="2" fill="#F1D8EA" />
<rect x="52" y="46" width="1" height="2" fill="#663931" />
<rect x="53" y="46" width="1" height="15" fill="#FAEF91" />
<rect x="17" y="47" width="2" height="1" fill="#663931" />
<rect x="19" y="47" width="2" height="14" fill="#FAEF91" />
<rect x="43" y="47" width="2" height="14" fill="#FAEF91" />
<rect x="45" y="47" width="2" height="1" fill="#663931" />
<rect x="11" y="48" width="1" height="13" fill="#FAEF91" />
<rect x="12" y="48" width="5" height="1" fill="#663931" />
<rect x="17" y="48" width="2" height="13" fill="#FAEF91" />
<rect x="45" y="48" width="2" height="13" fill="#FAEF91" />
<rect x="47" y="48" width="5" height="1" fill="#663931" />
<rect x="52" y="48" width="1" height="13" fill="#FAEF91" />
<rect x="12" y="49" width="5" height="12" fill="#FAEF91" />
<rect x="47" y="49" width="5" height="12" fill="#FAEF91" />
<rect x="3" y="59" width="1" height="5" fill="#F7AC6F" />
<rect x="60" y="59" width="1" height="5" fill="#F7AC6F" />
<rect x="4" y="60" width="1" height="4" fill="#F7AC6F" />
<rect x="59" y="60" width="1" height="4" fill="#F7AC6F" />
<rect x="5" y="61" width="54" height="3" fill="#F7AC6F" />
</svg>