<?xml version="1.0" encoding="UTF-8" ?>
<svg version="1.1" width="64" height="64" xmlns="http://www.w3.org/2000/svg" shape-rendering="crispEdges">
<rect x="2" y="0" width="60" height="3" fill="#F7AC6F" />
<rect x="1" y="1" width="1" height="62" fill="#F7AC6F" />
<rect x="62" y="1" width="1" height="62" fill="#F7AC6F" />
<rect x="0" y="2" width="1" height="60" fill="#F7AC6F" />
<rect x="63" y="2" width="1" height="60" fill="#F7AC6F" />
<rect x="2" y="3" width="3" height="1" fill="#F7AC6F" />
<rect x="5" y="3" width="54" height="1" fill="#FAEF91" />
<rect x="59" y="3" width="3" height="1" fill="#F7AC6F" />
<rect x="2" y="4" width="2" height="1" fill="#F7AC6F" />
<rect x="4" y="4" width="40" height="1" fill="#FAEF91" />
<rect x="44" y="4" width="5" height="1" fill="#5B7770" />
<rect x="49" y="4" width="11" height="1" fill="#FAEF91" />
<rect x="60" y="4" width="2" height="1" fill="#F7AC6F" />
<rect x="2" y="5" width="1" height="59" fill="#F7AC6F" />
<rect x="3" y="5" width="37" height="1" fill="#FAEF91" />
<rect x="40" y="5" width="4" height="1" fill="#5B7770" />
<rect x="44" y="5" width="5" height="2" fill="#F1FCF9" />
<rect x="49" y="5" width="1" height="1" fill="#5B7770" />
<rect x="50" y="5" width="11" height="1" fill="#FAEF91" />
<rect x="61" y="5" width="1" height="59" fill="#F7AC6F" />
<rect x="3" y="6" width="30" height="1" fill="#FAEF91" />
<rect x="33" y="6" width="5" height="1" fill="#5B7770" />
<rect x="38" y="6" width="1" height="1" fill="#FAEF91" />
<rect x="39" y="6" width="1" height="2" fill="#5B7770" />
<rect x="40" y="6" width="4" height="3" fill="#B0BBB8" />
<rect x="49" y="6" width="1" height="2" fill="#B0BBB8" />
<rect x="50" y="6" width="2" height="1" fill="#5B7770" />
<rect x="52" y="6" width="9" height="1" fill="#FAEF91" />
<rect x="3" y="7" width="29" height="1" fill="#FAEF91" />
<rect x="32" y="7" width="1" height="3" fill="#5B7770" />
<rect x="33" y="7" width="5" height="3" fill="#F1FCF9" />
<rect x="38" y="7" width="1" height="1" fill="#5B7770" />
<rect x="44" y="7" width="1" height="1" fill="#D1E9E3" />
<rect x="45" y="7" width="4" height="1" fill="#F1FCF9" />
<rect x="50" y="7" width="2" height="1" fill="#B0BBB8" />
<rect x="52" y="7" width="1" height="1" fill="#5B7770" />
<rect x="53" y="7" width="8" height="1" fill="#FAEF91" />
<rect x="3" y="8" width="22" height="1" fill="#FAEF91" />
<rect x="25" y="8" width="1" height="1" fill="#690D0D" />
<rect x="26" y="8" width="6" height="1" fill="#FAEF91" />
<rect x="38" y="8" width="1" height="1" fill="#F1FCF9" />
<rect x="39" y="8" width="1" height="1" fill="#B0BBB8" />
<rect x="44" y="8" width="5" height="1" fill="#B0BBB8" />
<rect x="49" y="8" width="4" height="4" fill="#F1FCF9" />
<rect x="53" y="8" width="3" height="1" fill="#5B7770" />
<rect x="56" y="8" width="5" height="1" fill="#FAEF91" />
<rect x="3" y="9" width="21" height="1" fill="#FAEF91" />
<rect x="24" y="9" width="1" height="1" fill="#690D0D" />
<rect x="25" y="9" width="1" height="3" fill="#C91818" />
<rect x="26" y="9" width="2" height="1" fill="#690D0D" />
<rect x="28" y="9" width="4" height="1" fill="#FAEF91" />
<rect x="38" y="9" width="9" height="1" fill="#690D0D" />
<rect x="47" y="9" width="1" height="11" fill="#B0BBB8" />
<rect x="48" y="9" width="1" height="6" fill="#D1E9E3" />
<rect x="53" y="9" width="3" height="3" fill="#F1FCF9" />
<rect x="56" y="9" width="1" height="8" fill="#5B7770" />
<rect x="57" y="9" width="4" height="50" fill="#FAEF91" />
<rect x="3" y="10" width="20" height="1" fill="#FAEF91" />
<rect x="23" y="10" width="1" height="1" fill="#690D0D" />
<rect x="24" y="10" width="1" height="2" fill="#C91818" />
<rect x="26" y="10" width="2" height="2" fill="#C91818" />
<rect x="28" y="10" width="1" height="1" fill="#690D0D" />
<rect x="29" y="10" width="4" height="1" fill="#FAEF91" />
<rect x="33" y="10" width="1" height="3" fill="#5B7770" />
<rect x="34" y="10" width="4" height="1" fill="#F1FCF9" />
<rect x="38" y="10" width="1" height="8" fill="#690D0D" />
<rect x="39" y="10" width="3" height="2" fill="#85390E" />
<rect x="42" y="10" width="1" height="3" fill="#690D0D" />
<rect x="43" y="10" width="3" height="2" fill="#85390E" />
<rect x="46" y="10" width="1" height="13" fill="#690D0D" />
<rect x="3" y="11" width="19" height="1" fill="#FAEF91" />
<rect x="22" y="11" width="1" height="1" fill="#690D0D" />
<rect x="23" y="11" width="1" height="1" fill="#C91818" />
<rect x="28" y="11" width="1" height="4" fill="#C91818" />
<rect x="29" y="11" width="2" height="1" fill="#690D0D" />
<rect x="31" y="11" width="2" height="1" fill="#FAEF91" />
<rect x="34" y="11" width="4" height="1" fill="#D1E9E3" />
<rect x="3" y="12" width="18" height="1" fill="#FAEF91" />
<rect x="21" y="12" width="1" height="1" fill="#690D0D" />
<rect x="22" y="12" width="1" height="2" fill="#C91818" />
<rect x="23" y="12" width="1" height="3" fill="#A80F0F" />
<rect x="24" y="12" width="4" height="1" fill="#EF3535" />
<rect x="29" y="12" width="2" height="3" fill="#C91818" />
<rect x="31" y="12" width="1" height="1" fill="#690D0D" />
<rect x="32" y="12" width="1" height="1" fill="#FAEF91" />
<rect x="34" y="12" width="1" height="1" fill="#B0BBB8" />
<rect x="35" y="12" width="2" height="1" fill="#D1E9E3" />
<rect x="37" y="12" width="1" height="2" fill="#B0BBB8" />
<rect x="39" y="12" width="3" height="1" fill="#690D0D" />
<rect x="43" y="12" width="3" height="1" fill="#690D0D" />
<rect x="49" y="12" width="7" height="1" fill="#D1E9E3" />
<rect x="3" y="13" width="17" height="2" fill="#FAEF91" />
<rect x="20" y="13" width="1" height="2" fill="#690D0D" />
<rect x="21" y="13" width="1" height="1" fill="#C91818" />
<rect x="24" y="13" width="3" height="1" fill="#C91818" />
<rect x="27" y="13" width="1" height="1" fill="#EF3535" />
<rect x="31" y="13" width="1" height="2" fill="#C91818" />
<rect x="32" y="13" width="2" height="1" fill="#690D0D" />
<rect x="34" y="13" width="2" height="1" fill="#5B7770" />
<rect x="36" y="13" width="1" height="1" fill="#B0BBB8" />
<rect x="39" y="13" width="1" height="2" fill="#85390E" />
<rect x="40" y="13" width="1" height="3" fill="#690D0D" />
<rect x="41" y="13" width="3" height="2" fill="#85390E" />
<rect x="44" y="13" width="1" height="3" fill="#690D0D" />
<rect x="45" y="13" width="1" height="2" fill="#85390E" />
<rect x="49" y="13" width="5" height="4" fill="#F1FCF9" />
<rect x="54" y="13" width="2" height="1" fill="#D1E9E3" />
<rect x="21" y="14" width="2" height="1" fill="#A80F0F" />
<rect x="24" y="14" width="4" height="1" fill="#A80F0F" />
<rect x="32" y="14" width="2" height="1" fill="#C91818" />
<rect x="34" y="14" width="1" height="1" fill="#690D0D" />
<rect x="35" y="14" width="1" height="1" fill="#FAEF91" />
<rect x="36" y="14" width="2" height="1" fill="#5B7770" />
<rect x="54" y="14" width="1" height="2" fill="#F1FCF9" />
<rect x="55" y="14" width="1" height="1" fill="#D1E9E3" />
<rect x="3" y="15" width="16" height="1" fill="#FAEF91" />
<rect x="19" y="15" width="1" height="1" fill="#690D0D" />
<rect x="20" y="15" width="1" height="4" fill="#A80F0F" />
<rect x="21" y="15" width="1" height="3" fill="#C91818" />
<rect x="22" y="15" width="4" height="1" fill="#EF3535" />
<rect x="26" y="15" width="2" height="1" fill="#C91818" />
<rect x="28" y="15" width="5" height="1" fill="#EF3535" />
<rect x="33" y="15" width="2" height="1" fill="#C91818" />
<rect x="35" y="15" width="2" height="1" fill="#690D0D" />
<rect x="37" y="15" width="1" height="1" fill="#FAEF91" />
<rect x="39" y="15" width="1" height="1" fill="#690D0D" />
<rect x="41" y="15" width="3" height="1" fill="#690D0D" />
<rect x="45" y="15" width="1" height="1" fill="#690D0D" />
<rect x="48" y="15" width="1" height="5" fill="#B0BBB8" />
<rect x="55" y="15" width="1" height="2" fill="#B0BBB8" />
<rect x="3" y="16" width="15" height="1" fill="#FAEF91" />
<rect x="18" y="16" width="1" height="1" fill="#690D0D" />
<rect x="19" y="16" width="1" height="2" fill="#C91818" />
<rect x="22" y="16" width="2" height="2" fill="#C91818" />
<rect x="24" y="16" width="2" height="1" fill="#EF3535" />
<rect x="26" y="16" width="1" height="3" fill="#A80F0F" />
<rect x="27" y="16" width="4" height="2" fill="#C91818" />
<rect x="31" y="16" width="2" height="1" fill="#EF3535" />
<rect x="33" y="16" width="1" height="3" fill="#C91818" />
<rect x="34" y="16" width="3" height="1" fill="#EF3535" />
<rect x="37" y="16" width="1" height="1" fill="#690D0D" />
<rect x="39" y="16" width="3" height="1" fill="#85390E" />
<rect x="42" y="16" width="1" height="4" fill="#690D0D" />
<rect x="43" y="16" width="3" height="2" fill="#85390E" />
<rect x="54" y="16" width="1" height="1" fill="#B0BBB8" />
<rect x="3" y="17" width="14" height="1" fill="#FAEF91" />
<rect x="17" y="17" width="1" height="1" fill="#690D0D" />
<rect x="18" y="17" width="1" height="1" fill="#C91818" />
<rect x="24" y="17" width="1" height="1" fill="#C91818" />
<rect x="25" y="17" width="1" height="1" fill="#EF3535" />
<rect x="31" y="17" width="1" height="2" fill="#C91818" />
<rect x="32" y="17" width="1" height="1" fill="#EF3535" />
<rect x="34" y="17" width="3" height="2" fill="#C91818" />
<rect x="37" y="17" width="1" height="1" fill="#EF3535" />
<rect x="39" y="17" width="1" height="1" fill="#690D0D" />
<rect x="40" y="17" width="2" height="1" fill="#85390E" />
<rect x="49" y="17" width="1" height="1" fill="#B0BBB8" />
<rect x="50" y="17" width="2" height="1" fill="#F1FCF9" />
<rect x="52" y="17" width="1" height="1" fill="#B0BBB8" />
<rect x="53" y="17" width="3" height="1" fill="#5B7770" />
<rect x="56" y="17" width="1" height="30" fill="#FAEF91" />
<rect x="3" y="18" width="13" height="1" fill="#FAEF91" />
<rect x="16" y="18" width="1" height="1" fill="#690D0D" />
<rect x="17" y="18" width="3" height="1" fill="#A80F0F" />
<rect x="21" y="18" width="5" height="1" fill="#A80F0F" />
<rect x="27" y="18" width="4" height="1" fill="#A80F0F" />
<rect x="32" y="18" width="1" height="1" fill="#C91818" />
<rect x="37" y="18" width="3" height="2" fill="#C91818" />
<rect x="40" y="18" width="2" height="1" fill="#690D0D" />
<rect x="43" y="18" width="1" height="3" fill="#690D0D" />
<rect x="44" y="18" width="2" height="1" fill="#85390E" />
<rect x="49" y="18" width="4" height="1" fill="#5B7770" />
<rect x="53" y="18" width="3" height="8" fill="#FAEF91" />
<rect x="3" y="19" width="12" height="1" fill="#FAEF91" />
<rect x="15" y="19" width="1" height="1" fill="#690D0D" />
<rect x="16" y="19" width="1" height="3" fill="#C91818" />
<rect x="17" y="19" width="1" height="4" fill="#A80F0F" />
<rect x="18" y="19" width="2" height="3" fill="#C91818" />
<rect x="20" y="19" width="4" height="1" fill="#EF3535" />
<rect x="24" y="19" width="1" height="3" fill="#C91818" />
<rect x="25" y="19" width="4" height="1" fill="#EF3535" />
<rect x="29" y="19" width="2" height="1" fill="#C91818" />
<rect x="31" y="19" width="4" height="1" fill="#EF3535" />
<rect x="35" y="19" width="2" height="1" fill="#C91818" />
<rect x="40" y="19" width="2" height="1" fill="#C91818" />
<rect x="44" y="19" width="2" height="1" fill="#690D0D" />
<rect x="49" y="19" width="1" height="1" fill="#5B7770" />
<rect x="50" y="19" width="3" height="5" fill="#FAEF91" />
<rect x="3" y="20" width="11" height="1" fill="#FAEF91" />
<rect x="14" y="20" width="1" height="1" fill="#690D0D" />
<rect x="15" y="20" width="1" height="2" fill="#C91818" />
<rect x="20" y="20" width="3" height="2" fill="#C91818" />
<rect x="23" y="20" width="1" height="2" fill="#EF3535" />
<rect x="25" y="20" width="2" height="2" fill="#C91818" />
<rect x="27" y="20" width="2" height="1" fill="#EF3535" />
<rect x="29" y="20" width="1" height="3" fill="#A80F0F" />
<rect x="30" y="20" width="4" height="2" fill="#C91818" />
<rect x="34" y="20" width="2" height="1" fill="#EF3535" />
<rect x="36" y="20" width="1" height="3" fill="#C91818" />
<rect x="37" y="20" width="6" height="1" fill="#EF3535" />
<rect x="44" y="20" width="1" height="1" fill="#690D0D" />
<rect x="45" y="20" width="1" height="1" fill="#85390E" />
<rect x="47" y="20" width="2" height="1" fill="#5B7770" />
<rect x="49" y="20" width="1" height="4" fill="#FAEF91" />
<rect x="3" y="21" width="10" height="1" fill="#FAEF91" />
<rect x="13" y="21" width="1" height="1" fill="#690D0D" />
<rect x="14" y="21" width="1" height="1" fill="#C91818" />
<rect x="27" y="21" width="1" height="1" fill="#C91818" />
<rect x="28" y="21" width="1" height="1" fill="#EF3535" />
<rect x="34" y="21" width="1" height="3" fill="#C91818" />
<rect x="35" y="21" width="1" height="1" fill="#EF3535" />
<rect x="37" y="21" width="5" height="2" fill="#C91818" />
<rect x="42" y="21" width="2" height="1" fill="#EF3535" />
<rect x="44" y="21" width="1" height="2" fill="#C91818" />
<rect x="45" y="21" width="1" height="1" fill="#690D0D" />
<rect x="47" y="21" width="2" height="1" fill="#FAEF91" />
<rect x="3" y="22" width="9" height="2" fill="#FAEF91" />
<rect x="12" y="22" width="1" height="2" fill="#690D0D" />
<rect x="13" y="22" width="4" height="1" fill="#A80F0F" />
<rect x="18" y="22" width="11" height="1" fill="#A80F0F" />
<rect x="30" y="22" width="4" height="1" fill="#A80F0F" />
<rect x="35" y="22" width="1" height="5" fill="#C91818" />
<rect x="42" y="22" width="1" height="1" fill="#C91818" />
<rect x="43" y="22" width="1" height="2" fill="#EF3535" />
<rect x="45" y="22" width="1" height="1" fill="#C91818" />
<rect x="47" y="22" width="1" height="1" fill="#690D0D" />
<rect x="48" y="22" width="1" height="1" fill="#FAEF91" />
<rect x="13" y="23" width="1" height="3" fill="#C91818" />
<rect x="14" y="23" width="1" height="4" fill="#A80F0F" />
<rect x="15" y="23" width="5" height="3" fill="#C91818" />
<rect x="20" y="23" width="1" height="4" fill="#A80F0F" />
<rect x="21" y="23" width="1" height="3" fill="#C91818" />
<rect x="22" y="23" width="4" height="1" fill="#EF3535" />
<rect x="26" y="23" width="1" height="4" fill="#A80F0F" />
<rect x="27" y="23" width="1" height="3" fill="#C91818" />
<rect x="28" y="23" width="6" height="1" fill="#EF3535" />
<rect x="36" y="23" width="4" height="1" fill="#EF3535" />
<rect x="40" y="23" width="1" height="4" fill="#C91818" />
<rect x="41" y="23" width="2" height="1" fill="#EF3535" />
<rect x="44" y="23" width="2" height="1" fill="#EF3535" />
<rect x="46" y="23" width="2" height="4" fill="#C91818" />
<rect x="48" y="23" width="1" height="1" fill="#690D0D" />
<rect x="3" y="24" width="8" height="1" fill="#FAEF91" />
<rect x="11" y="24" width="1" height="1" fill="#690D0D" />
<rect x="12" y="24" width="1" height="2" fill="#C91818" />
<rect x="22" y="24" width="2" height="2" fill="#C91818" />
<rect x="24" y="24" width="2" height="1" fill="#EF3535" />
<rect x="28" y="24" width="5" height="2" fill="#C91818" />
<rect x="33" y="24" width="2" height="1" fill="#EF3535" />
<rect x="36" y="24" width="3" height="3" fill="#C91818" />
<rect x="39" y="24" width="1" height="2" fill="#EF3535" />
<rect x="41" y="24" width="4" height="3" fill="#C91818" />
<rect x="45" y="24" width="1" height="2" fill="#EF3535" />
<rect x="48" y="24" width="1" height="5" fill="#C91818" />
<rect x="49" y="24" width="2" height="1" fill="#690D0D" />
<rect x="51" y="24" width="2" height="1" fill="#FAEF91" />
<rect x="3" y="25" width="7" height="1" fill="#FAEF91" />
<rect x="10" y="25" width="1" height="1" fill="#690D0D" />
<rect x="11" y="25" width="1" height="1" fill="#C91818" />
<rect x="24" y="25" width="1" height="1" fill="#C91818" />
<rect x="25" y="25" width="1" height="1" fill="#EF3535" />
<rect x="33" y="25" width="1" height="1" fill="#C91818" />
<rect x="34" y="25" width="1" height="1" fill="#EF3535" />
<rect x="49" y="25" width="2" height="2" fill="#C91818" />
<rect x="51" y="25" width="1" height="1" fill="#690D0D" />
<rect x="52" y="25" width="1" height="1" fill="#FAEF91" />
<rect x="3" y="26" width="6" height="1" fill="#FAEF91" />
<rect x="9" y="26" width="1" height="1" fill="#690D0D" />
<rect x="10" y="26" width="4" height="1" fill="#A80F0F" />
<rect x="15" y="26" width="5" height="1" fill="#A80F0F" />
<rect x="21" y="26" width="5" height="1" fill="#A80F0F" />
<rect x="27" y="26" width="8" height="1" fill="#A80F0F" />
<rect x="39" y="26" width="1" height="1" fill="#C91818" />
<rect x="45" y="26" width="1" height="1" fill="#C91818" />
<rect x="51" y="26" width="1" height="1" fill="#C91818" />
<rect x="52" y="26" width="2" height="1" fill="#690D0D" />
<rect x="54" y="26" width="2" height="1" fill="#FAEF91" />
<rect x="3" y="27" width="5" height="20" fill="#FAEF91" />
<rect x="8" y="27" width="1" height="2" fill="#690D0D" />
<rect x="9" y="27" width="2" height="2" fill="#C91818" />
<rect x="11" y="27" width="1" height="2" fill="#A80F0F" />
<rect x="12" y="27" width="5" height="2" fill="#C91818" />
<rect x="17" y="27" width="1" height="2" fill="#A80F0F" />
<rect x="18" y="27" width="5" height="2" fill="#C91818" />
<rect x="23" y="27" width="1" height="2" fill="#A80F0F" />
<rect x="24" y="27" width="5" height="2" fill="#C91818" />
<rect x="29" y="27" width="1" height="2" fill="#A80F0F" />
<rect x="30" y="27" width="1" height="2" fill="#C91818" />
<rect x="31" y="27" width="5" height="1" fill="#EF3535" />
<rect x="36" y="27" width="1" height="2" fill="#C91818" />
<rect x="37" y="27" width="5" height="1" fill="#EF3535" />
<rect x="42" y="27" width="1" height="2" fill="#C91818" />
<rect x="43" y="27" width="5" height="1" fill="#EF3535" />
<rect x="49" y="27" width="4" height="1" fill="#EF3535" />
<rect x="53" y="27" width="1" height="2" fill="#C91818" />
<rect x="54" y="27" width="1" height="1" fill="#690D0D" />
<rect x="55" y="27" width="1" height="1" fill="#FAEF91" />
<rect x="31" y="28" width="4" height="1" fill="#C91818" />
<rect x="35" y="28" width="1" height="1" fill="#EF3535" />
<rect x="37" y="28" width="4" height="1" fill="#C91818" />
<rect x="41" y="28" width="1" height="1" fill="#EF3535" />
<rect x="43" y="28" width="4" height="1" fill="#C91818" />
<rect x="47" y="28" width="1" height="1" fill="#EF3535" />
<rect x="49" y="28" width="3" height="1" fill="#C91818" />
<rect x="52" y="28" width="1" height="1" fill="#EF3535" />
<rect x="54" y="28" width="1" height="1" fill="#C91818" />
<rect x="55" y="28" width="1" height="1" fill="#690D0D" />
<rect x="8" y="29" width="1" height="17" fill="#FAEF91" />
<rect x="9" y="29" width="46" height="1" fill="#690D0D" />
<rect x="55" y="29" width="1" height="17" fill="#FAEF91" />
<rect x="9" y="30" width="4" height="15" fill="#FAEF91" />
<rect x="13" y="30" width="1" height="16" fill="#663931" />
<rect x="14" y="30" width="36" height="1" fill="#E7DBAC" />
<rect x="50" y="30" width="1" height="15" fill="#663931" />
<rect x="51" y="30" width="4" height="15" fill="#FAEF91" />
<rect x="14" y="31" width="36" height="3" fill="#FFF9E1" />
<rect x="14" y="34" width="5" height="5" fill="#FFF9E1" />
<rect x="19" y="34" width="12" height="1" fill="#663931" />
<rect x="31" y="34" width="19" height="3" fill="#FFF9E1" />
<rect x="19" y="35" width="1" height="18" fill="#663931" />
<rect x="20" y="35" width="10" height="3" fill="#D45555" />
<rect x="30" y="35" width="1" height="18" fill="#663931" />
<rect x="31" y="37" width="3" height="1" fill="#FFF9E1" />
<rect x="34" y="37" width="13" height="1" fill="#663931" />
<rect x="47" y="37" width="3" height="9" fill="#FFF9E1" />
<rect x="20" y="38" width="1" height="14" fill="#D45555" />
<rect x="21" y="38" width="1" height="5" fill="#C13131" />
<rect x="22" y="38" width="2" height="1" fill="#E76464" />
<rect x="24" y="38" width="1" height="14" fill="#D45555" />
<rect x="25" y="38" width="1" height="5" fill="#C13131" />
<rect x="26" y="38" width="3" height="1" fill="#E76464" />
<rect x="29" y="38" width="1" height="14" fill="#D45555" />
<rect x="31" y="38" width="2" height="14" fill="#FFF9E1" />
<rect x="33" y="38" width="1" height="10" fill="#E7DBAC" />
<rect x="34" y="38" width="1" height="9" fill="#663931" />
<rect x="35" y="38" width="1" height="1" fill="#CAE9FF" />
<rect x="36" y="38" width="2" height="1" fill="#ABDDFF" />
<rect x="38" y="38" width="2" height="1" fill="#77B8E4" />
<rect x="40" y="38" width="1" height="9" fill="#663931" />
<rect x="41" y="38" width="1" height="1" fill="#CAE9FF" />
<rect x="42" y="38" width="2" height="1" fill="#ABDDFF" />
<rect x="44" y="38" width="2" height="1" fill="#77B8E4" />
<rect x="46" y="38" width="1" height="8" fill="#663931" />
<rect x="14" y="39" width="4" height="7" fill="#FFF9E1" />
<rect x="18" y="39" width="1" height="9" fill="#E7DBAC" />
<rect x="22" y="39" width="1" height="2" fill="#D45555" />
<rect x="23" y="39" width="1" height="1" fill="#E76464" />
<rect x="26" y="39" width="2" height="2" fill="#D45555" />
<rect x="28" y="39" width="1" height="1" fill="#E76464" />
<rect x="35" y="39" width="1" height="1" fill="#ABDDFF" />
<rect x="36" y="39" width="1" height="1" fill="#CAE9FF" />
<rect x="37" y="39" width="2" height="1" fill="#ABDDFF" />
<rect x="39" y="39" width="1" height="1" fill="#77B8E4" />
<rect x="41" y="39" width="1" height="1" fill="#ABDDFF" />
<rect x="42" y="39" width="2" height="1" fill="#CAE9FF" />
<rect x="44" y="39" width="1" height="1" fill="#ABDDFF" />
<rect x="45" y="39" width="1" height="1" fill="#77B8E4" />
<rect x="23" y="40" width="1" height="1" fill="#D45555" />
<rect x="28" y="40" width="1" height="3" fill="#D45555" />
<rect x="35" y="40" width="1" height="1" fill="#77B8E4" />
<rect x="36" y="40" width="1" height="1" fill="#ABDDFF" />
<rect x="37" y="40" width="2" height="1" fill="#CAE9FF" />
<rect x="39" y="40" width="1" height="1" fill="#ABDDFF" />
<rect x="41" y="40" width="1" height="2" fill="#77B8E4" />
<rect x="42" y="40" width="2" height="1" fill="#ABDDFF" />
<rect x="44" y="40" width="2" height="1" fill="#CAE9FF" />
<rect x="22" y="41" width="2" height="2" fill="#C13131" />
<rect x="26" y="41" width="2" height="2" fill="#C13131" />
<rect x="35" y="41" width="3" height="1" fill="#663931" />
<rect x="38" y="41" width="1" height="1" fill="#ABDDFF" />
<rect x="39" y="41" width="1" height="1" fill="#CAE9FF" />
<rect x="42" y="41" width="1" height="1" fill="#77B8E4" />
<rect x="43" y="41" width="3" height="1" fill="#663931" />
<rect x="35" y="42" width="1" height="1" fill="#CAE9FF" />
<rect x="36" y="42" width="1" height="1" fill="#ABDDFF" />
<rect x="37" y="42" width="3" height="1" fill="#663931" />
<rect x="41" y="42" width="3" height="1" fill="#663931" />
<rect x="44" y="42" width="2" height="1" fill="#77B8E4" />
<rect x="21" y="43" width="3" height="4" fill="#D45555" />
<rect x="25" y="43" width="2" height="4" fill="#D45555" />
<rect x="27" y="43" width="1" height="2" fill="#FAB747" />
<rect x="28" y="43" width="1" height="1" fill="#FFEE5B" />
<rect x="35" y="43" width="1" height="1" fill="#ABDDFF" />
<rect x="36" y="43" width="1" height="1" fill="#CAE9FF" />
<rect x="37" y="43" width="3" height="1" fill="#ABDDFF" />
<rect x="41" y="43" width="1" height="1" fill="#ABDDFF" />
<rect x="42" y="43" width="1" height="1" fill="#CAE9FF" />
<rect x="43" y="43" width="2" height="1" fill="#ABDDFF" />
<rect x="45" y="43" width="1" height="1" fill="#77B8E4" />
<rect x="28" y="44" width="1" height="1" fill="#FAB747" />
<rect x="35" y="44" width="1" height="2" fill="#77B8E4" />
<rect x="36" y="44" width="1" height="1" fill="#ABDDFF" />
<rect x="37" y="44" width="2" height="1" fill="#CAE9FF" />
<rect x="39" y="44" width="1" height="1" fill="#ABDDFF" />
<rect x="41" y="44" width="1" height="2" fill="#77B8E4" />
<rect x="42" y="44" width="1" height="1" fill="#ABDDFF" />
<rect x="43" y="44" width="2" height="1" fill="#CAE9FF" />
<rect x="45" y="44" width="1" height="1" fill="#ABDDFF" />
<rect x="9" y="45" width="4" height="1" fill="#323C39" />
<rect x="27" y="45" width="2" height="2" fill="#D45555" />
<rect x="36" y="45" width="1" height="1" fill="#77B8E4" />
<rect x="37" y="45" width="2" height="1" fill="#ABDDFF" />
<rect x="39" y="45" width="1" height="1" fill="#CAE9FF" />
<rect x="42" y="45" width="1" height="1" fill="#77B8E4" />
<rect x="43" y="45" width="2" height="1" fill="#ABDDFF" />
<rect x="45" y="45" width="1" height="1" fill="#CAE9FF" />
<rect x="50" y="45" width="5" height="1" fill="#323C39" />
<rect x="8" y="46" width="1" height="1" fill="#323C39" />
<rect x="9" y="46" width="4" height="1" fill="#6ABE30" />
<rect x="13" y="46" width="4" height="1" fill="#323C39" />
<rect x="17" y="46" width="1" height="1" fill="#FFF9E1" />
<rect x="35" y="46" width="5" height="1" fill="#663931" />
<rect x="41" y="46" width="1" height="1" fill="#663931" />
<rect x="42" y="46" width="5" height="1" fill="#323C39" />
<rect x="47" y="46" width="2" height="1" fill="#FFF9E1" />
<rect x="49" y="46" width="1" height="1" fill="#323C39" />
<rect x="50" y="46" width="1" height="3" fill="#6ABE30" />
<rect x="51" y="46" width="2" height="2" fill="#9CD971" />
<rect x="53" y="46" width="2" height="1" fill="#6ABE30" />
<rect x="55" y="46" width="1" height="1" fill="#323C39" />
<rect x="3" y="47" width="4" height="1" fill="#FAEF91" />
<rect x="7" y="47" width="1" height="1" fill="#323C39" />
<rect x="8" y="47" width="2" height="2" fill="#6ABE30" />
<rect x="10" y="47" width="3" height="2" fill="#9CD971" />
<rect x="13" y="47" width="4" height="1" fill="#6ABE30" />
<rect x="17" y="47" width="1" height="1" fill="#323C39" />
<rect x="21" y="47" width="1" height="5" fill="#C13131" />
<rect x="22" y="47" width="2" height="1" fill="#E76464" />
<rect x="25" y="47" width="1" height="5" fill="#C13131" />
<rect x="26" y="47" width="3" height="1" fill="#E76464" />
<rect x="34" y="47" width="7" height="1" fill="#E7DBAC" />
<rect x="41" y="47" width="1" height="1" fill="#323C39" />
<rect x="42" y="47" width="3" height="1" fill="#6ABE30" />
<rect x="45" y="47" width="2" height="3" fill="#9CD971" />
<rect x="47" y="47" width="2" height="1" fill="#323C39" />
<rect x="49" y="47" width="1" height="2" fill="#6ABE30" />
<rect x="53" y="47" width="1" height="2" fill="#6ABE30" />
<rect x="54" y="47" width="1" height="2" fill="#9CD971" />
<rect x="55" y="47" width="1" height="4" fill="#6ABE30" />
<rect x="56" y="47" width="1" height="6" fill="#323C39" />
<rect x="3" y="48" width="3" height="11" fill="#FAEF91" />
<rect x="6" y="48" width="1" height="5" fill="#323C39" />
<rect x="7" y="48" width="1" height="1" fill="#6ABE30" />
<rect x="13" y="48" width="1" height="4" fill="#6ABE30" />
<rect x="14" y="48" width="2" height="3" fill="#9CD971" />
<rect x="16" y="48" width="2" height="2" fill="#6ABE30" />
<rect x="18" y="48" width="1" height="5" fill="#323C39" />
<rect x="22" y="48" width="1" height="3" fill="#D45555" />
<rect x="23" y="48" width="1" height="1" fill="#E76464" />
<rect x="26" y="48" width="2" height="3" fill="#D45555" />
<rect x="28" y="48" width="1" height="1" fill="#E76464" />
<rect x="33" y="48" width="7" height="4" fill="#FFF9E1" />
<rect x="40" y="48" width="1" height="5" fill="#323C39" />
<rect x="41" y="48" width="1" height="1" fill="#6ABE30" />
<rect x="42" y="48" width="2" height="1" fill="#9CD971" />
<rect x="44" y="48" width="1" height="4" fill="#6ABE30" />
<rect x="47" y="48" width="2" height="1" fill="#6ABE30" />
<rect x="51" y="48" width="1" height="1" fill="#9CD971" />
<rect x="52" y="48" width="1" height="1" fill="#6ABE30" />
<rect x="7" y="49" width="2" height="2" fill="#549D21" />
<rect x="9" y="49" width="2" height="1" fill="#6ABE30" />
<rect x="11" y="49" width="2" height="1" fill="#9CD971" />
<rect x="23" y="49" width="1" height="2" fill="#D45555" />
<rect x="28" y="49" width="1" height="2" fill="#D45555" />
<rect x="41" y="49" width="1" height="2" fill="#9CD971" />
<rect x="42" y="49" width="1" height="1" fill="#6ABE30" />
<rect x="43" y="49" width="1" height="2" fill="#9CD971" />
<rect x="47" y="49" width="1" height="1" fill="#4B692F" />
<rect x="48" y="49" width="2" height="2" fill="#9CD971" />
<rect x="50" y="49" width="1" height="1" fill="#4B692F" />
<rect x="51" y="49" width="2" height="2" fill="#549D21" />
<rect x="53" y="49" width="1" height="1" fill="#4B692F" />
<rect x="54" y="49" width="1" height="2" fill="#549D21" />
<rect x="9" y="50" width="1" height="2" fill="#549D21" />
<rect x="10" y="50" width="3" height="1" fill="#6ABE30" />
<rect x="16" y="50" width="1" height="2" fill="#9CD971" />
<rect x="17" y="50" width="1" height="3" fill="#6ABE30" />
<rect x="42" y="50" width="1" height="1" fill="#9CD971" />
<rect x="45" y="50" width="3" height="2" fill="#549D21" />
<rect x="50" y="50" width="1" height="1" fill="#6ABE30" />
<rect x="53" y="50" width="1" height="2" fill="#6ABE30" />
<rect x="7" y="51" width="1" height="1" fill="#4B692F" />
<rect x="8" y="51" width="1" height="1" fill="#549D21" />
<rect x="10" y="51" width="1" height="2" fill="#6ABE30" />
<rect x="11" y="51" width="2" height="1" fill="#549D21" />
<rect x="14" y="51" width="2" height="1" fill="#6ABE30" />
<rect x="22" y="51" width="2" height="1" fill="#C13131" />
<rect x="26" y="51" width="3" height="1" fill="#C13131" />
<rect x="41" y="51" width="1" height="2" fill="#6ABE30" />
<rect x="42" y="51" width="2" height="2" fill="#549D21" />
<rect x="48" y="51" width="1" height="1" fill="#549D21" />
<rect x="49" y="51" width="1" height="1" fill="#6ABE30" />
<rect x="50" y="51" width="2" height="2" fill="#3A6F16" />
<rect x="52" y="51" width="1" height="1" fill="#549D21" />
<rect x="54" y="51" width="2" height="2" fill="#3A6F16" />
<rect x="7" y="52" width="3" height="1" fill="#3A6F16" />
<rect x="11" y="52" width="1" height="2" fill="#3A6F16" />
<rect x="12" y="52" width="1" height="1" fill="#549D21" />
<rect x="13" y="52" width="1" height="1" fill="#4B692F" />
<rect x="14" y="52" width="3" height="1" fill="#549D21" />
<rect x="20" y="52" width="10" height="1" fill="#663931" />
<rect x="31" y="52" width="9" height="1" fill="#663931" />
<rect x="44" y="52" width="1" height="1" fill="#549D21" />
<rect x="45" y="52" width="1" height="2" fill="#4B692F" />
<rect x="46" y="52" width="2" height="1" fill="#549D21" />
<rect x="48" y="52" width="2" height="1" fill="#4B692F" />
<rect x="52" y="52" width="1" height="2" fill="#4B692F" />
<rect x="53" y="52" width="1" height="2" fill="#3A6F16" />
<rect x="6" y="53" width="1" height="8" fill="#FAEF91" />
<rect x="7" y="53" width="1" height="1" fill="#323C39" />
<rect x="8" y="53" width="3" height="1" fill="#3A6F16" />
<rect x="12" y="53" width="2" height="1" fill="#3A6F16" />
<rect x="14" y="53" width="1" height="1" fill="#6ABE30" />
<rect x="15" y="53" width="1" height="1" fill="#549D21" />
<rect x="16" y="53" width="1" height="1" fill="#6ABE30" />
<rect x="17" y="53" width="1" height="1" fill="#323C39" />
<rect x="18" y="53" width="2" height="1" fill="#FAEF91" />
<rect x="20" y="53" width="4" height="1" fill="#313E3A" />
<rect x="24" y="53" width="2" height="1" fill="#FAEF91" />
<rect x="26" y="53" width="3" height="1" fill="#313E3A" />
<rect x="29" y="53" width="12" height="1" fill="#FAEF91" />
<rect x="41" y="53" width="1" height="1" fill="#323C39" />
<rect x="42" y="53" width="3" height="1" fill="#6ABE30" />
<rect x="46" y="53" width="3" height="1" fill="#3A6F16" />
<rect x="49" y="53" width="3" height="1" fill="#4B692F" />
<rect x="54" y="53" width="1" height="1" fill="#3A6F16" />
<rect x="55" y="53" width="1" height="1" fill="#323C39" />
<rect x="56" y="53" width="1" height="8" fill="#FAEF91" />
<rect x="7" y="54" width="1" height="7" fill="#FAEF91" />
<rect x="8" y="54" width="9" height="1" fill="#323C39" />
<rect x="17" y="54" width="2" height="7" fill="#FAEF91" />
<rect x="19" y="54" width="1" height="2" fill="#313E3A" />
<rect x="20" y="54" width="2" height="2" fill="#81908B" />
<rect x="22" y="54" width="2" height="1" fill="#B0BBB8" />
<rect x="24" y="54" width="2" height="3" fill="#313E3A" />
<rect x="26" y="54" width="1" height="2" fill="#81908B" />
<rect x="27" y="54" width="2" height="2" fill="#B0BBB8" />
<rect x="29" y="54" width="1" height="1" fill="#313E3A" />
<rect x="30" y="54" width="12" height="1" fill="#FAEF91" />
<rect x="42" y="54" width="13" height="1" fill="#323C39" />
<rect x="55" y="54" width="1" height="7" fill="#FAEF91" />
<rect x="8" y="55" width="9" height="6" fill="#FAEF91" />
<rect x="22" y="55" width="2" height="1" fill="#81908B" />
<rect x="29" y="55" width="1" height="1" fill="#B0BBB8" />
<rect x="30" y="55" width="1" height="2" fill="#313E3A" />
<rect x="31" y="55" width="24" height="6" fill="#FAEF91" />
<rect x="19" y="56" width="1" height="5" fill="#FAEF91" />
<rect x="20" y="56" width="4" height="1" fill="#313E3A" />
<rect x="26" y="56" width="1" height="1" fill="#313E3A" />
<rect x="27" y="56" width="3" height="1" fill="#81908B" />
<rect x="20" y="57" width="1" height="4" fill="#FAEF91" />
<rect x="21" y="57" width="1" height="2" fill="#313E3A" />
<rect x="22" y="57" width="1" height="2" fill="#81908B" />
<rect x="23" y="57" width="4" height="1" fill="#B0BBB8" />
<rect x="27" y="57" width="3" height="1" fill="#313E3A" />
<rect x="30" y="57" width="1" height="4" fill="#FAEF91" />
<rect x="23" y="58" width="3" height="1" fill="#81908B" />
<rect x="26" y="58" width="1" height="1" fill="#313E3A" />
<rect x="27" y="58" width="3" height="3" fill="#FAEF91" />
<rect x="3" y="59" width="1" height="5" fill="#F7AC6F" />
<rect x="4" y="59" width="2" height="1" fill="#FAEF91" />
<rect x="21" y="59" width="1" height="2" fill="#FAEF91" />
<rect x="22" y="59" width="4" height="1" fill="#313E3A" />
<rect x="26" y="59" width="1" height="2" fill="#FAEF91" />
<rect x="57" y="59" width="3" height="1" fill="#FAEF91" />
<rect x="60" y="59" width="1" height="5" fill="#F7AC6F" />
<rect x="4" y="60" width="1" height="4" fill="#F7AC6F" />
<rect x="5" y="60" width="1" height="1" fill="#FAEF91" />
<rect x="22" y="60" width="4" height="1" fill="#FAEF91" />
<rect x="57" y="60" width="2" height="1" fill="#FAEF91" />
<rect x="59" y="60" width="1" height="4" fill="#F7AC6F" />
<rect x="5" y="61" width="54" height="3" fill="#F7AC6F" />
</svg>