<?xml version="1.0" encoding="UTF-8" ?>
<svg version="1.1" width="64" height="64" xmlns="http://www.w3.org/2000/svg" shape-rendering="crispEdges">
<rect x="24" y="13" width="6" height="1" fill="#000000" />
<rect x="21" y="14" width="3" height="1" fill="#000000" />
<rect x="24" y="14" width="6" height="2" fill="#8F563B" />
<rect x="30" y="14" width="2" height="1" fill="#000000" />
<rect x="19" y="15" width="2" height="1" fill="#000000" />
<rect x="21" y="15" width="3" height="3" fill="#8F563B" />
<rect x="30" y="15" width="2" height="2" fill="#8F563B" />
<rect x="32" y="15" width="1" height="1" fill="#000000" />
<rect x="18" y="16" width="1" height="1" fill="#000000" />
<rect x="19" y="16" width="2" height="16" fill="#8F563B" />
<rect x="24" y="16" width="2" height="1" fill="#8F563B" />
<rect x="26" y="16" width="3" height="3" fill="#D9A066" />
<rect x="29" y="16" width="1" height="1" fill="#8F563B" />
<rect x="32" y="16" width="1" height="3" fill="#8F563B" />
<rect x="33" y="16" width="1" height="1" fill="#000000" />
<rect x="17" y="17" width="1" height="1" fill="#000000" />
<rect x="18" y="17" width="1" height="14" fill="#8F563B" />
<rect x="24" y="17" width="2" height="2" fill="#D9A066" />
<rect x="29" y="17" width="2" height="1" fill="#D9A066" />
<rect x="31" y="17" width="1" height="2" fill="#8F563B" />
<rect x="33" y="17" width="1" height="2" fill="#8F563B" />
<rect x="34" y="17" width="1" height="1" fill="#000000" />
<rect x="16" y="18" width="1" height="1" fill="#000000" />
<rect x="17" y="18" width="1" height="12" fill="#8F563B" />
<rect x="21" y="18" width="2" height="16" fill="#8F563B" />
<rect x="23" y="18" width="1" height="1" fill="#D9A066" />
<rect x="29" y="18" width="1" height="1" fill="#D9A066" />
<rect x="30" y="18" width="1" height="20" fill="#8F563B" />
<rect x="34" y="18" width="1" height="19" fill="#8F563B" />
<rect x="35" y="18" width="1" height="1" fill="#000000" />
<rect x="15" y="19" width="1" height="2" fill="#000000" />
<rect x="16" y="19" width="1" height="10" fill="#8F563B" />
<rect x="23" y="19" width="7" height="16" fill="#8F563B" />
<rect x="31" y="19" width="3" height="2" fill="#D9A066" />
<rect x="35" y="19" width="1" height="17" fill="#8F563B" />
<rect x="36" y="19" width="1" height="1" fill="#000000" />
<rect x="36" y="20" width="1" height="15" fill="#8F563B" />
<rect x="37" y="20" width="1" height="1" fill="#000000" />
<rect x="14" y="21" width="1" height="3" fill="#000000" />
<rect x="15" y="21" width="1" height="6" fill="#8F563B" />
<rect x="31" y="21" width="3" height="16" fill="#8F563B" />
<rect x="37" y="21" width="1" height="14" fill="#8F563B" />
<rect x="38" y="21" width="1" height="2" fill="#000000" />
<rect x="38" y="23" width="1" height="12" fill="#8F563B" />
<rect x="39" y="23" width="1" height="1" fill="#000000" />
<rect x="13" y="24" width="1" height="6" fill="#000000" />
<rect x="14" y="24" width="1" height="3" fill="#8F563B" />
<rect x="39" y="24" width="1" height="12" fill="#8F563B" />
<rect x="40" y="24" width="1" height="1" fill="#000000" />
<rect x="40" y="25" width="1" height="9" fill="#8F563B" />
<rect x="41" y="25" width="1" height="9" fill="#000000" />
<rect x="14" y="27" width="2" height="3" fill="#663931" />
<rect x="16" y="29" width="1" height="4" fill="#663931" />
<rect x="14" y="30" width="1" height="2" fill="#000000" />
<rect x="15" y="30" width="1" height="2" fill="#663931" />
<rect x="17" y="30" width="1" height="4" fill="#663931" />
<rect x="18" y="31" width="1" height="4" fill="#663931" />
<rect x="15" y="32" width="1" height="1" fill="#000000" />
<rect x="19" y="32" width="1" height="4" fill="#663931" />
<rect x="20" y="32" width="1" height="1" fill="#8F563B" />
<rect x="16" y="33" width="1" height="1" fill="#000000" />
<rect x="20" y="33" width="1" height="4" fill="#663931" />
<rect x="17" y="34" width="1" height="1" fill="#000000" />
<rect x="21" y="34" width="1" height="4" fill="#663931" />
<rect x="22" y="34" width="1" height="1" fill="#8F563B" />
<rect x="40" y="34" width="1" height="3" fill="#000000" />
<rect x="18" y="35" width="1" height="1" fill="#000000" />
<rect x="22" y="35" width="2" height="3" fill="#663931" />
<rect x="24" y="35" width="6" height="1" fill="#8F563B" />
<rect x="36" y="35" width="3" height="1" fill="#CBC5B9" />
<rect x="19" y="36" width="1" height="1" fill="#000000" />
<rect x="24" y="36" width="1" height="4" fill="#663931" />
<rect x="25" y="36" width="5" height="1" fill="#8F563B" />
<rect x="35" y="36" width="1" height="3" fill="#CBC5B9" />
<rect x="36" y="36" width="4" height="3" fill="#FFFFFF" />
<rect x="20" y="37" width="1" height="1" fill="#000000" />
<rect x="25" y="37" width="3" height="4" fill="#663931" />
<rect x="28" y="37" width="2" height="1" fill="#8F563B" />
<rect x="31" y="37" width="1" height="1" fill="#8F563B" />
<rect x="32" y="37" width="3" height="3" fill="#663931" />
<rect x="40" y="37" width="1" height="10" fill="#FFFFFF" />
<rect x="41" y="37" width="1" height="1" fill="#000000" />
<rect x="21" y="38" width="2" height="1" fill="#000000" />
<rect x="23" y="38" width="1" height="1" fill="#663931" />
<rect x="28" y="38" width="4" height="3" fill="#663931" />
<rect x="41" y="38" width="1" height="10" fill="#FFFFFF" />
<rect x="42" y="38" width="1" height="1" fill="#000000" />
<rect x="45" y="38" width="3" height="1" fill="#000000" />
<rect x="23" y="39" width="1" height="1" fill="#000000" />
<rect x="35" y="39" width="1" height="1" fill="#663931" />
<rect x="36" y="39" width="1" height="1" fill="#CBC5B9" />
<rect x="37" y="39" width="3" height="1" fill="#FFFFFF" />
<rect x="42" y="39" width="1" height="9" fill="#FFFFFF" />
<rect x="43" y="39" width="2" height="1" fill="#000000" />
<rect x="45" y="39" width="3" height="5" fill="#FFFFFF" />
<rect x="48" y="39" width="1" height="2" fill="#000000" />
<rect x="24" y="40" width="1" height="1" fill="#000000" />
<rect x="32" y="40" width="2" height="1" fill="#663931" />
<rect x="34" y="40" width="3" height="1" fill="#000000" />
<rect x="37" y="40" width="1" height="1" fill="#CBC5B9" />
<rect x="38" y="40" width="2" height="1" fill="#FFFFFF" />
<rect x="43" y="40" width="2" height="5" fill="#FFFFFF" />
<rect x="25" y="41" width="9" height="1" fill="#000000" />
<rect x="37" y="41" width="1" height="1" fill="#000000" />
<rect x="38" y="41" width="1" height="1" fill="#CBC5B9" />
<rect x="39" y="41" width="1" height="1" fill="#FFFFFF" />
<rect x="48" y="41" width="1" height="4" fill="#FFFFFF" />
<rect x="49" y="41" width="1" height="4" fill="#000000" />
<rect x="38" y="42" width="1" height="1" fill="#000000" />
<rect x="39" y="42" width="1" height="1" fill="#CBC5B9" />
<rect x="39" y="43" width="1" height="2" fill="#000000" />
<rect x="45" y="44" width="2" height="1" fill="#CBC5B9" />
<rect x="47" y="44" width="1" height="2" fill="#FFFFFF" />
<rect x="38" y="45" width="1" height="3" fill="#000000" />
<rect x="39" y="45" width="1" height="2" fill="#FFFFFF" />
<rect x="43" y="45" width="1" height="3" fill="#FFFFFF" />
<rect x="44" y="45" width="2" height="1" fill="#CBC5B9" />
<rect x="46" y="45" width="1" height="1" fill="#FFFFFF" />
<rect x="48" y="45" width="1" height="1" fill="#000000" />
<rect x="44" y="46" width="1" height="1" fill="#CBC5B9" />
<rect x="45" y="46" width="1" height="1" fill="#FFFFFF" />
<rect x="46" y="46" width="2" height="1" fill="#000000" />
<rect x="39" y="47" width="2" height="1" fill="#CBC5B9" />
<rect x="44" y="47" width="1" height="1" fill="#FFFFFF" />
<rect x="45" y="47" width="1" height="1" fill="#CBC5B9" />
<rect x="46" y="47" width="1" height="1" fill="#000000" />
<rect x="39" y="48" width="2" height="1" fill="#000000" />
<rect x="41" y="48" width="4" height="1" fill="#CBC5B9" />
<rect x="45" y="48" width="1" height="1" fill="#000000" />
<rect x="41" y="49" width="4" height="1" fill="#000000" />
</svg>