<?xml version="1.0" encoding="UTF-8" ?>
<svg version="1.1" width="64" height="64" xmlns="http://www.w3.org/2000/svg" shape-rendering="crispEdges">
<rect x="2" y="0" width="60" height="3" fill="#F7AC6F" />
<rect x="1" y="1" width="1" height="62" fill="#F7AC6F" />
<rect x="62" y="1" width="1" height="62" fill="#F7AC6F" />
<rect x="0" y="2" width="1" height="60" fill="#F7AC6F" />
<rect x="63" y="2" width="1" height="60" fill="#F7AC6F" />
<rect x="2" y="3" width="3" height="1" fill="#F7AC6F" />
<rect x="5" y="3" width="54" height="4" fill="#FAEF91" />
<rect x="59" y="3" width="3" height="1" fill="#F7AC6F" />
<rect x="2" y="4" width="2" height="1" fill="#F7AC6F" />
<rect x="4" y="4" width="1" height="56" fill="#FAEF91" />
<rect x="59" y="4" width="1" height="6" fill="#FAEF91" />
<rect x="60" y="4" width="2" height="1" fill="#F7AC6F" />
<rect x="2" y="5" width="1" height="59" fill="#F7AC6F" />
<rect x="3" y="5" width="1" height="54" fill="#FAEF91" />
<rect x="60" y="5" width="1" height="54" fill="#FAEF91" />
<rect x="61" y="5" width="1" height="59" fill="#F7AC6F" />
<rect x="5" y="7" width="8" height="2" fill="#FAEF91" />
<rect x="13" y="7" width="4" height="1" fill="#D4B685" />
<rect x="17" y="7" width="32" height="1" fill="#FAEF91" />
<rect x="49" y="7" width="2" height="1" fill="#4B692F" />
<rect x="51" y="7" width="8" height="1" fill="#FAEF91" />
<rect x="13" y="8" width="4" height="1" fill="#FFFEDD" />
<rect x="17" y="8" width="1" height="1" fill="#D4B685" />
<rect x="18" y="8" width="29" height="1" fill="#FAEF91" />
<rect x="47" y="8" width="2" height="1" fill="#4B692F" />
<rect x="49" y="8" width="2" height="1" fill="#6ABE30" />
<rect x="51" y="8" width="1" height="1" fill="#4B692F" />
<rect x="52" y="8" width="7" height="1" fill="#FAEF91" />
<rect x="5" y="9" width="7" height="2" fill="#FAEF91" />
<rect x="12" y="9" width="1" height="2" fill="#D4B685" />
<rect x="13" y="9" width="1" height="8" fill="#FFFEDD" />
<rect x="14" y="9" width="2" height="4" fill="#FFFFFF" />
<rect x="16" y="9" width="2" height="1" fill="#FFFEDD" />
<rect x="18" y="9" width="1" height="6" fill="#D4B685" />
<rect x="19" y="9" width="9" height="1" fill="#FAEF91" />
<rect x="28" y="9" width="8" height="1" fill="#663931" />
<rect x="36" y="9" width="10" height="1" fill="#FAEF91" />
<rect x="46" y="9" width="1" height="2" fill="#4B692F" />
<rect x="47" y="9" width="3" height="1" fill="#6ABE30" />
<rect x="50" y="9" width="1" height="1" fill="#4B692F" />
<rect x="51" y="9" width="4" height="1" fill="#FAEF91" />
<rect x="55" y="9" width="4" height="1" fill="#4B692F" />
<rect x="16" y="10" width="1" height="3" fill="#FFFFFF" />
<rect x="17" y="10" width="1" height="5" fill="#FFFEDD" />
<rect x="19" y="10" width="7" height="1" fill="#FAEF91" />
<rect x="26" y="10" width="2" height="1" fill="#663931" />
<rect x="28" y="10" width="1" height="1" fill="#A0752D" />
<rect x="29" y="10" width="6" height="2" fill="#CB9740" />
<rect x="35" y="10" width="1" height="1" fill="#A0752D" />
<rect x="36" y="10" width="2" height="1" fill="#663931" />
<rect x="38" y="10" width="8" height="1" fill="#FAEF91" />
<rect x="47" y="10" width="2" height="2" fill="#6ABE30" />
<rect x="49" y="10" width="1" height="2" fill="#4B692F" />
<rect x="50" y="10" width="1" height="1" fill="#FAEF91" />
<rect x="51" y="10" width="4" height="1" fill="#4B692F" />
<rect x="55" y="10" width="1" height="1" fill="#6ABE30" />
<rect x="56" y="10" width="1" height="2" fill="#91D636" />
<rect x="57" y="10" width="2" height="1" fill="#6ABE30" />
<rect x="59" y="10" width="1" height="1" fill="#4B692F" />
<rect x="5" y="11" width="6" height="1" fill="#FAEF91" />
<rect x="11" y="11" width="1" height="2" fill="#907F63" />
<rect x="12" y="11" width="1" height="8" fill="#FFFEDD" />
<rect x="19" y="11" width="6" height="1" fill="#FAEF91" />
<rect x="25" y="11" width="1" height="1" fill="#663931" />
<rect x="26" y="11" width="1" height="1" fill="#A0752D" />
<rect x="27" y="11" width="2" height="2" fill="#CB9740" />
<rect x="35" y="11" width="2" height="2" fill="#CB9740" />
<rect x="37" y="11" width="1" height="1" fill="#A0752D" />
<rect x="38" y="11" width="1" height="1" fill="#663931" />
<rect x="39" y="11" width="6" height="1" fill="#FAEF91" />
<rect x="45" y="11" width="1" height="1" fill="#4B692F" />
<rect x="46" y="11" width="1" height="2" fill="#6ABE30" />
<rect x="50" y="11" width="1" height="1" fill="#4B692F" />
<rect x="51" y="11" width="1" height="1" fill="#6ABE30" />
<rect x="52" y="11" width="4" height="2" fill="#91D636" />
<rect x="57" y="11" width="1" height="1" fill="#6ABE30" />
<rect x="58" y="11" width="1" height="1" fill="#4B692F" />
<rect x="59" y="11" width="1" height="49" fill="#FAEF91" />
<rect x="5" y="12" width="2" height="1" fill="#FAEF91" />
<rect x="7" y="12" width="4" height="1" fill="#907F63" />
<rect x="19" y="12" width="5" height="3" fill="#FAEF91" />
<rect x="24" y="12" width="1" height="4" fill="#663931" />
<rect x="25" y="12" width="1" height="4" fill="#A0752D" />
<rect x="26" y="12" width="1" height="2" fill="#CB9740" />
<rect x="29" y="12" width="2" height="1" fill="#CB9740" />
<rect x="31" y="12" width="2" height="1" fill="#A0752D" />
<rect x="33" y="12" width="2" height="1" fill="#CB9740" />
<rect x="37" y="12" width="1" height="2" fill="#CB9740" />
<rect x="38" y="12" width="1" height="4" fill="#A0752D" />
<rect x="39" y="12" width="1" height="4" fill="#663931" />
<rect x="40" y="12" width="4" height="3" fill="#FAEF91" />
<rect x="44" y="12" width="1" height="3" fill="#4B692F" />
<rect x="45" y="12" width="1" height="1" fill="#6ABE30" />
<rect x="47" y="12" width="1" height="1" fill="#6ABE30" />
<rect x="48" y="12" width="1" height="1" fill="#4B692F" />
<rect x="49" y="12" width="2" height="1" fill="#6ABE30" />
<rect x="51" y="12" width="1" height="2" fill="#91D636" />
<rect x="56" y="12" width="1" height="1" fill="#6ABE30" />
<rect x="57" y="12" width="1" height="2" fill="#4B692F" />
<rect x="58" y="12" width="1" height="2" fill="#FAEF91" />
<rect x="5" y="13" width="1" height="48" fill="#FAEF91" />
<rect x="6" y="13" width="1" height="7" fill="#907F63" />
<rect x="7" y="13" width="2" height="1" fill="#F1E7BB" />
<rect x="9" y="13" width="3" height="2" fill="#FFFEDD" />
<rect x="14" y="13" width="3" height="5" fill="#FFFEDD" />
<rect x="27" y="13" width="1" height="1" fill="#CB9740" />
<rect x="28" y="13" width="1" height="3" fill="#A0752D" />
<rect x="29" y="13" width="6" height="2" fill="#663931" />
<rect x="35" y="13" width="1" height="3" fill="#A0752D" />
<rect x="36" y="13" width="1" height="1" fill="#CB9740" />
<rect x="45" y="13" width="3" height="1" fill="#529B20" />
<rect x="48" y="13" width="1" height="1" fill="#6ABE30" />
<rect x="49" y="13" width="2" height="1" fill="#91D636" />
<rect x="52" y="13" width="1" height="1" fill="#91D636" />
<rect x="53" y="13" width="2" height="1" fill="#6ABE30" />
<rect x="55" y="13" width="2" height="1" fill="#4B692F" />
<rect x="7" y="14" width="1" height="6" fill="#F1E7BB" />
<rect x="8" y="14" width="1" height="1" fill="#FFFEDD" />
<rect x="26" y="14" width="2" height="2" fill="#A0752D" />
<rect x="36" y="14" width="2" height="2" fill="#A0752D" />
<rect x="45" y="14" width="2" height="2" fill="#529B20" />
<rect x="47" y="14" width="1" height="1" fill="#6ABE30" />
<rect x="48" y="14" width="2" height="2" fill="#91D636" />
<rect x="50" y="14" width="4" height="1" fill="#6ABE30" />
<rect x="54" y="14" width="4" height="1" fill="#529B20" />
<rect x="58" y="14" width="1" height="1" fill="#4B692F" />
<rect x="8" y="15" width="1" height="6" fill="#F1E7BB" />
<rect x="9" y="15" width="1" height="3" fill="#FFFEDD" />
<rect x="10" y="15" width="2" height="2" fill="#FFFFFF" />
<rect x="17" y="15" width="1" height="1" fill="#D4B685" />
<rect x="18" y="15" width="2" height="1" fill="#FAEF91" />
<rect x="20" y="15" width="4" height="1" fill="#663931" />
<rect x="29" y="15" width="1" height="1" fill="#663931" />
<rect x="30" y="15" width="4" height="1" fill="#B08235" />
<rect x="34" y="15" width="1" height="1" fill="#663931" />
<rect x="40" y="15" width="4" height="1" fill="#663931" />
<rect x="44" y="15" width="1" height="1" fill="#529B20" />
<rect x="47" y="15" width="1" height="2" fill="#91D636" />
<rect x="50" y="15" width="2" height="1" fill="#6ABE30" />
<rect x="52" y="15" width="5" height="1" fill="#529B20" />
<rect x="57" y="15" width="1" height="1" fill="#4B692F" />
<rect x="58" y="15" width="1" height="3" fill="#FAEF91" />
<rect x="17" y="16" width="1" height="2" fill="#FFFEDD" />
<rect x="18" y="16" width="1" height="1" fill="#D4B685" />
<rect x="19" y="16" width="1" height="1" fill="#663931" />
<rect x="20" y="16" width="4" height="1" fill="#B08235" />
<rect x="24" y="16" width="16" height="8" fill="#CB9740" />
<rect x="40" y="16" width="4" height="1" fill="#B08235" />
<rect x="44" y="16" width="1" height="1" fill="#663931" />
<rect x="45" y="16" width="2" height="1" fill="#6ABE30" />
<rect x="48" y="16" width="1" height="1" fill="#91D636" />
<rect x="49" y="16" width="2" height="1" fill="#6ABE30" />
<rect x="51" y="16" width="4" height="1" fill="#529B20" />
<rect x="55" y="16" width="2" height="2" fill="#4B692F" />
<rect x="57" y="16" width="1" height="1" fill="#FAEF91" />
<rect x="10" y="17" width="1" height="2" fill="#FFFEDD" />
<rect x="11" y="17" width="1" height="1" fill="#FFFFFF" />
<rect x="13" y="17" width="1" height="3" fill="#F1E7BB" />
<rect x="18" y="17" width="1" height="1" fill="#663931" />
<rect x="19" y="17" width="2" height="1" fill="#B08235" />
<rect x="21" y="17" width="3" height="10" fill="#CB9740" />
<rect x="40" y="17" width="3" height="7" fill="#CB9740" />
<rect x="43" y="17" width="2" height="1" fill="#B08235" />
<rect x="45" y="17" width="1" height="1" fill="#663931" />
<rect x="46" y="17" width="4" height="1" fill="#6ABE30" />
<rect x="50" y="17" width="1" height="1" fill="#529B20" />
<rect x="51" y="17" width="1" height="2" fill="#428215" />
<rect x="52" y="17" width="1" height="1" fill="#529B20" />
<rect x="53" y="17" width="2" height="1" fill="#4B692F" />
<rect x="57" y="17" width="1" height="1" fill="#4B692F" />
<rect x="9" y="18" width="1" height="3" fill="#F1E7BB" />
<rect x="11" y="18" width="1" height="1" fill="#FFFEDD" />
<rect x="14" y="18" width="2" height="1" fill="#F1E7BB" />
<rect x="16" y="18" width="1" height="1" fill="#FFFEDD" />
<rect x="17" y="18" width="1" height="4" fill="#663931" />
<rect x="18" y="18" width="2" height="3" fill="#B08235" />
<rect x="20" y="18" width="1" height="8" fill="#CB9740" />
<rect x="43" y="18" width="1" height="6" fill="#CB9740" />
<rect x="44" y="18" width="2" height="3" fill="#B08235" />
<rect x="46" y="18" width="1" height="4" fill="#663931" />
<rect x="47" y="18" width="3" height="1" fill="#6ABE30" />
<rect x="50" y="18" width="1" height="2" fill="#428215" />
<rect x="52" y="18" width="1" height="1" fill="#6ABE30" />
<rect x="53" y="18" width="4" height="1" fill="#91D636" />
<rect x="57" y="18" width="1" height="2" fill="#6ABE30" />
<rect x="58" y="18" width="1" height="2" fill="#4B692F" />
<rect x="10" y="19" width="3" height="1" fill="#F1E7BB" />
<rect x="14" y="19" width="1" height="1" fill="#907F63" />
<rect x="15" y="19" width="2" height="1" fill="#F1E7BB" />
<rect x="47" y="19" width="2" height="1" fill="#6ABE30" />
<rect x="49" y="19" width="1" height="3" fill="#428215" />
<rect x="51" y="19" width="1" height="3" fill="#6ABE30" />
<rect x="52" y="19" width="2" height="1" fill="#91D636" />
<rect x="54" y="19" width="3" height="1" fill="#6ABE30" />
<rect x="6" y="20" width="1" height="41" fill="#FAEF91" />
<rect x="7" y="20" width="1" height="1" fill="#907F63" />
<rect x="10" y="20" width="2" height="1" fill="#F1E7BB" />
<rect x="12" y="20" width="1" height="1" fill="#907F63" />
<rect x="13" y="20" width="2" height="18" fill="#FAEF91" />
<rect x="15" y="20" width="1" height="1" fill="#907F63" />
<rect x="16" y="20" width="1" height="1" fill="#F1E7BB" />
<rect x="47" y="20" width="1" height="1" fill="#6ABE30" />
<rect x="48" y="20" width="1" height="2" fill="#428215" />
<rect x="50" y="20" width="1" height="2" fill="#6ABE30" />
<rect x="52" y="20" width="3" height="1" fill="#6ABE30" />
<rect x="55" y="20" width="3" height="1" fill="#4B692F" />
<rect x="58" y="20" width="1" height="41" fill="#FAEF91" />
<rect x="7" y="21" width="1" height="40" fill="#FAEF91" />
<rect x="8" y="21" width="4" height="1" fill="#907F63" />
<rect x="12" y="21" width="1" height="40" fill="#FAEF91" />
<rect x="15" y="21" width="2" height="1" fill="#FAEF91" />
<rect x="18" y="21" width="1" height="3" fill="#A0752D" />
<rect x="19" y="21" width="1" height="11" fill="#B08235" />
<rect x="44" y="21" width="1" height="3" fill="#B08235" />
<rect x="45" y="21" width="1" height="3" fill="#A0752D" />
<rect x="47" y="21" width="1" height="1" fill="#428215" />
<rect x="52" y="21" width="3" height="1" fill="#4B692F" />
<rect x="55" y="21" width="3" height="40" fill="#FAEF91" />
<rect x="8" y="22" width="4" height="39" fill="#FAEF91" />
<rect x="15" y="22" width="1" height="4" fill="#FAEF91" />
<rect x="16" y="22" width="1" height="4" fill="#663931" />
<rect x="17" y="22" width="1" height="11" fill="#A0752D" />
<rect x="46" y="22" width="1" height="3" fill="#A0752D" />
<rect x="47" y="22" width="1" height="4" fill="#663931" />
<rect x="48" y="22" width="2" height="1" fill="#6ABE30" />
<rect x="50" y="22" width="2" height="1" fill="#4B692F" />
<rect x="52" y="22" width="3" height="39" fill="#FAEF91" />
<rect x="48" y="23" width="1" height="1" fill="#6ABE30" />
<rect x="49" y="23" width="1" height="1" fill="#4B692F" />
<rect x="50" y="23" width="2" height="38" fill="#FAEF91" />
<rect x="18" y="24" width="1" height="7" fill="#B08235" />
<rect x="24" y="24" width="6" height="1" fill="#CB9740" />
<rect x="30" y="24" width="4" height="11" fill="#B08235" />
<rect x="34" y="24" width="8" height="1" fill="#CB9740" />
<rect x="42" y="24" width="4" height="1" fill="#FFC6DF" />
<rect x="48" y="24" width="1" height="1" fill="#4B692F" />
<rect x="49" y="24" width="1" height="14" fill="#FAEF91" />
<rect x="24" y="25" width="3" height="1" fill="#CB9740" />
<rect x="27" y="25" width="3" height="9" fill="#B08235" />
<rect x="34" y="25" width="3" height="9" fill="#B08235" />
<rect x="37" y="25" width="2" height="1" fill="#CB9740" />
<rect x="39" y="25" width="3" height="1" fill="#FFC6DF" />
<rect x="42" y="25" width="4" height="1" fill="#FFFFFF" />
<rect x="46" y="25" width="1" height="2" fill="#FFC6DF" />
<rect x="48" y="25" width="1" height="1" fill="#FAEF91" />
<rect x="15" y="26" width="1" height="12" fill="#663931" />
<rect x="16" y="26" width="1" height="6" fill="#A0752D" />
<rect x="20" y="26" width="1" height="6" fill="#B08235" />
<rect x="24" y="26" width="2" height="1" fill="#CB9740" />
<rect x="26" y="26" width="1" height="8" fill="#B08235" />
<rect x="37" y="26" width="1" height="4" fill="#B08235" />
<rect x="38" y="26" width="1" height="4" fill="#FFC6DF" />
<rect x="39" y="26" width="4" height="1" fill="#FFFFFF" />
<rect x="43" y="26" width="2" height="1" fill="#FFC6DF" />
<rect x="45" y="26" width="1" height="2" fill="#FFFFFF" />
<rect x="47" y="26" width="1" height="1" fill="#FFC6DF" />
<rect x="48" y="26" width="1" height="1" fill="#663931" />
<rect x="21" y="27" width="5" height="5" fill="#B08235" />
<rect x="39" y="27" width="1" height="6" fill="#FFFFFF" />
<rect x="40" y="27" width="1" height="1" fill="#FFC6DF" />
<rect x="41" y="27" width="1" height="1" fill="#F7A6DD" />
<rect x="42" y="27" width="1" height="2" fill="#FA7BB4" />
<rect x="43" y="27" width="1" height="1" fill="#FFC6DF" />
<rect x="44" y="27" width="1" height="2" fill="#FA7BB4" />
<rect x="46" y="27" width="2" height="1" fill="#FFFFFF" />
<rect x="48" y="27" width="1" height="6" fill="#FFC6DF" />
<rect x="40" y="28" width="1" height="1" fill="#F7A6DD" />
<rect x="41" y="28" width="1" height="1" fill="#FA7BB4" />
<rect x="43" y="28" width="1" height="1" fill="#FA7BB4" />
<rect x="45" y="28" width="1" height="1" fill="#F7A6DD" />
<rect x="46" y="28" width="1" height="2" fill="#FFC6DF" />
<rect x="47" y="28" width="1" height="2" fill="#F7A6DD" />
<rect x="40" y="29" width="4" height="1" fill="#FFFFFF" />
<rect x="44" y="29" width="1" height="1" fill="#F7A6DD" />
<rect x="45" y="29" width="1" height="1" fill="#FFC6DF" />
<rect x="37" y="30" width="1" height="2" fill="#FFC6DF" />
<rect x="38" y="30" width="1" height="2" fill="#FFFFFF" />
<rect x="40" y="30" width="1" height="3" fill="#F7A6DD" />
<rect x="41" y="30" width="3" height="2" fill="#FFC6DF" />
<rect x="44" y="30" width="1" height="1" fill="#FFFFFF" />
<rect x="45" y="30" width="2" height="1" fill="#FA7BB4" />
<rect x="47" y="30" width="1" height="1" fill="#FFFFFF" />
<rect x="18" y="31" width="1" height="3" fill="#A0752D" />
<rect x="44" y="31" width="1" height="1" fill="#F7A6DD" />
<rect x="45" y="31" width="1" height="1" fill="#FFFFFF" />
<rect x="46" y="31" width="1" height="2" fill="#FFC6DF" />
<rect x="47" y="31" width="1" height="1" fill="#F7A6DD" />
<rect x="16" y="32" width="1" height="1" fill="#663931" />
<rect x="19" y="32" width="3" height="2" fill="#A0752D" />
<rect x="22" y="32" width="4" height="1" fill="#B08235" />
<rect x="37" y="32" width="1" height="2" fill="#B08235" />
<rect x="38" y="32" width="1" height="1" fill="#FFC6DF" />
<rect x="41" y="32" width="1" height="1" fill="#FFC6DF" />
<rect x="42" y="32" width="2" height="1" fill="#F7A6DD" />
<rect x="44" y="32" width="2" height="2" fill="#FA7BB4" />
<rect x="47" y="32" width="1" height="1" fill="#FA7BB4" />
<rect x="16" y="33" width="1" height="2" fill="#6D4D17" />
<rect x="17" y="33" width="1" height="1" fill="#663931" />
<rect x="22" y="33" width="4" height="2" fill="#A0752D" />
<rect x="38" y="33" width="1" height="2" fill="#A0752D" />
<rect x="39" y="33" width="1" height="1" fill="#FFC6DF" />
<rect x="40" y="33" width="2" height="1" fill="#FFFFFF" />
<rect x="42" y="33" width="2" height="1" fill="#FA7BB4" />
<rect x="46" y="33" width="1" height="1" fill="#FFFFFF" />
<rect x="47" y="33" width="1" height="1" fill="#FFC6DF" />
<rect x="48" y="33" width="1" height="5" fill="#663931" />
<rect x="17" y="34" width="1" height="2" fill="#6D4D17" />
<rect x="18" y="34" width="4" height="1" fill="#663931" />
<rect x="26" y="34" width="2" height="1" fill="#A0752D" />
<rect x="28" y="34" width="2" height="1" fill="#B08235" />
<rect x="34" y="34" width="2" height="1" fill="#B08235" />
<rect x="36" y="34" width="2" height="1" fill="#A0752D" />
<rect x="39" y="34" width="1" height="1" fill="#A0752D" />
<rect x="40" y="34" width="3" height="1" fill="#FFC6DF" />
<rect x="43" y="34" width="3" height="1" fill="#FFFFFF" />
<rect x="46" y="34" width="1" height="1" fill="#FFC6DF" />
<rect x="47" y="34" width="1" height="1" fill="#6D4D17" />
<rect x="16" y="35" width="1" height="16" fill="#8A6321" />
<rect x="18" y="35" width="3" height="2" fill="#6D4D17" />
<rect x="21" y="35" width="22" height="1" fill="#663931" />
<rect x="43" y="35" width="3" height="1" fill="#FFC6DF" />
<rect x="46" y="35" width="1" height="1" fill="#6D4D17" />
<rect x="47" y="35" width="1" height="16" fill="#8A6321" />
<rect x="17" y="36" width="1" height="16" fill="#8A6321" />
<rect x="21" y="36" width="1" height="8" fill="#663931" />
<rect x="22" y="36" width="5" height="1" fill="#A56E11" />
<rect x="27" y="36" width="1" height="8" fill="#663931" />
<rect x="28" y="36" width="8" height="3" fill="#6D4D17" />
<rect x="36" y="36" width="1" height="8" fill="#663931" />
<rect x="37" y="36" width="5" height="1" fill="#A56E11" />
<rect x="42" y="36" width="1" height="8" fill="#663931" />
<rect x="43" y="36" width="3" height="1" fill="#6D4D17" />
<rect x="46" y="36" width="1" height="16" fill="#8A6321" />
<rect x="18" y="37" width="1" height="6" fill="#8A6321" />
<rect x="19" y="37" width="2" height="1" fill="#6D4D17" />
<rect x="22" y="37" width="1" height="2" fill="#A56E11" />
<rect x="23" y="37" width="2" height="4" fill="#C18520" />
<rect x="25" y="37" width="2" height="1" fill="#A56E11" />
<rect x="37" y="37" width="1" height="2" fill="#A56E11" />
<rect x="38" y="37" width="2" height="4" fill="#C18520" />
<rect x="40" y="37" width="2" height="1" fill="#A56E11" />
<rect x="43" y="37" width="2" height="1" fill="#6D4D17" />
<rect x="45" y="37" width="1" height="6" fill="#8A6321" />
<rect x="13" y="38" width="1" height="23" fill="#FAEF91" />
<rect x="14" y="38" width="1" height="14" fill="#663931" />
<rect x="15" y="38" width="1" height="11" fill="#8A6321" />
<rect x="19" y="38" width="2" height="4" fill="#8A6321" />
<rect x="25" y="38" width="1" height="4" fill="#C18520" />
<rect x="26" y="38" width="1" height="1" fill="#A56E11" />
<rect x="40" y="38" width="1" height="4" fill="#C18520" />
<rect x="41" y="38" width="1" height="1" fill="#A56E11" />
<rect x="43" y="38" width="2" height="4" fill="#8A6321" />
<rect x="48" y="38" width="1" height="11" fill="#8A6321" />
<rect x="49" y="38" width="1" height="14" fill="#663931" />
<rect x="22" y="39" width="1" height="5" fill="#C18520" />
<rect x="26" y="39" width="1" height="5" fill="#C18520" />
<rect x="28" y="39" width="8" height="4" fill="#8A6321" />
<rect x="37" y="39" width="1" height="5" fill="#C18520" />
<rect x="41" y="39" width="1" height="5" fill="#C18520" />
<rect x="23" y="41" width="1" height="1" fill="#C18520" />
<rect x="24" y="41" width="1" height="2" fill="#FFEE5B" />
<rect x="38" y="41" width="1" height="1" fill="#C18520" />
<rect x="39" y="41" width="1" height="2" fill="#FFEE5B" />
<rect x="19" y="42" width="2" height="1" fill="#663931" />
<rect x="23" y="42" width="1" height="2" fill="#FAB747" />
<rect x="25" y="42" width="1" height="1" fill="#FFEE5B" />
<rect x="38" y="42" width="1" height="1" fill="#FFEE5B" />
<rect x="40" y="42" width="1" height="2" fill="#FAB747" />
<rect x="43" y="42" width="2" height="1" fill="#663931" />
<rect x="18" y="43" width="1" height="7" fill="#663931" />
<rect x="19" y="43" width="2" height="5" fill="#B08235" />
<rect x="24" y="43" width="1" height="1" fill="#FAB747" />
<rect x="25" y="43" width="1" height="2" fill="#C18520" />
<rect x="28" y="43" width="8" height="1" fill="#663931" />
<rect x="38" y="43" width="1" height="2" fill="#C18520" />
<rect x="39" y="43" width="1" height="1" fill="#FAB747" />
<rect x="43" y="43" width="2" height="5" fill="#B08235" />
<rect x="45" y="43" width="1" height="7" fill="#663931" />
<rect x="21" y="44" width="1" height="5" fill="#B08235" />
<rect x="22" y="44" width="1" height="1" fill="#663931" />
<rect x="23" y="44" width="2" height="1" fill="#C18520" />
<rect x="26" y="44" width="1" height="1" fill="#663931" />
<rect x="27" y="44" width="10" height="7" fill="#B08235" />
<rect x="37" y="44" width="1" height="1" fill="#663931" />
<rect x="39" y="44" width="2" height="1" fill="#C18520" />
<rect x="41" y="44" width="1" height="1" fill="#663931" />
<rect x="42" y="44" width="1" height="5" fill="#B08235" />
<rect x="22" y="45" width="1" height="5" fill="#B08235" />
<rect x="23" y="45" width="3" height="1" fill="#663931" />
<rect x="26" y="45" width="1" height="6" fill="#B08235" />
<rect x="37" y="45" width="1" height="6" fill="#B08235" />
<rect x="38" y="45" width="3" height="1" fill="#663931" />
<rect x="41" y="45" width="1" height="5" fill="#B08235" />
<rect x="23" y="46" width="3" height="4" fill="#B08235" />
<rect x="38" y="46" width="3" height="4" fill="#B08235" />
<rect x="19" y="48" width="1" height="2" fill="#A0752D" />
<rect x="20" y="48" width="1" height="1" fill="#B08235" />
<rect x="43" y="48" width="1" height="1" fill="#B08235" />
<rect x="44" y="48" width="1" height="2" fill="#A0752D" />
<rect x="15" y="49" width="1" height="3" fill="#6D4D17" />
<rect x="20" y="49" width="2" height="4" fill="#A0752D" />
<rect x="42" y="49" width="2" height="4" fill="#A0752D" />
<rect x="48" y="49" width="1" height="3" fill="#6D4D17" />
<rect x="18" y="50" width="1" height="2" fill="#8A6321" />
<rect x="19" y="50" width="1" height="3" fill="#663931" />
<rect x="22" y="50" width="2" height="4" fill="#A0752D" />
<rect x="24" y="50" width="2" height="1" fill="#B08235" />
<rect x="38" y="50" width="2" height="1" fill="#B08235" />
<rect x="40" y="50" width="2" height="4" fill="#A0752D" />
<rect x="44" y="50" width="1" height="3" fill="#663931" />
<rect x="45" y="50" width="1" height="2" fill="#8A6321" />
<rect x="16" y="51" width="1" height="2" fill="#6D4D17" />
<rect x="24" y="51" width="16" height="3" fill="#A0752D" />
<rect x="47" y="51" width="1" height="2" fill="#6D4D17" />
<rect x="14" y="52" width="1" height="9" fill="#FAEF91" />
<rect x="15" y="52" width="1" height="1" fill="#663931" />
<rect x="17" y="52" width="2" height="2" fill="#6D4D17" />
<rect x="45" y="52" width="2" height="2" fill="#6D4D17" />
<rect x="48" y="52" width="1" height="1" fill="#663931" />
<rect x="49" y="52" width="1" height="9" fill="#FAEF91" />
<rect x="15" y="53" width="1" height="8" fill="#FAEF91" />
<rect x="16" y="53" width="1" height="1" fill="#663931" />
<rect x="19" y="53" width="1" height="2" fill="#6D4D17" />
<rect x="20" y="53" width="2" height="1" fill="#663931" />
<rect x="42" y="53" width="2" height="1" fill="#663931" />
<rect x="44" y="53" width="1" height="2" fill="#6D4D17" />
<rect x="47" y="53" width="1" height="1" fill="#663931" />
<rect x="48" y="53" width="1" height="8" fill="#FAEF91" />
<rect x="16" y="54" width="1" height="7" fill="#FAEF91" />
<rect x="17" y="54" width="1" height="1" fill="#663931" />
<rect x="18" y="54" width="1" height="1" fill="#6D4D17" />
<rect x="20" y="54" width="2" height="1" fill="#6D4D17" />
<rect x="22" y="54" width="20" height="1" fill="#663931" />
<rect x="42" y="54" width="2" height="1" fill="#6D4D17" />
<rect x="45" y="54" width="1" height="1" fill="#6D4D17" />
<rect x="46" y="54" width="1" height="1" fill="#663931" />
<rect x="47" y="54" width="1" height="7" fill="#FAEF91" />
<rect x="17" y="55" width="1" height="6" fill="#FAEF91" />
<rect x="18" y="55" width="4" height="1" fill="#663931" />
<rect x="22" y="55" width="20" height="1" fill="#6D4D17" />
<rect x="42" y="55" width="4" height="1" fill="#663931" />
<rect x="46" y="55" width="1" height="6" fill="#FAEF91" />
<rect x="18" y="56" width="4" height="5" fill="#FAEF91" />
<rect x="22" y="56" width="20" height="1" fill="#663931" />
<rect x="42" y="56" width="4" height="5" fill="#FAEF91" />
<rect x="22" y="57" width="20" height="4" fill="#FAEF91" />
<rect x="3" y="59" width="1" height="5" fill="#F7AC6F" />
<rect x="60" y="59" width="1" height="5" fill="#F7AC6F" />
<rect x="4" y="60" width="1" height="4" fill="#F7AC6F" />
<rect x="59" y="60" width="1" height="4" fill="#F7AC6F" />
<rect x="5" y="61" width="54" height="3" fill="#F7AC6F" />
</svg>