<?xml version="1.0" encoding="UTF-8" ?>
<svg version="1.1" width="64" height="64" xmlns="http://www.w3.org/2000/svg" shape-rendering="crispEdges">
<rect x="30" y="8" width="3" height="1" fill="#B5A04A" />
<rect x="29" y="9" width="1" height="2" fill="#B5A04A" />
<rect x="30" y="9" width="3" height="1" fill="#FFF5CE" />
<rect x="33" y="9" width="1" height="2" fill="#B5A04A" />
<rect x="30" y="10" width="1" height="1" fill="#B5A04A" />
<rect x="31" y="10" width="2" height="1" fill="#FFF5CE" />
<rect x="28" y="11" width="1" height="2" fill="#B5A04A" />
<rect x="29" y="11" width="2" height="1" fill="#FFF5CE" />
<rect x="31" y="11" width="2" height="1" fill="#FFFFFF" />
<rect x="33" y="11" width="1" height="3" fill="#EFDD92" />
<rect x="34" y="11" width="1" height="2" fill="#B5A04A" />
<rect x="29" y="12" width="1" height="2" fill="#FFF5CE" />
<rect x="30" y="12" width="2" height="1" fill="#FFFFFF" />
<rect x="32" y="12" width="1" height="1" fill="#FFF5CE" />
<rect x="35" y="12" width="1" height="1" fill="#B5A04A" />
<rect x="27" y="13" width="1" height="1" fill="#B5A04A" />
<rect x="28" y="13" width="1" height="3" fill="#FFF5CE" />
<rect x="30" y="13" width="1" height="1" fill="#FFF5CE" />
<rect x="31" y="13" width="2" height="1" fill="#EFDD92" />
<rect x="34" y="13" width="1" height="2" fill="#FFF5CE" />
<rect x="35" y="13" width="1" height="2" fill="#EFDD92" />
<rect x="36" y="13" width="1" height="1" fill="#B5A04A" />
<rect x="26" y="14" width="1" height="2" fill="#B5A04A" />
<rect x="27" y="14" width="1" height="2" fill="#FFF5CE" />
<rect x="29" y="14" width="3" height="1" fill="#EFDD92" />
<rect x="32" y="14" width="2" height="1" fill="#FFF5CE" />
<rect x="36" y="14" width="1" height="4" fill="#EFDD92" />
<rect x="37" y="14" width="1" height="2" fill="#B5A04A" />
<rect x="29" y="15" width="4" height="1" fill="#FFF5CE" />
<rect x="33" y="15" width="2" height="1" fill="#FFFFFF" />
<rect x="35" y="15" width="1" height="2" fill="#FFF5CE" />
<rect x="38" y="15" width="1" height="1" fill="#B5A04A" />
<rect x="15" y="16" width="7" height="1" fill="#57400A" />
<rect x="22" y="16" width="3" height="1" fill="#5E3615" />
<rect x="25" y="16" width="1" height="1" fill="#B5A04A" />
<rect x="26" y="16" width="1" height="5" fill="#FFF5CE" />
<rect x="27" y="16" width="7" height="1" fill="#FFFFFF" />
<rect x="34" y="16" width="1" height="2" fill="#FFF5CE" />
<rect x="37" y="16" width="2" height="1" fill="#EFDD92" />
<rect x="39" y="16" width="1" height="4" fill="#B5A04A" />
<rect x="40" y="16" width="6" height="1" fill="#5E3615" />
<rect x="46" y="16" width="1" height="1" fill="#57400A" />
<rect x="14" y="17" width="1" height="1" fill="#57400A" />
<rect x="15" y="17" width="6" height="1" fill="#CE863E" />
<rect x="21" y="17" width="1" height="1" fill="#5E3615" />
<rect x="22" y="17" width="2" height="3" fill="#985722" />
<rect x="24" y="17" width="1" height="4" fill="#B5A04A" />
<rect x="25" y="17" width="1" height="4" fill="#FFF5CE" />
<rect x="27" y="17" width="1" height="2" fill="#EFDD92" />
<rect x="28" y="17" width="6" height="1" fill="#FFF5CE" />
<rect x="35" y="17" width="1" height="1" fill="#EFDD92" />
<rect x="37" y="17" width="1" height="2" fill="#FFF5CE" />
<rect x="38" y="17" width="1" height="3" fill="#EFDD92" />
<rect x="40" y="17" width="6" height="3" fill="#985722" />
<rect x="46" y="17" width="1" height="5" fill="#5E3615" />
<rect x="47" y="17" width="1" height="1" fill="#57400A" />
<rect x="13" y="18" width="1" height="8" fill="#57400A" />
<rect x="14" y="18" width="5" height="1" fill="#CE863E" />
<rect x="19" y="18" width="1" height="1" fill="#D9A066" />
<rect x="20" y="18" width="1" height="1" fill="#5E3615" />
<rect x="21" y="18" width="1" height="2" fill="#985722" />
<rect x="28" y="18" width="7" height="1" fill="#EFDD92" />
<rect x="35" y="18" width="2" height="2" fill="#FFF5CE" />
<rect x="47" y="18" width="1" height="4" fill="#CE863E" />
<rect x="48" y="18" width="1" height="7" fill="#57400A" />
<rect x="14" y="19" width="2" height="1" fill="#CE863E" />
<rect x="16" y="19" width="4" height="1" fill="#5E3615" />
<rect x="20" y="19" width="1" height="3" fill="#985722" />
<rect x="27" y="19" width="1" height="2" fill="#FFFFFF" />
<rect x="28" y="19" width="2" height="1" fill="#FFF5CE" />
<rect x="30" y="19" width="3" height="1" fill="#FFFFFF" />
<rect x="33" y="19" width="2" height="2" fill="#FFF5CE" />
<rect x="37" y="19" width="1" height="2" fill="#EFDD92" />
<rect x="14" y="20" width="1" height="2" fill="#CE863E" />
<rect x="15" y="20" width="1" height="4" fill="#5E3615" />
<rect x="16" y="20" width="4" height="1" fill="#985722" />
<rect x="21" y="20" width="3" height="1" fill="#FF81D0" />
<rect x="28" y="20" width="3" height="1" fill="#FFFFFF" />
<rect x="31" y="20" width="2" height="1" fill="#FFF5CE" />
<rect x="35" y="20" width="1" height="1" fill="#FFF5CE" />
<rect x="36" y="20" width="1" height="2" fill="#EFDD92" />
<rect x="38" y="20" width="1" height="1" fill="#B5A04A" />
<rect x="39" y="20" width="1" height="4" fill="#985722" />
<rect x="40" y="20" width="4" height="1" fill="#FF81D0" />
<rect x="44" y="20" width="2" height="7" fill="#985722" />
<rect x="16" y="21" width="3" height="1" fill="#FFFD81" />
<rect x="19" y="21" width="1" height="2" fill="#985722" />
<rect x="21" y="21" width="1" height="1" fill="#985722" />
<rect x="22" y="21" width="1" height="2" fill="#C6834D" />
<rect x="23" y="21" width="2" height="1" fill="#FF81D0" />
<rect x="25" y="21" width="2" height="1" fill="#B5A04A" />
<rect x="27" y="21" width="4" height="1" fill="#FFF5CE" />
<rect x="31" y="21" width="5" height="1" fill="#EFDD92" />
<rect x="37" y="21" width="1" height="1" fill="#B5A04A" />
<rect x="38" y="21" width="1" height="4" fill="#985722" />
<rect x="40" y="21" width="4" height="2" fill="#985722" />
<rect x="14" y="22" width="1" height="4" fill="#E7AD72" />
<rect x="16" y="22" width="1" height="1" fill="#FFFD81" />
<rect x="17" y="22" width="2" height="1" fill="#C6834D" />
<rect x="20" y="22" width="2" height="1" fill="#C6834D" />
<rect x="23" y="22" width="4" height="2" fill="#985722" />
<rect x="27" y="22" width="6" height="1" fill="#B5A04A" />
<rect x="33" y="22" width="2" height="1" fill="#FFFD81" />
<rect x="35" y="22" width="2" height="1" fill="#B5A04A" />
<rect x="37" y="22" width="1" height="3" fill="#985722" />
<rect x="46" y="22" width="1" height="4" fill="#985722" />
<rect x="47" y="22" width="1" height="3" fill="#5E3615" />
<rect x="16" y="23" width="2" height="1" fill="#985722" />
<rect x="18" y="23" width="3" height="1" fill="#C6834D" />
<rect x="21" y="23" width="2" height="2" fill="#985722" />
<rect x="27" y="23" width="7" height="1" fill="#985722" />
<rect x="34" y="23" width="2" height="1" fill="#FFFD81" />
<rect x="36" y="23" width="1" height="2" fill="#985722" />
<rect x="40" y="23" width="2" height="1" fill="#5E3615" />
<rect x="42" y="23" width="2" height="1" fill="#985722" />
<rect x="15" y="24" width="1" height="2" fill="#E7AD72" />
<rect x="16" y="24" width="2" height="1" fill="#5E3615" />
<rect x="18" y="24" width="3" height="1" fill="#985722" />
<rect x="23" y="24" width="2" height="1" fill="#5E3615" />
<rect x="25" y="24" width="2" height="1" fill="#C9FF81" />
<rect x="27" y="24" width="3" height="1" fill="#985722" />
<rect x="30" y="24" width="4" height="1" fill="#5E3615" />
<rect x="34" y="24" width="2" height="1" fill="#985722" />
<rect x="39" y="24" width="1" height="1" fill="#5E3615" />
<rect x="40" y="24" width="2" height="1" fill="#FCC68F" />
<rect x="42" y="24" width="1" height="1" fill="#5E3615" />
<rect x="43" y="24" width="1" height="1" fill="#985722" />
<rect x="16" y="25" width="2" height="2" fill="#E7AD72" />
<rect x="18" y="25" width="5" height="1" fill="#5E3615" />
<rect x="23" y="25" width="1" height="3" fill="#FCC68F" />
<rect x="24" y="25" width="1" height="3" fill="#5E3615" />
<rect x="25" y="25" width="1" height="4" fill="#985722" />
<rect x="26" y="25" width="2" height="1" fill="#C9FF81" />
<rect x="28" y="25" width="1" height="1" fill="#985722" />
<rect x="29" y="25" width="1" height="1" fill="#5E3615" />
<rect x="30" y="25" width="4" height="3" fill="#FCC68F" />
<rect x="34" y="25" width="5" height="1" fill="#5E3615" />
<rect x="39" y="25" width="1" height="1" fill="#FCC68F" />
<rect x="40" y="25" width="2" height="1" fill="#FFFD81" />
<rect x="42" y="25" width="1" height="3" fill="#FCC68F" />
<rect x="43" y="25" width="1" height="5" fill="#5E3615" />
<rect x="47" y="25" width="1" height="2" fill="#985722" />
<rect x="48" y="25" width="1" height="6" fill="#5E3615" />
<rect x="49" y="25" width="1" height="1" fill="#57400A" />
<rect x="14" y="26" width="2" height="1" fill="#57400A" />
<rect x="18" y="26" width="5" height="2" fill="#FCC68F" />
<rect x="26" y="26" width="2" height="3" fill="#985722" />
<rect x="28" y="26" width="1" height="2" fill="#5E3615" />
<rect x="29" y="26" width="1" height="2" fill="#FCC68F" />
<rect x="34" y="26" width="4" height="2" fill="#FCC68F" />
<rect x="38" y="26" width="3" height="1" fill="#FFFD81" />
<rect x="41" y="26" width="1" height="2" fill="#FCC68F" />
<rect x="46" y="26" width="1" height="1" fill="#C6834D" />
<rect x="49" y="26" width="1" height="4" fill="#CE863E" />
<rect x="50" y="26" width="1" height="8" fill="#57400A" />
<rect x="15" y="27" width="1" height="7" fill="#57400A" />
<rect x="16" y="27" width="1" height="2" fill="#C9FF81" />
<rect x="17" y="27" width="1" height="1" fill="#E7AD72" />
<rect x="38" y="27" width="3" height="1" fill="#FCC68F" />
<rect x="44" y="27" width="1" height="3" fill="#985722" />
<rect x="45" y="27" width="3" height="1" fill="#C9FF81" />
<rect x="17" y="28" width="1" height="2" fill="#C9FF81" />
<rect x="18" y="28" width="5" height="1" fill="#57400A" />
<rect x="23" y="28" width="1" height="8" fill="#5E3615" />
<rect x="24" y="28" width="1" height="2" fill="#985722" />
<rect x="28" y="28" width="1" height="7" fill="#985722" />
<rect x="29" y="28" width="1" height="7" fill="#5E3615" />
<rect x="30" y="28" width="3" height="1" fill="#57400A" />
<rect x="33" y="28" width="2" height="1" fill="#FFFD81" />
<rect x="35" y="28" width="8" height="1" fill="#57400A" />
<rect x="45" y="28" width="1" height="4" fill="#985722" />
<rect x="46" y="28" width="1" height="3" fill="#C6834D" />
<rect x="47" y="28" width="1" height="3" fill="#985722" />
<rect x="16" y="29" width="1" height="1" fill="#CE863E" />
<rect x="18" y="29" width="1" height="1" fill="#C9FF81" />
<rect x="19" y="29" width="2" height="3" fill="#CE863E" />
<rect x="21" y="29" width="2" height="1" fill="#D9A066" />
<rect x="25" y="29" width="2" height="1" fill="#FF81D0" />
<rect x="27" y="29" width="1" height="5" fill="#985722" />
<rect x="30" y="29" width="4" height="3" fill="#D9A066" />
<rect x="34" y="29" width="2" height="1" fill="#FFFD81" />
<rect x="36" y="29" width="7" height="1" fill="#D9A066" />
<rect x="16" y="30" width="3" height="4" fill="#E7AD72" />
<rect x="21" y="30" width="2" height="2" fill="#CE863E" />
<rect x="24" y="30" width="2" height="1" fill="#FF81D0" />
<rect x="26" y="30" width="1" height="4" fill="#985722" />
<rect x="34" y="30" width="7" height="2" fill="#D9A066" />
<rect x="41" y="30" width="3" height="2" fill="#CE863E" />
<rect x="44" y="30" width="1" height="2" fill="#5E3615" />
<rect x="49" y="30" width="1" height="4" fill="#E7AD72" />
<rect x="24" y="31" width="1" height="1" fill="#FF81D0" />
<rect x="25" y="31" width="1" height="5" fill="#C6834D" />
<rect x="46" y="31" width="1" height="1" fill="#985722" />
<rect x="47" y="31" width="1" height="1" fill="#5E3615" />
<rect x="48" y="31" width="1" height="3" fill="#E7AD72" />
<rect x="14" y="32" width="1" height="1" fill="#57400A" />
<rect x="19" y="32" width="1" height="4" fill="#E7AD72" />
<rect x="20" y="32" width="3" height="4" fill="#FCC68F" />
<rect x="24" y="32" width="1" height="4" fill="#985722" />
<rect x="30" y="32" width="15" height="4" fill="#FCC68F" />
<rect x="45" y="32" width="2" height="1" fill="#5E3615" />
<rect x="47" y="32" width="1" height="4" fill="#E7AD72" />
<rect x="13" y="33" width="1" height="8" fill="#57400A" />
<rect x="14" y="33" width="1" height="4" fill="#CE863E" />
<rect x="45" y="33" width="1" height="3" fill="#FCC68F" />
<rect x="46" y="33" width="1" height="3" fill="#E7AD72" />
<rect x="15" y="34" width="1" height="3" fill="#CE863E" />
<rect x="16" y="34" width="2" height="1" fill="#57400A" />
<rect x="18" y="34" width="1" height="2" fill="#E7AD72" />
<rect x="26" y="34" width="2" height="1" fill="#C9FF81" />
<rect x="48" y="34" width="2" height="1" fill="#57400A" />
<rect x="16" y="35" width="1" height="2" fill="#CE863E" />
<rect x="17" y="35" width="1" height="1" fill="#57400A" />
<rect x="26" y="35" width="1" height="1" fill="#C6834D" />
<rect x="27" y="35" width="1" height="2" fill="#985722" />
<rect x="28" y="35" width="1" height="2" fill="#5E3615" />
<rect x="29" y="35" width="1" height="1" fill="#FCC68F" />
<rect x="48" y="35" width="1" height="6" fill="#57400A" />
<rect x="17" y="36" width="1" height="3" fill="#CE863E" />
<rect x="18" y="36" width="6" height="1" fill="#57400A" />
<rect x="24" y="36" width="1" height="1" fill="#5E3615" />
<rect x="25" y="36" width="2" height="1" fill="#985722" />
<rect x="29" y="36" width="19" height="1" fill="#57400A" />
<rect x="14" y="37" width="3" height="4" fill="#E7AD72" />
<rect x="18" y="37" width="5" height="2" fill="#CE863E" />
<rect x="23" y="37" width="2" height="2" fill="#D9A066" />
<rect x="25" y="37" width="3" height="1" fill="#5E3615" />
<rect x="28" y="37" width="11" height="2" fill="#D9A066" />
<rect x="39" y="37" width="6" height="2" fill="#CE863E" />
<rect x="45" y="37" width="3" height="4" fill="#E7AD72" />
<rect x="25" y="38" width="3" height="1" fill="#D9A066" />
<rect x="17" y="39" width="1" height="4" fill="#E7AD72" />
<rect x="18" y="39" width="26" height="4" fill="#FCC68F" />
<rect x="44" y="39" width="1" height="4" fill="#E7AD72" />
<rect x="49" y="40" width="1" height="8" fill="#57400A" />
<rect x="14" y="41" width="2" height="2" fill="#57400A" />
<rect x="16" y="41" width="1" height="2" fill="#E7AD72" />
<rect x="45" y="41" width="1" height="2" fill="#E7AD72" />
<rect x="46" y="41" width="2" height="1" fill="#57400A" />
<rect x="48" y="41" width="1" height="3" fill="#CE863E" />
<rect x="46" y="42" width="1" height="1" fill="#57400A" />
<rect x="47" y="42" width="1" height="2" fill="#CE863E" />
<rect x="14" y="43" width="1" height="5" fill="#57400A" />
<rect x="15" y="43" width="1" height="1" fill="#CE863E" />
<rect x="16" y="43" width="30" height="1" fill="#57400A" />
<rect x="46" y="43" width="1" height="1" fill="#CE863E" />
<rect x="15" y="44" width="3" height="4" fill="#E7AD72" />
<rect x="18" y="44" width="6" height="2" fill="#CE863E" />
<rect x="24" y="44" width="16" height="2" fill="#D9A066" />
<rect x="40" y="44" width="6" height="2" fill="#CE863E" />
<rect x="46" y="44" width="3" height="4" fill="#E7AD72" />
<rect x="12" y="46" width="2" height="1" fill="#222034" />
<rect x="18" y="46" width="1" height="4" fill="#E7AD72" />
<rect x="19" y="46" width="26" height="4" fill="#FCC68F" />
<rect x="45" y="46" width="1" height="4" fill="#E7AD72" />
<rect x="50" y="46" width="2" height="1" fill="#222034" />
<rect x="11" y="47" width="1" height="3" fill="#222034" />
<rect x="12" y="47" width="2" height="3" fill="#9BADB7" />
<rect x="50" y="47" width="2" height="3" fill="#9BADB7" />
<rect x="52" y="47" width="1" height="3" fill="#222034" />
<rect x="14" y="48" width="1" height="3" fill="#9BADB7" />
<rect x="15" y="48" width="2" height="1" fill="#57400A" />
<rect x="17" y="48" width="1" height="2" fill="#E7AD72" />
<rect x="46" y="48" width="1" height="2" fill="#E7AD72" />
<rect x="47" y="48" width="2" height="1" fill="#57400A" />
<rect x="49" y="48" width="1" height="3" fill="#9BADB7" />
<rect x="15" y="49" width="1" height="2" fill="#9BADB7" />
<rect x="16" y="49" width="1" height="1" fill="#57400A" />
<rect x="47" y="49" width="1" height="1" fill="#57400A" />
<rect x="48" y="49" width="1" height="2" fill="#9BADB7" />
<rect x="12" y="50" width="2" height="1" fill="#222034" />
<rect x="16" y="50" width="1" height="1" fill="#9BADB7" />
<rect x="17" y="50" width="30" height="1" fill="#57400A" />
<rect x="47" y="50" width="1" height="1" fill="#9BADB7" />
<rect x="50" y="50" width="2" height="1" fill="#222034" />
<rect x="14" y="51" width="3" height="1" fill="#222034" />
<rect x="17" y="51" width="2" height="1" fill="#9BADB7" />
<rect x="19" y="51" width="5" height="1" fill="#BFC9CE" />
<rect x="24" y="51" width="16" height="1" fill="#ECF3F7" />
<rect x="40" y="51" width="5" height="1" fill="#BFC9CE" />
<rect x="45" y="51" width="2" height="1" fill="#9BADB7" />
<rect x="47" y="51" width="3" height="1" fill="#222034" />
<rect x="17" y="52" width="30" height="1" fill="#222034" />
</svg>