<?xml version="1.0" encoding="UTF-8" ?>
<svg version="1.1" width="64" height="128" xmlns="http://www.w3.org/2000/svg" shape-rendering="crispEdges">
<rect x="8" y="17" width="48" height="2" fill="#B31367" />
<rect x="6" y="19" width="2" height="2" fill="#B31367" />
<rect x="8" y="19" width="48" height="9" fill="#D1619C" />
<rect x="56" y="19" width="2" height="2" fill="#B31367" />
<rect x="4" y="21" width="2" height="15" fill="#B31367" />
<rect x="6" y="21" width="2" height="9" fill="#D1619C" />
<rect x="56" y="21" width="2" height="9" fill="#D1619C" />
<rect x="58" y="21" width="2" height="15" fill="#B31367" />
<rect x="8" y="28" width="48" height="2" fill="#B31367" />
<rect x="6" y="30" width="2" height="2" fill="#B31367" />
<rect x="8" y="30" width="48" height="4" fill="#EC9BC7" />
<rect x="56" y="30" width="2" height="2" fill="#B31367" />
<rect x="6" y="32" width="2" height="2" fill="#EC9BC7" />
<rect x="56" y="32" width="2" height="2" fill="#EC9BC7" />
<rect x="6" y="34" width="1" height="1" fill="#EC9BC7" />
<rect x="7" y="34" width="50" height="1" fill="#D1619C" />
<rect x="57" y="34" width="1" height="1" fill="#EC9BC7" />
<rect x="6" y="35" width="1" height="1" fill="#D1619C" />
<rect x="7" y="35" width="50" height="2" fill="#EC9BC7" />
<rect x="57" y="35" width="1" height="1" fill="#D1619C" />
<rect x="4" y="36" width="2" height="80" fill="#D1619C" />
<rect x="6" y="36" width="1" height="37" fill="#EC9BC7" />
<rect x="57" y="36" width="1" height="37" fill="#EC9BC7" />
<rect x="58" y="36" width="2" height="80" fill="#D1619C" />
<rect x="7" y="37" width="5" height="2" fill="#EC9BC7" />
<rect x="12" y="37" width="40" height="2" fill="#FAC2E0" />
<rect x="52" y="37" width="5" height="2" fill="#EC9BC7" />
<rect x="7" y="39" width="3" height="2" fill="#EC9BC7" />
<rect x="10" y="39" width="2" height="2" fill="#FAC2E0" />
<rect x="12" y="39" width="40" height="2" fill="#EC9BC7" />
<rect x="52" y="39" width="2" height="2" fill="#FAC2E0" />
<rect x="54" y="39" width="3" height="2" fill="#EC9BC7" />
<rect x="7" y="41" width="1" height="32" fill="#EC9BC7" />
<rect x="8" y="41" width="2" height="26" fill="#FAC2E0" />
<rect x="10" y="41" width="9" height="1" fill="#EC9BC7" />
<rect x="19" y="41" width="6" height="2" fill="#2F3C31" />
<rect x="25" y="41" width="14" height="1" fill="#EC9BC7" />
<rect x="39" y="41" width="6" height="2" fill="#2F3C31" />
<rect x="45" y="41" width="9" height="1" fill="#EC9BC7" />
<rect x="54" y="41" width="2" height="26" fill="#FAC2E0" />
<rect x="56" y="41" width="1" height="32" fill="#EC9BC7" />
<rect x="10" y="42" width="8" height="1" fill="#EC9BC7" />
<rect x="18" y="42" width="1" height="3" fill="#2F3C31" />
<rect x="25" y="42" width="2" height="2" fill="#2F3C31" />
<rect x="27" y="42" width="10" height="1" fill="#EC9BC7" />
<rect x="37" y="42" width="2" height="2" fill="#2F3C31" />
<rect x="45" y="42" width="1" height="3" fill="#2F3C31" />
<rect x="46" y="42" width="8" height="1" fill="#EC9BC7" />
<rect x="10" y="43" width="6" height="2" fill="#EC9BC7" />
<rect x="16" y="43" width="2" height="3" fill="#2F3C31" />
<rect x="19" y="43" width="1" height="1" fill="#2F3C31" />
<rect x="20" y="43" width="4" height="2" fill="#616462" />
<rect x="24" y="43" width="1" height="1" fill="#2F3C31" />
<rect x="27" y="43" width="1" height="3" fill="#2F3C31" />
<rect x="28" y="43" width="8" height="1" fill="#EC9BC7" />
<rect x="36" y="43" width="1" height="3" fill="#2F3C31" />
<rect x="39" y="43" width="1" height="1" fill="#2F3C31" />
<rect x="40" y="43" width="4" height="2" fill="#616462" />
<rect x="44" y="43" width="1" height="1" fill="#2F3C31" />
<rect x="46" y="43" width="2" height="3" fill="#2F3C31" />
<rect x="48" y="43" width="6" height="2" fill="#EC9BC7" />
<rect x="19" y="44" width="1" height="3" fill="#616462" />
<rect x="24" y="44" width="2" height="2" fill="#616462" />
<rect x="26" y="44" width="1" height="1" fill="#2F3C31" />
<rect x="28" y="44" width="1" height="3" fill="#2F3C31" />
<rect x="29" y="44" width="6" height="1" fill="#EC9BC7" />
<rect x="35" y="44" width="1" height="3" fill="#2F3C31" />
<rect x="37" y="44" width="1" height="1" fill="#2F3C31" />
<rect x="38" y="44" width="2" height="2" fill="#616462" />
<rect x="44" y="44" width="1" height="3" fill="#616462" />
<rect x="10" y="45" width="5" height="22" fill="#EC9BC7" />
<rect x="15" y="45" width="1" height="9" fill="#2F3C31" />
<rect x="18" y="45" width="1" height="3" fill="#616462" />
<rect x="20" y="45" width="1" height="1" fill="#616462" />
<rect x="21" y="45" width="3" height="1" fill="#CE8794" />
<rect x="26" y="45" width="1" height="2" fill="#616462" />
<rect x="29" y="45" width="1" height="4" fill="#2F3C31" />
<rect x="30" y="45" width="4" height="2" fill="#EC9BC7" />
<rect x="34" y="45" width="1" height="4" fill="#2F3C31" />
<rect x="37" y="45" width="1" height="2" fill="#616462" />
<rect x="40" y="45" width="3" height="1" fill="#CE8794" />
<rect x="43" y="45" width="1" height="1" fill="#616462" />
<rect x="45" y="45" width="1" height="3" fill="#616462" />
<rect x="48" y="45" width="1" height="9" fill="#2F3C31" />
<rect x="49" y="45" width="5" height="22" fill="#EC9BC7" />
<rect x="16" y="46" width="1" height="9" fill="#2F3C31" />
<rect x="17" y="46" width="1" height="7" fill="#616462" />
<rect x="20" y="46" width="1" height="1" fill="#CE8794" />
<rect x="21" y="46" width="3" height="1" fill="#F75C78" />
<rect x="24" y="46" width="2" height="1" fill="#CE8794" />
<rect x="27" y="46" width="1" height="2" fill="#616462" />
<rect x="36" y="46" width="1" height="2" fill="#616462" />
<rect x="38" y="46" width="2" height="1" fill="#CE8794" />
<rect x="40" y="46" width="3" height="1" fill="#F75C78" />
<rect x="43" y="46" width="1" height="1" fill="#CE8794" />
<rect x="46" y="46" width="1" height="7" fill="#616462" />
<rect x="47" y="46" width="1" height="9" fill="#2F3C31" />
<rect x="19" y="47" width="1" height="1" fill="#CE8794" />
<rect x="20" y="47" width="1" height="1" fill="#F75C78" />
<rect x="21" y="47" width="3" height="3" fill="#EC1239" />
<rect x="24" y="47" width="2" height="1" fill="#F75C78" />
<rect x="26" y="47" width="1" height="1" fill="#CE8794" />
<rect x="28" y="47" width="1" height="2" fill="#616462" />
<rect x="30" y="47" width="1" height="3" fill="#2F3C31" />
<rect x="31" y="47" width="2" height="1" fill="#EC9BC7" />
<rect x="33" y="47" width="1" height="3" fill="#2F3C31" />
<rect x="35" y="47" width="1" height="2" fill="#616462" />
<rect x="37" y="47" width="1" height="1" fill="#CE8794" />
<rect x="38" y="47" width="2" height="1" fill="#F75C78" />
<rect x="40" y="47" width="3" height="3" fill="#EC1239" />
<rect x="43" y="47" width="1" height="1" fill="#F75C78" />
<rect x="44" y="47" width="1" height="1" fill="#CE8794" />
<rect x="18" y="48" width="1" height="5" fill="#CE8794" />
<rect x="19" y="48" width="1" height="5" fill="#F75C78" />
<rect x="20" y="48" width="1" height="5" fill="#EC1239" />
<rect x="24" y="48" width="2" height="2" fill="#EC1239" />
<rect x="26" y="48" width="1" height="1" fill="#F75C78" />
<rect x="27" y="48" width="1" height="1" fill="#CE8794" />
<rect x="31" y="48" width="2" height="3" fill="#2F3C31" />
<rect x="36" y="48" width="1" height="1" fill="#CE8794" />
<rect x="37" y="48" width="1" height="1" fill="#F75C78" />
<rect x="38" y="48" width="2" height="2" fill="#EC1239" />
<rect x="43" y="48" width="1" height="5" fill="#EC1239" />
<rect x="44" y="48" width="1" height="5" fill="#F75C78" />
<rect x="45" y="48" width="1" height="5" fill="#CE8794" />
<rect x="26" y="49" width="1" height="2" fill="#EC1239" />
<rect x="27" y="49" width="1" height="1" fill="#F75C78" />
<rect x="28" y="49" width="2" height="1" fill="#CE8794" />
<rect x="34" y="49" width="2" height="1" fill="#CE8794" />
<rect x="36" y="49" width="1" height="1" fill="#F75C78" />
<rect x="37" y="49" width="1" height="2" fill="#EC1239" />
<rect x="21" y="50" width="1" height="4" fill="#EC1239" />
<rect x="22" y="50" width="4" height="2" fill="#EC6012" />
<rect x="27" y="50" width="1" height="2" fill="#EC1239" />
<rect x="28" y="50" width="2" height="1" fill="#F75C78" />
<rect x="30" y="50" width="1" height="1" fill="#CE8794" />
<rect x="33" y="50" width="1" height="1" fill="#CE8794" />
<rect x="34" y="50" width="2" height="1" fill="#F75C78" />
<rect x="36" y="50" width="1" height="2" fill="#EC1239" />
<rect x="38" y="50" width="4" height="2" fill="#EC6012" />
<rect x="42" y="50" width="1" height="4" fill="#EC1239" />
<rect x="26" y="51" width="1" height="7" fill="#EC6012" />
<rect x="28" y="51" width="2" height="2" fill="#EC1239" />
<rect x="30" y="51" width="1" height="1" fill="#F75C78" />
<rect x="31" y="51" width="2" height="1" fill="#CE8794" />
<rect x="33" y="51" width="1" height="1" fill="#F75C78" />
<rect x="34" y="51" width="2" height="2" fill="#EC1239" />
<rect x="37" y="51" width="1" height="7" fill="#EC6012" />
<rect x="22" y="52" width="1" height="4" fill="#EC1239" />
<rect x="23" y="52" width="3" height="1" fill="#EC6012" />
<rect x="27" y="52" width="1" height="7" fill="#EC6012" />
<rect x="30" y="52" width="1" height="2" fill="#EC1239" />
<rect x="31" y="52" width="2" height="2" fill="#F75C78" />
<rect x="33" y="52" width="1" height="2" fill="#EC1239" />
<rect x="36" y="52" width="1" height="7" fill="#EC6012" />
<rect x="38" y="52" width="3" height="1" fill="#EC6012" />
<rect x="41" y="52" width="1" height="4" fill="#EC1239" />
<rect x="17" y="53" width="1" height="4" fill="#2F3C31" />
<rect x="18" y="53" width="1" height="1" fill="#616462" />
<rect x="19" y="53" width="1" height="1" fill="#CE8794" />
<rect x="20" y="53" width="1" height="1" fill="#F75C78" />
<rect x="23" y="53" width="1" height="4" fill="#EC1239" />
<rect x="24" y="53" width="2" height="2" fill="#EC6012" />
<rect x="28" y="53" width="2" height="7" fill="#EC6012" />
<rect x="34" y="53" width="2" height="7" fill="#EC6012" />
<rect x="38" y="53" width="2" height="2" fill="#EC6012" />
<rect x="40" y="53" width="1" height="4" fill="#EC1239" />
<rect x="43" y="53" width="1" height="1" fill="#F75C78" />
<rect x="44" y="53" width="1" height="1" fill="#CE8794" />
<rect x="45" y="53" width="1" height="1" fill="#616462" />
<rect x="46" y="53" width="1" height="4" fill="#2F3C31" />
<rect x="15" y="54" width="1" height="15" fill="#EC9BC7" />
<rect x="18" y="54" width="1" height="4" fill="#2F3C31" />
<rect x="19" y="54" width="1" height="1" fill="#616462" />
<rect x="20" y="54" width="1" height="2" fill="#CE8794" />
<rect x="21" y="54" width="1" height="2" fill="#F75C78" />
<rect x="30" y="54" width="1" height="7" fill="#EC6012" />
<rect x="31" y="54" width="2" height="1" fill="#EC1239" />
<rect x="33" y="54" width="1" height="7" fill="#EC6012" />
<rect x="42" y="54" width="1" height="2" fill="#F75C78" />
<rect x="43" y="54" width="1" height="2" fill="#CE8794" />
<rect x="44" y="54" width="1" height="1" fill="#616462" />
<rect x="45" y="54" width="1" height="4" fill="#2F3C31" />
<rect x="48" y="54" width="1" height="15" fill="#EC9BC7" />
<rect x="16" y="55" width="1" height="14" fill="#EC9BC7" />
<rect x="19" y="55" width="1" height="4" fill="#2F3C31" />
<rect x="24" y="55" width="1" height="3" fill="#EC1239" />
<rect x="25" y="55" width="1" height="2" fill="#EC6012" />
<rect x="31" y="55" width="2" height="6" fill="#EC6012" />
<rect x="38" y="55" width="1" height="2" fill="#EC6012" />
<rect x="39" y="55" width="1" height="3" fill="#EC1239" />
<rect x="44" y="55" width="1" height="4" fill="#2F3C31" />
<rect x="47" y="55" width="1" height="14" fill="#EC9BC7" />
<rect x="20" y="56" width="1" height="1" fill="#616462" />
<rect x="21" y="56" width="1" height="1" fill="#CE8794" />
<rect x="22" y="56" width="1" height="1" fill="#F75C78" />
<rect x="41" y="56" width="1" height="1" fill="#F75C78" />
<rect x="42" y="56" width="1" height="1" fill="#CE8794" />
<rect x="43" y="56" width="1" height="1" fill="#616462" />
<rect x="17" y="57" width="1" height="12" fill="#EC9BC7" />
<rect x="20" y="57" width="1" height="3" fill="#2F3C31" />
<rect x="21" y="57" width="1" height="1" fill="#616462" />
<rect x="22" y="57" width="1" height="1" fill="#CE8794" />
<rect x="23" y="57" width="1" height="1" fill="#F75C78" />
<rect x="25" y="57" width="1" height="2" fill="#EC1239" />
<rect x="38" y="57" width="1" height="2" fill="#EC1239" />
<rect x="40" y="57" width="1" height="1" fill="#F75C78" />
<rect x="41" y="57" width="1" height="1" fill="#CE8794" />
<rect x="42" y="57" width="1" height="1" fill="#616462" />
<rect x="43" y="57" width="1" height="3" fill="#2F3C31" />
<rect x="46" y="57" width="1" height="12" fill="#EC9BC7" />
<rect x="18" y="58" width="1" height="11" fill="#EC9BC7" />
<rect x="21" y="58" width="1" height="3" fill="#2F3C31" />
<rect x="22" y="58" width="1" height="1" fill="#616462" />
<rect x="23" y="58" width="1" height="1" fill="#CE8794" />
<rect x="24" y="58" width="1" height="1" fill="#F75C78" />
<rect x="26" y="58" width="1" height="1" fill="#EC1239" />
<rect x="37" y="58" width="1" height="1" fill="#EC1239" />
<rect x="39" y="58" width="1" height="1" fill="#F75C78" />
<rect x="40" y="58" width="1" height="1" fill="#CE8794" />
<rect x="41" y="58" width="1" height="1" fill="#616462" />
<rect x="42" y="58" width="1" height="3" fill="#2F3C31" />
<rect x="45" y="58" width="1" height="11" fill="#EC9BC7" />
<rect x="19" y="59" width="1" height="10" fill="#EC9BC7" />
<rect x="22" y="59" width="1" height="3" fill="#2F3C31" />
<rect x="23" y="59" width="1" height="1" fill="#616462" />
<rect x="24" y="59" width="1" height="1" fill="#CE8794" />
<rect x="25" y="59" width="2" height="1" fill="#F75C78" />
<rect x="27" y="59" width="1" height="1" fill="#EC1239" />
<rect x="36" y="59" width="1" height="1" fill="#EC1239" />
<rect x="37" y="59" width="2" height="1" fill="#F75C78" />
<rect x="39" y="59" width="1" height="1" fill="#CE8794" />
<rect x="40" y="59" width="1" height="1" fill="#616462" />
<rect x="41" y="59" width="1" height="3" fill="#2F3C31" />
<rect x="44" y="59" width="1" height="10" fill="#EC9BC7" />
<rect x="20" y="60" width="1" height="9" fill="#EC9BC7" />
<rect x="23" y="60" width="1" height="3" fill="#2F3C31" />
<rect x="24" y="60" width="1" height="1" fill="#616462" />
<rect x="25" y="60" width="2" height="1" fill="#CE8794" />
<rect x="27" y="60" width="1" height="1" fill="#F75C78" />
<rect x="28" y="60" width="1" height="1" fill="#EC1239" />
<rect x="29" y="60" width="1" height="1" fill="#EC6012" />
<rect x="34" y="60" width="1" height="1" fill="#EC6012" />
<rect x="35" y="60" width="1" height="1" fill="#EC1239" />
<rect x="36" y="60" width="1" height="1" fill="#F75C78" />
<rect x="37" y="60" width="2" height="1" fill="#CE8794" />
<rect x="39" y="60" width="1" height="1" fill="#616462" />
<rect x="40" y="60" width="1" height="3" fill="#2F3C31" />
<rect x="43" y="60" width="1" height="9" fill="#EC9BC7" />
<rect x="21" y="61" width="1" height="8" fill="#EC9BC7" />
<rect x="24" y="61" width="1" height="3" fill="#2F3C31" />
<rect x="25" y="61" width="2" height="1" fill="#616462" />
<rect x="27" y="61" width="1" height="1" fill="#CE8794" />
<rect x="28" y="61" width="1" height="1" fill="#F75C78" />
<rect x="29" y="61" width="6" height="1" fill="#EC1239" />
<rect x="35" y="61" width="1" height="1" fill="#F75C78" />
<rect x="36" y="61" width="1" height="1" fill="#CE8794" />
<rect x="37" y="61" width="2" height="1" fill="#616462" />
<rect x="39" y="61" width="1" height="3" fill="#2F3C31" />
<rect x="42" y="61" width="1" height="8" fill="#EC9BC7" />
<rect x="22" y="62" width="1" height="7" fill="#EC9BC7" />
<rect x="25" y="62" width="1" height="3" fill="#2F3C31" />
<rect x="26" y="62" width="2" height="1" fill="#616462" />
<rect x="28" y="62" width="1" height="1" fill="#CE8794" />
<rect x="29" y="62" width="1" height="1" fill="#F75C78" />
<rect x="30" y="62" width="4" height="1" fill="#EC1239" />
<rect x="34" y="62" width="1" height="1" fill="#F75C78" />
<rect x="35" y="62" width="1" height="1" fill="#CE8794" />
<rect x="36" y="62" width="2" height="1" fill="#616462" />
<rect x="38" y="62" width="1" height="3" fill="#2F3C31" />
<rect x="41" y="62" width="1" height="7" fill="#EC9BC7" />
<rect x="23" y="63" width="1" height="6" fill="#EC9BC7" />
<rect x="26" y="63" width="2" height="2" fill="#2F3C31" />
<rect x="28" y="63" width="1" height="1" fill="#616462" />
<rect x="29" y="63" width="1" height="1" fill="#CE8794" />
<rect x="30" y="63" width="4" height="1" fill="#F75C78" />
<rect x="34" y="63" width="1" height="1" fill="#CE8794" />
<rect x="35" y="63" width="1" height="1" fill="#616462" />
<rect x="36" y="63" width="2" height="2" fill="#2F3C31" />
<rect x="40" y="63" width="1" height="6" fill="#EC9BC7" />
<rect x="24" y="64" width="1" height="5" fill="#EC9BC7" />
<rect x="28" y="64" width="1" height="3" fill="#2F3C31" />
<rect x="29" y="64" width="1" height="1" fill="#616462" />
<rect x="30" y="64" width="4" height="1" fill="#CE8794" />
<rect x="34" y="64" width="1" height="1" fill="#616462" />
<rect x="35" y="64" width="1" height="3" fill="#2F3C31" />
<rect x="39" y="64" width="1" height="5" fill="#EC9BC7" />
<rect x="25" y="65" width="2" height="4" fill="#EC9BC7" />
<rect x="27" y="65" width="1" height="1" fill="#2F3C31" />
<rect x="29" y="65" width="1" height="3" fill="#2F3C31" />
<rect x="30" y="65" width="4" height="1" fill="#616462" />
<rect x="34" y="65" width="1" height="3" fill="#2F3C31" />
<rect x="36" y="65" width="1" height="1" fill="#2F3C31" />
<rect x="37" y="65" width="2" height="4" fill="#EC9BC7" />
<rect x="27" y="66" width="1" height="3" fill="#EC9BC7" />
<rect x="30" y="66" width="4" height="2" fill="#2F3C31" />
<rect x="36" y="66" width="1" height="3" fill="#EC9BC7" />
<rect x="8" y="67" width="2" height="6" fill="#EC9BC7" />
<rect x="10" y="67" width="2" height="2" fill="#FAC2E0" />
<rect x="12" y="67" width="3" height="2" fill="#EC9BC7" />
<rect x="28" y="67" width="1" height="2" fill="#EC9BC7" />
<rect x="35" y="67" width="1" height="2" fill="#EC9BC7" />
<rect x="49" y="67" width="3" height="2" fill="#EC9BC7" />
<rect x="52" y="67" width="2" height="2" fill="#FAC2E0" />
<rect x="54" y="67" width="2" height="6" fill="#EC9BC7" />
<rect x="29" y="68" width="6" height="1" fill="#EC9BC7" />
<rect x="10" y="69" width="2" height="5" fill="#EC9BC7" />
<rect x="12" y="69" width="40" height="2" fill="#FAC2E0" />
<rect x="52" y="69" width="2" height="5" fill="#EC9BC7" />
<rect x="12" y="71" width="40" height="3" fill="#EC9BC7" />
<rect x="6" y="73" width="4" height="2" fill="#D1619C" />
<rect x="54" y="73" width="4" height="2" fill="#D1619C" />
<rect x="10" y="74" width="44" height="1" fill="#D1619C" />
<rect x="6" y="75" width="52" height="3" fill="#EC9BC7" />
<rect x="6" y="78" width="6" height="2" fill="#EC9BC7" />
<rect x="12" y="78" width="40" height="2" fill="#FAC2E0" />
<rect x="52" y="78" width="6" height="2" fill="#EC9BC7" />
<rect x="6" y="80" width="4" height="2" fill="#EC9BC7" />
<rect x="10" y="80" width="2" height="2" fill="#FAC2E0" />
<rect x="12" y="80" width="40" height="3" fill="#EC9BC7" />
<rect x="52" y="80" width="2" height="2" fill="#FAC2E0" />
<rect x="54" y="80" width="4" height="2" fill="#EC9BC7" />
<rect x="6" y="82" width="2" height="34" fill="#EC9BC7" />
<rect x="8" y="82" width="2" height="27" fill="#FAC2E0" />
<rect x="10" y="82" width="2" height="27" fill="#EC9BC7" />
<rect x="52" y="82" width="2" height="27" fill="#EC9BC7" />
<rect x="54" y="82" width="2" height="27" fill="#FAC2E0" />
<rect x="56" y="82" width="2" height="34" fill="#EC9BC7" />
<rect x="12" y="83" width="7" height="1" fill="#EC9BC7" />
<rect x="19" y="83" width="6" height="2" fill="#2F3C31" />
<rect x="25" y="83" width="14" height="1" fill="#EC9BC7" />
<rect x="39" y="83" width="6" height="2" fill="#2F3C31" />
<rect x="45" y="83" width="7" height="1" fill="#EC9BC7" />
<rect x="12" y="84" width="6" height="1" fill="#EC9BC7" />
<rect x="18" y="84" width="1" height="3" fill="#2F3C31" />
<rect x="25" y="84" width="2" height="2" fill="#2F3C31" />
<rect x="27" y="84" width="10" height="1" fill="#EC9BC7" />
<rect x="37" y="84" width="2" height="2" fill="#2F3C31" />
<rect x="45" y="84" width="1" height="3" fill="#2F3C31" />
<rect x="46" y="84" width="6" height="1" fill="#EC9BC7" />
<rect x="12" y="85" width="4" height="2" fill="#EC9BC7" />
<rect x="16" y="85" width="2" height="3" fill="#2F3C31" />
<rect x="19" y="85" width="1" height="1" fill="#2F3C31" />
<rect x="20" y="85" width="4" height="14" fill="#616462" />
<rect x="24" y="85" width="1" height="1" fill="#2F3C31" />
<rect x="27" y="85" width="1" height="3" fill="#2F3C31" />
<rect x="28" y="85" width="8" height="1" fill="#EC9BC7" />
<rect x="36" y="85" width="1" height="3" fill="#2F3C31" />
<rect x="39" y="85" width="1" height="1" fill="#2F3C31" />
<rect x="40" y="85" width="4" height="14" fill="#616462" />
<rect x="44" y="85" width="1" height="1" fill="#2F3C31" />
<rect x="46" y="85" width="2" height="3" fill="#2F3C31" />
<rect x="48" y="85" width="4" height="2" fill="#EC9BC7" />
<rect x="19" y="86" width="1" height="11" fill="#616462" />
<rect x="24" y="86" width="2" height="17" fill="#616462" />
<rect x="26" y="86" width="1" height="1" fill="#2F3C31" />
<rect x="28" y="86" width="1" height="3" fill="#2F3C31" />
<rect x="29" y="86" width="6" height="1" fill="#EC9BC7" />
<rect x="35" y="86" width="1" height="3" fill="#2F3C31" />
<rect x="37" y="86" width="1" height="1" fill="#2F3C31" />
<rect x="38" y="86" width="2" height="17" fill="#616462" />
<rect x="44" y="86" width="1" height="11" fill="#616462" />
<rect x="12" y="87" width="3" height="24" fill="#EC9BC7" />
<rect x="15" y="87" width="1" height="9" fill="#2F3C31" />
<rect x="18" y="87" width="1" height="9" fill="#616462" />
<rect x="26" y="87" width="1" height="18" fill="#616462" />
<rect x="29" y="87" width="1" height="4" fill="#2F3C31" />
<rect x="30" y="87" width="4" height="2" fill="#EC9BC7" />
<rect x="34" y="87" width="1" height="4" fill="#2F3C31" />
<rect x="37" y="87" width="1" height="18" fill="#616462" />
<rect x="45" y="87" width="1" height="9" fill="#616462" />
<rect x="48" y="87" width="1" height="9" fill="#2F3C31" />
<rect x="49" y="87" width="3" height="24" fill="#EC9BC7" />
<rect x="16" y="88" width="1" height="9" fill="#2F3C31" />
<rect x="17" y="88" width="1" height="7" fill="#616462" />
<rect x="27" y="88" width="1" height="17" fill="#616462" />
<rect x="36" y="88" width="1" height="17" fill="#616462" />
<rect x="46" y="88" width="1" height="7" fill="#616462" />
<rect x="47" y="88" width="1" height="9" fill="#2F3C31" />
<rect x="28" y="89" width="1" height="17" fill="#616462" />
<rect x="30" y="89" width="1" height="3" fill="#2F3C31" />
<rect x="31" y="89" width="2" height="1" fill="#EC9BC7" />
<rect x="33" y="89" width="1" height="3" fill="#2F3C31" />
<rect x="35" y="89" width="1" height="17" fill="#616462" />
<rect x="31" y="90" width="2" height="3" fill="#2F3C31" />
<rect x="29" y="91" width="1" height="16" fill="#616462" />
<rect x="34" y="91" width="1" height="16" fill="#616462" />
<rect x="30" y="92" width="1" height="16" fill="#616462" />
<rect x="33" y="92" width="1" height="16" fill="#616462" />
<rect x="31" y="93" width="2" height="15" fill="#616462" />
<rect x="17" y="95" width="1" height="4" fill="#2F3C31" />
<rect x="46" y="95" width="1" height="4" fill="#2F3C31" />
<rect x="15" y="96" width="1" height="15" fill="#EC9BC7" />
<rect x="18" y="96" width="1" height="4" fill="#2F3C31" />
<rect x="45" y="96" width="1" height="4" fill="#2F3C31" />
<rect x="48" y="96" width="1" height="15" fill="#EC9BC7" />
<rect x="16" y="97" width="1" height="14" fill="#EC9BC7" />
<rect x="19" y="97" width="1" height="4" fill="#2F3C31" />
<rect x="44" y="97" width="1" height="4" fill="#2F3C31" />
<rect x="47" y="97" width="1" height="14" fill="#EC9BC7" />
<rect x="17" y="99" width="1" height="12" fill="#EC9BC7" />
<rect x="20" y="99" width="1" height="3" fill="#2F3C31" />
<rect x="21" y="99" width="3" height="1" fill="#616462" />
<rect x="40" y="99" width="3" height="1" fill="#616462" />
<rect x="43" y="99" width="1" height="3" fill="#2F3C31" />
<rect x="46" y="99" width="1" height="12" fill="#EC9BC7" />
<rect x="18" y="100" width="1" height="11" fill="#EC9BC7" />
<rect x="21" y="100" width="1" height="3" fill="#2F3C31" />
<rect x="22" y="100" width="2" height="1" fill="#616462" />
<rect x="40" y="100" width="2" height="1" fill="#616462" />
<rect x="42" y="100" width="1" height="3" fill="#2F3C31" />
<rect x="45" y="100" width="1" height="11" fill="#EC9BC7" />
<rect x="19" y="101" width="1" height="10" fill="#EC9BC7" />
<rect x="22" y="101" width="1" height="3" fill="#2F3C31" />
<rect x="23" y="101" width="1" height="1" fill="#616462" />
<rect x="40" y="101" width="1" height="1" fill="#616462" />
<rect x="41" y="101" width="1" height="3" fill="#2F3C31" />
<rect x="44" y="101" width="1" height="10" fill="#EC9BC7" />
<rect x="20" y="102" width="1" height="9" fill="#EC9BC7" />
<rect x="23" y="102" width="1" height="3" fill="#2F3C31" />
<rect x="40" y="102" width="1" height="3" fill="#2F3C31" />
<rect x="43" y="102" width="1" height="9" fill="#EC9BC7" />
<rect x="21" y="103" width="1" height="8" fill="#EC9BC7" />
<rect x="24" y="103" width="1" height="3" fill="#2F3C31" />
<rect x="25" y="103" width="1" height="1" fill="#616462" />
<rect x="38" y="103" width="1" height="1" fill="#616462" />
<rect x="39" y="103" width="1" height="3" fill="#2F3C31" />
<rect x="42" y="103" width="1" height="8" fill="#EC9BC7" />
<rect x="22" y="104" width="1" height="7" fill="#EC9BC7" />
<rect x="25" y="104" width="1" height="3" fill="#2F3C31" />
<rect x="38" y="104" width="1" height="3" fill="#2F3C31" />
<rect x="41" y="104" width="1" height="7" fill="#EC9BC7" />
<rect x="23" y="105" width="1" height="6" fill="#EC9BC7" />
<rect x="26" y="105" width="2" height="2" fill="#2F3C31" />
<rect x="36" y="105" width="2" height="2" fill="#2F3C31" />
<rect x="40" y="105" width="1" height="6" fill="#EC9BC7" />
<rect x="24" y="106" width="1" height="5" fill="#EC9BC7" />
<rect x="28" y="106" width="1" height="3" fill="#2F3C31" />
<rect x="35" y="106" width="1" height="3" fill="#2F3C31" />
<rect x="39" y="106" width="1" height="5" fill="#EC9BC7" />
<rect x="25" y="107" width="2" height="4" fill="#EC9BC7" />
<rect x="27" y="107" width="1" height="1" fill="#2F3C31" />
<rect x="29" y="107" width="1" height="3" fill="#2F3C31" />
<rect x="34" y="107" width="1" height="3" fill="#2F3C31" />
<rect x="36" y="107" width="1" height="1" fill="#2F3C31" />
<rect x="37" y="107" width="2" height="4" fill="#EC9BC7" />
<rect x="27" y="108" width="1" height="3" fill="#EC9BC7" />
<rect x="30" y="108" width="4" height="2" fill="#2F3C31" />
<rect x="36" y="108" width="1" height="3" fill="#EC9BC7" />
<rect x="8" y="109" width="2" height="5" fill="#EC9BC7" />
<rect x="10" y="109" width="2" height="2" fill="#FAC2E0" />
<rect x="28" y="109" width="1" height="2" fill="#EC9BC7" />
<rect x="35" y="109" width="1" height="2" fill="#EC9BC7" />
<rect x="52" y="109" width="2" height="2" fill="#FAC2E0" />
<rect x="54" y="109" width="2" height="5" fill="#EC9BC7" />
<rect x="29" y="110" width="6" height="1" fill="#EC9BC7" />
<rect x="10" y="111" width="2" height="3" fill="#EC9BC7" />
<rect x="12" y="111" width="40" height="2" fill="#FAC2E0" />
<rect x="52" y="111" width="2" height="3" fill="#EC9BC7" />
<rect x="12" y="113" width="40" height="1" fill="#EC9BC7" />
<rect x="8" y="114" width="1" height="1" fill="#EC9BC7" />
<rect x="9" y="114" width="46" height="1" fill="#D1619C" />
<rect x="55" y="114" width="1" height="1" fill="#EC9BC7" />
<rect x="8" y="115" width="1" height="1" fill="#D1619C" />
<rect x="9" y="115" width="46" height="3" fill="#EC9BC7" />
<rect x="55" y="115" width="1" height="1" fill="#D1619C" />
<rect x="6" y="116" width="2" height="2" fill="#D1619C" />
<rect x="8" y="116" width="1" height="2" fill="#EC9BC7" />
<rect x="55" y="116" width="1" height="2" fill="#EC9BC7" />
<rect x="56" y="116" width="2" height="2" fill="#D1619C" />
<rect x="8" y="118" width="48" height="2" fill="#D1619C" />
</svg>