<?xml version="1.0" encoding="UTF-8" ?>
<svg version="1.1" width="64" height="64" xmlns="http://www.w3.org/2000/svg" shape-rendering="crispEdges">
<rect x="2" y="0" width="60" height="3" fill="#F7AC6F" />
<rect x="1" y="1" width="1" height="62" fill="#F7AC6F" />
<rect x="62" y="1" width="1" height="62" fill="#F7AC6F" />
<rect x="0" y="2" width="1" height="60" fill="#F7AC6F" />
<rect x="63" y="2" width="1" height="60" fill="#F7AC6F" />
<rect x="2" y="3" width="3" height="1" fill="#F7AC6F" />
<rect x="5" y="3" width="54" height="7" fill="#FAEF91" />
<rect x="59" y="3" width="3" height="1" fill="#F7AC6F" />
<rect x="2" y="4" width="2" height="1" fill="#F7AC6F" />
<rect x="4" y="4" width="1" height="56" fill="#FAEF91" />
<rect x="59" y="4" width="1" height="56" fill="#FAEF91" />
<rect x="60" y="4" width="2" height="1" fill="#F7AC6F" />
<rect x="2" y="5" width="1" height="59" fill="#F7AC6F" />
<rect x="3" y="5" width="1" height="54" fill="#FAEF91" />
<rect x="60" y="5" width="1" height="54" fill="#FAEF91" />
<rect x="61" y="5" width="1" height="59" fill="#F7AC6F" />
<rect x="5" y="10" width="7" height="1" fill="#FAEF91" />
<rect x="12" y="10" width="5" height="1" fill="#D4B685" />
<rect x="17" y="10" width="30" height="1" fill="#FAEF91" />
<rect x="47" y="10" width="5" height="1" fill="#D4B685" />
<rect x="52" y="10" width="7" height="1" fill="#FAEF91" />
<rect x="5" y="11" width="6" height="1" fill="#FAEF91" />
<rect x="11" y="11" width="1" height="1" fill="#D4B685" />
<rect x="12" y="11" width="5" height="2" fill="#FFFEDD" />
<rect x="17" y="11" width="1" height="1" fill="#D4B685" />
<rect x="18" y="11" width="28" height="1" fill="#FAEF91" />
<rect x="46" y="11" width="1" height="1" fill="#D4B685" />
<rect x="47" y="11" width="5" height="2" fill="#FFFEDD" />
<rect x="52" y="11" width="1" height="1" fill="#D4B685" />
<rect x="53" y="11" width="6" height="1" fill="#FAEF91" />
<rect x="5" y="12" width="5" height="1" fill="#FAEF91" />
<rect x="10" y="12" width="1" height="1" fill="#D4B685" />
<rect x="11" y="12" width="1" height="7" fill="#FFFEDD" />
<rect x="17" y="12" width="1" height="5" fill="#FFFEDD" />
<rect x="18" y="12" width="1" height="1" fill="#D4B685" />
<rect x="19" y="12" width="26" height="1" fill="#FAEF91" />
<rect x="45" y="12" width="1" height="1" fill="#D4B685" />
<rect x="46" y="12" width="1" height="5" fill="#FFFEDD" />
<rect x="52" y="12" width="1" height="7" fill="#FFFEDD" />
<rect x="53" y="12" width="1" height="1" fill="#D4B685" />
<rect x="54" y="12" width="5" height="1" fill="#FAEF91" />
<rect x="5" y="13" width="4" height="1" fill="#FAEF91" />
<rect x="9" y="13" width="1" height="1" fill="#D4B685" />
<rect x="10" y="13" width="1" height="6" fill="#FFFEDD" />
<rect x="12" y="13" width="4" height="3" fill="#FFFFFF" />
<rect x="16" y="13" width="1" height="1" fill="#FFFEDD" />
<rect x="18" y="13" width="1" height="4" fill="#FFFEDD" />
<rect x="19" y="13" width="1" height="1" fill="#D4B685" />
<rect x="20" y="13" width="24" height="1" fill="#FAEF91" />
<rect x="44" y="13" width="1" height="1" fill="#D4B685" />
<rect x="45" y="13" width="1" height="4" fill="#FFFEDD" />
<rect x="47" y="13" width="1" height="1" fill="#FFFEDD" />
<rect x="48" y="13" width="4" height="3" fill="#FFFFFF" />
<rect x="53" y="13" width="1" height="6" fill="#FFFEDD" />
<rect x="54" y="13" width="1" height="1" fill="#D4B685" />
<rect x="55" y="13" width="4" height="1" fill="#FAEF91" />
<rect x="5" y="14" width="3" height="47" fill="#FAEF91" />
<rect x="8" y="14" width="1" height="1" fill="#D4B685" />
<rect x="9" y="14" width="1" height="4" fill="#FFFEDD" />
<rect x="16" y="14" width="1" height="3" fill="#FFFFFF" />
<rect x="19" y="14" width="1" height="3" fill="#FFFEDD" />
<rect x="20" y="14" width="1" height="1" fill="#D4B685" />
<rect x="21" y="14" width="22" height="1" fill="#FAEF91" />
<rect x="43" y="14" width="1" height="1" fill="#D4B685" />
<rect x="44" y="14" width="1" height="3" fill="#FFFEDD" />
<rect x="47" y="14" width="1" height="3" fill="#FFFFFF" />
<rect x="54" y="14" width="1" height="4" fill="#FFFEDD" />
<rect x="55" y="14" width="1" height="1" fill="#D4B685" />
<rect x="56" y="14" width="3" height="47" fill="#FAEF91" />
<rect x="8" y="15" width="1" height="4" fill="#8A6F30" />
<rect x="20" y="15" width="1" height="2" fill="#FFFEDD" />
<rect x="21" y="15" width="22" height="1" fill="#D4B685" />
<rect x="43" y="15" width="1" height="2" fill="#FFFEDD" />
<rect x="55" y="15" width="1" height="4" fill="#8A6F30" />
<rect x="12" y="16" width="1" height="3" fill="#FFFEDD" />
<rect x="13" y="16" width="3" height="1" fill="#FFFFFF" />
<rect x="21" y="16" width="22" height="1" fill="#FFFEDD" />
<rect x="48" y="16" width="3" height="1" fill="#FFFFFF" />
<rect x="51" y="16" width="1" height="3" fill="#FFFEDD" />
<rect x="13" y="17" width="4" height="2" fill="#FFFEDD" />
<rect x="17" y="17" width="7" height="1" fill="#3F3F74" />
<rect x="24" y="17" width="2" height="1" fill="#FFFEDD" />
<rect x="26" y="17" width="5" height="1" fill="#3F3F74" />
<rect x="31" y="17" width="3" height="1" fill="#FFFEDD" />
<rect x="34" y="17" width="5" height="1" fill="#3F3F74" />
<rect x="39" y="17" width="2" height="1" fill="#FFFEDD" />
<rect x="41" y="17" width="6" height="1" fill="#3F3F74" />
<rect x="47" y="17" width="4" height="1" fill="#FFFEDD" />
<rect x="9" y="18" width="1" height="1" fill="#F1E7BB" />
<rect x="17" y="18" width="1" height="8" fill="#3F3F74" />
<rect x="18" y="18" width="5" height="1" fill="#6BBEF7" />
<rect x="23" y="18" width="1" height="2" fill="#3F3F74" />
<rect x="24" y="18" width="1" height="6" fill="#FFFEDD" />
<rect x="25" y="18" width="2" height="1" fill="#3F3F74" />
<rect x="27" y="18" width="3" height="1" fill="#6BBEF7" />
<rect x="30" y="18" width="2" height="1" fill="#3F3F74" />
<rect x="32" y="18" width="1" height="7" fill="#FFFEDD" />
<rect x="33" y="18" width="2" height="1" fill="#3F3F74" />
<rect x="35" y="18" width="3" height="1" fill="#6BBEF7" />
<rect x="38" y="18" width="2" height="1" fill="#3F3F74" />
<rect x="40" y="18" width="1" height="6" fill="#FFFEDD" />
<rect x="41" y="18" width="1" height="8" fill="#3F3F74" />
<rect x="42" y="18" width="5" height="1" fill="#6BBEF7" />
<rect x="47" y="18" width="1" height="6" fill="#3F3F74" />
<rect x="48" y="18" width="3" height="1" fill="#FFFEDD" />
<rect x="54" y="18" width="1" height="1" fill="#F1E7BB" />
<rect x="8" y="19" width="1" height="5" fill="#FAEF91" />
<rect x="9" y="19" width="1" height="1" fill="#8A6F30" />
<rect x="10" y="19" width="3" height="1" fill="#F1E7BB" />
<rect x="13" y="19" width="2" height="1" fill="#D4B685" />
<rect x="15" y="19" width="2" height="8" fill="#FFFEDD" />
<rect x="18" y="19" width="1" height="1" fill="#6BBEF7" />
<rect x="19" y="19" width="4" height="1" fill="#3F3F74" />
<rect x="25" y="19" width="1" height="6" fill="#3F3F74" />
<rect x="26" y="19" width="1" height="1" fill="#6BBEF7" />
<rect x="27" y="19" width="3" height="1" fill="#3F3F74" />
<rect x="30" y="19" width="1" height="1" fill="#6BBEF7" />
<rect x="31" y="19" width="1" height="6" fill="#3F3F74" />
<rect x="33" y="19" width="1" height="6" fill="#3F3F74" />
<rect x="34" y="19" width="1" height="1" fill="#6BBEF7" />
<rect x="35" y="19" width="3" height="1" fill="#3F3F74" />
<rect x="38" y="19" width="1" height="1" fill="#6BBEF7" />
<rect x="39" y="19" width="1" height="6" fill="#3F3F74" />
<rect x="42" y="19" width="1" height="1" fill="#6BBEF7" />
<rect x="43" y="19" width="3" height="1" fill="#3F3F74" />
<rect x="46" y="19" width="1" height="1" fill="#6BBEF7" />
<rect x="48" y="19" width="1" height="8" fill="#FFFEDD" />
<rect x="49" y="19" width="2" height="1" fill="#D4B685" />
<rect x="51" y="19" width="3" height="1" fill="#F1E7BB" />
<rect x="54" y="19" width="1" height="1" fill="#8A6F30" />
<rect x="55" y="19" width="1" height="5" fill="#FAEF91" />
<rect x="9" y="20" width="1" height="3" fill="#FAEF91" />
<rect x="10" y="20" width="1" height="1" fill="#8A6F30" />
<rect x="11" y="20" width="1" height="1" fill="#F1E7BB" />
<rect x="12" y="20" width="1" height="1" fill="#D4B685" />
<rect x="13" y="20" width="2" height="7" fill="#FFFEDD" />
<rect x="18" y="20" width="1" height="5" fill="#5B6EE1" />
<rect x="19" y="20" width="3" height="1" fill="#3F3F74" />
<rect x="22" y="20" width="2" height="4" fill="#FFFEDD" />
<rect x="26" y="20" width="1" height="4" fill="#5B6EE1" />
<rect x="27" y="20" width="1" height="4" fill="#3F3F74" />
<rect x="28" y="20" width="1" height="3" fill="#FFFEDD" />
<rect x="29" y="20" width="1" height="4" fill="#3F3F74" />
<rect x="30" y="20" width="1" height="4" fill="#5B6EE1" />
<rect x="34" y="20" width="1" height="4" fill="#5B6EE1" />
<rect x="35" y="20" width="1" height="4" fill="#3F3F74" />
<rect x="36" y="20" width="1" height="3" fill="#FFFEDD" />
<rect x="37" y="20" width="1" height="4" fill="#3F3F74" />
<rect x="38" y="20" width="1" height="4" fill="#5B6EE1" />
<rect x="42" y="20" width="1" height="5" fill="#5B6EE1" />
<rect x="43" y="20" width="1" height="4" fill="#3F3F74" />
<rect x="44" y="20" width="1" height="3" fill="#FFFEDD" />
<rect x="45" y="20" width="1" height="4" fill="#3F3F74" />
<rect x="46" y="20" width="1" height="4" fill="#5B6EE1" />
<rect x="49" y="20" width="2" height="7" fill="#FFFEDD" />
<rect x="51" y="20" width="1" height="1" fill="#D4B685" />
<rect x="52" y="20" width="1" height="1" fill="#F1E7BB" />
<rect x="53" y="20" width="1" height="1" fill="#8A6F30" />
<rect x="54" y="20" width="1" height="3" fill="#FAEF91" />
<rect x="10" y="21" width="1" height="1" fill="#FAEF91" />
<rect x="11" y="21" width="1" height="1" fill="#D4B685" />
<rect x="12" y="21" width="1" height="5" fill="#FFFEDD" />
<rect x="19" y="21" width="2" height="1" fill="#5B6EE1" />
<rect x="21" y="21" width="1" height="2" fill="#3F3F74" />
<rect x="51" y="21" width="1" height="5" fill="#FFFEDD" />
<rect x="52" y="21" width="1" height="1" fill="#D4B685" />
<rect x="53" y="21" width="1" height="1" fill="#FAEF91" />
<rect x="10" y="22" width="1" height="1" fill="#D4B685" />
<rect x="11" y="22" width="1" height="3" fill="#FFFEDD" />
<rect x="19" y="22" width="2" height="1" fill="#3F3F74" />
<rect x="52" y="22" width="1" height="3" fill="#FFFEDD" />
<rect x="53" y="22" width="1" height="1" fill="#D4B685" />
<rect x="9" y="23" width="1" height="1" fill="#D4B685" />
<rect x="10" y="23" width="1" height="1" fill="#FFFEDD" />
<rect x="19" y="23" width="1" height="3" fill="#3F3F74" />
<rect x="20" y="23" width="2" height="1" fill="#FFFEDD" />
<rect x="28" y="23" width="1" height="1" fill="#3F3F74" />
<rect x="36" y="23" width="1" height="1" fill="#3F3F74" />
<rect x="44" y="23" width="1" height="1" fill="#3F3F74" />
<rect x="53" y="23" width="1" height="1" fill="#FFFEDD" />
<rect x="54" y="23" width="1" height="1" fill="#D4B685" />
<rect x="8" y="24" width="1" height="4" fill="#8A6F30" />
<rect x="9" y="24" width="1" height="1" fill="#FFFEDD" />
<rect x="10" y="24" width="1" height="5" fill="#F1E7BB" />
<rect x="20" y="24" width="1" height="1" fill="#FFFEDD" />
<rect x="21" y="24" width="4" height="3" fill="#F1E7BB" />
<rect x="26" y="24" width="1" height="2" fill="#3F3F74" />
<rect x="27" y="24" width="3" height="1" fill="#5B6EE1" />
<rect x="30" y="24" width="1" height="2" fill="#3F3F74" />
<rect x="34" y="24" width="1" height="2" fill="#3F3F74" />
<rect x="35" y="24" width="3" height="1" fill="#5B6EE1" />
<rect x="38" y="24" width="1" height="2" fill="#3F3F74" />
<rect x="40" y="24" width="1" height="3" fill="#F1E7BB" />
<rect x="43" y="24" width="3" height="1" fill="#5B6EE1" />
<rect x="46" y="24" width="1" height="1" fill="#3F3F74" />
<rect x="47" y="24" width="1" height="3" fill="#FFFEDD" />
<rect x="53" y="24" width="1" height="5" fill="#F1E7BB" />
<rect x="54" y="24" width="1" height="1" fill="#FFFEDD" />
<rect x="55" y="24" width="1" height="4" fill="#8A6F30" />
<rect x="9" y="25" width="1" height="3" fill="#F1E7BB" />
<rect x="11" y="25" width="1" height="5" fill="#F1E7BB" />
<rect x="18" y="25" width="1" height="1" fill="#3F3F74" />
<rect x="20" y="25" width="1" height="3" fill="#F1E7BB" />
<rect x="25" y="25" width="1" height="2" fill="#F1E7BB" />
<rect x="27" y="25" width="3" height="1" fill="#3F3F74" />
<rect x="31" y="25" width="3" height="2" fill="#F1E7BB" />
<rect x="35" y="25" width="3" height="1" fill="#3F3F74" />
<rect x="39" y="25" width="1" height="2" fill="#F1E7BB" />
<rect x="42" y="25" width="4" height="1" fill="#3F3F74" />
<rect x="46" y="25" width="1" height="1" fill="#FFFEDD" />
<rect x="52" y="25" width="1" height="5" fill="#F1E7BB" />
<rect x="54" y="25" width="1" height="3" fill="#F1E7BB" />
<rect x="12" y="26" width="1" height="5" fill="#F1E7BB" />
<rect x="17" y="26" width="3" height="3" fill="#F1E7BB" />
<rect x="26" y="26" width="5" height="1" fill="#F1E7BB" />
<rect x="34" y="26" width="5" height="1" fill="#F1E7BB" />
<rect x="41" y="26" width="6" height="1" fill="#F1E7BB" />
<rect x="51" y="26" width="1" height="5" fill="#F1E7BB" />
<rect x="13" y="27" width="4" height="5" fill="#F1E7BB" />
<rect x="21" y="27" width="22" height="1" fill="#8A6F30" />
<rect x="43" y="27" width="8" height="1" fill="#F1E7BB" />
<rect x="8" y="28" width="1" height="15" fill="#FAEF91" />
<rect x="9" y="28" width="1" height="1" fill="#8A6F30" />
<rect x="20" y="28" width="1" height="1" fill="#8A6F30" />
<rect x="21" y="28" width="22" height="2" fill="#7DC7E9" />
<rect x="43" y="28" width="1" height="1" fill="#8A6F30" />
<rect x="44" y="28" width="7" height="1" fill="#F1E7BB" />
<rect x="54" y="28" width="1" height="1" fill="#8A6F30" />
<rect x="55" y="28" width="1" height="15" fill="#FAEF91" />
<rect x="9" y="29" width="1" height="13" fill="#FAEF91" />
<rect x="10" y="29" width="1" height="1" fill="#8A6F30" />
<rect x="17" y="29" width="2" height="1" fill="#F1E7BB" />
<rect x="19" y="29" width="1" height="1" fill="#8A6F30" />
<rect x="20" y="29" width="1" height="5" fill="#7DC7E9" />
<rect x="43" y="29" width="1" height="5" fill="#7DC7E9" />
<rect x="44" y="29" width="1" height="1" fill="#8A6F30" />
<rect x="45" y="29" width="6" height="1" fill="#F1E7BB" />
<rect x="53" y="29" width="1" height="1" fill="#8A6F30" />
<rect x="54" y="29" width="1" height="13" fill="#FAEF91" />
<rect x="10" y="30" width="1" height="11" fill="#FAEF91" />
<rect x="11" y="30" width="1" height="1" fill="#8A6F30" />
<rect x="17" y="30" width="1" height="1" fill="#F1E7BB" />
<rect x="18" y="30" width="1" height="1" fill="#8A6F30" />
<rect x="19" y="30" width="1" height="4" fill="#7DC7E9" />
<rect x="21" y="30" width="5" height="2" fill="#7DC7E9" />
<rect x="26" y="30" width="12" height="7" fill="#99F0F4" />
<rect x="38" y="30" width="5" height="2" fill="#7DC7E9" />
<rect x="44" y="30" width="1" height="4" fill="#7DC7E9" />
<rect x="45" y="30" width="1" height="1" fill="#8A6F30" />
<rect x="46" y="30" width="5" height="1" fill="#F1E7BB" />
<rect x="52" y="30" width="1" height="1" fill="#8A6F30" />
<rect x="53" y="30" width="1" height="11" fill="#FAEF91" />
<rect x="11" y="31" width="1" height="9" fill="#FAEF91" />
<rect x="12" y="31" width="1" height="1" fill="#8A6F30" />
<rect x="17" y="31" width="1" height="1" fill="#8A6F30" />
<rect x="18" y="31" width="1" height="3" fill="#7DC7E9" />
<rect x="45" y="31" width="1" height="3" fill="#7DC7E9" />
<rect x="46" y="31" width="1" height="1" fill="#8A6F30" />
<rect x="47" y="31" width="4" height="1" fill="#F1E7BB" />
<rect x="51" y="31" width="1" height="1" fill="#8A6F30" />
<rect x="52" y="31" width="1" height="9" fill="#FAEF91" />
<rect x="12" y="32" width="1" height="9" fill="#FAEF91" />
<rect x="13" y="32" width="4" height="1" fill="#8A6F30" />
<rect x="17" y="32" width="1" height="3" fill="#7DC7E9" />
<rect x="21" y="32" width="2" height="1" fill="#7DC7E9" />
<rect x="23" y="32" width="3" height="5" fill="#99F0F4" />
<rect x="38" y="32" width="3" height="5" fill="#99F0F4" />
<rect x="41" y="32" width="2" height="1" fill="#7DC7E9" />
<rect x="46" y="32" width="1" height="3" fill="#7DC7E9" />
<rect x="47" y="32" width="4" height="1" fill="#8A6F30" />
<rect x="51" y="32" width="1" height="9" fill="#FAEF91" />
<rect x="13" y="33" width="1" height="7" fill="#3E5EA0" />
<rect x="14" y="33" width="3" height="1" fill="#99F0F4" />
<rect x="21" y="33" width="2" height="12" fill="#99F0F4" />
<rect x="41" y="33" width="2" height="12" fill="#99F0F4" />
<rect x="47" y="33" width="3" height="1" fill="#99F0F4" />
<rect x="50" y="33" width="1" height="7" fill="#3E5EA0" />
<rect x="14" y="34" width="3" height="1" fill="#7DC7E9" />
<rect x="18" y="34" width="3" height="8" fill="#99F0F4" />
<rect x="43" y="34" width="3" height="8" fill="#99F0F4" />
<rect x="47" y="34" width="3" height="1" fill="#7DC7E9" />
<rect x="14" y="35" width="4" height="4" fill="#99F0F4" />
<rect x="46" y="35" width="4" height="4" fill="#99F0F4" />
<rect x="23" y="37" width="1" height="15" fill="#99F0F4" />
<rect x="24" y="37" width="16" height="1" fill="#3E5EA0" />
<rect x="40" y="37" width="1" height="15" fill="#99F0F4" />
<rect x="24" y="38" width="1" height="15" fill="#3E5EA0" />
<rect x="25" y="38" width="5" height="1" fill="#E2F4FC" />
<rect x="30" y="38" width="1" height="2" fill="#FFFFFF" />
<rect x="31" y="38" width="2" height="15" fill="#3E5EA0" />
<rect x="33" y="38" width="5" height="1" fill="#E2F4FC" />
<rect x="38" y="38" width="1" height="2" fill="#FFFFFF" />
<rect x="39" y="38" width="1" height="15" fill="#3E5EA0" />
<rect x="14" y="39" width="2" height="1" fill="#105427" />
<rect x="16" y="39" width="2" height="1" fill="#99F0F4" />
<rect x="25" y="39" width="4" height="2" fill="#E2F4FC" />
<rect x="29" y="39" width="1" height="3" fill="#FFFFFF" />
<rect x="33" y="39" width="4" height="1" fill="#E2F4FC" />
<rect x="37" y="39" width="1" height="2" fill="#FFFFFF" />
<rect x="46" y="39" width="2" height="1" fill="#99F0F4" />
<rect x="48" y="39" width="2" height="1" fill="#105427" />
<rect x="11" y="40" width="1" height="1" fill="#105427" />
<rect x="13" y="40" width="1" height="1" fill="#105427" />
<rect x="14" y="40" width="1" height="3" fill="#47C671" />
<rect x="15" y="40" width="1" height="2" fill="#4DF785" />
<rect x="16" y="40" width="1" height="1" fill="#105427" />
<rect x="17" y="40" width="1" height="1" fill="#99F0F4" />
<rect x="30" y="40" width="1" height="5" fill="#E2F4FC" />
<rect x="33" y="40" width="3" height="1" fill="#E2F4FC" />
<rect x="36" y="40" width="1" height="2" fill="#FFFFFF" />
<rect x="38" y="40" width="1" height="4" fill="#E2F4FC" />
<rect x="46" y="40" width="1" height="1" fill="#99F0F4" />
<rect x="47" y="40" width="1" height="1" fill="#105427" />
<rect x="48" y="40" width="1" height="2" fill="#4DF785" />
<rect x="49" y="40" width="1" height="3" fill="#47C671" />
<rect x="50" y="40" width="1" height="1" fill="#105427" />
<rect x="52" y="40" width="1" height="1" fill="#105427" />
<rect x="10" y="41" width="1" height="1" fill="#105427" />
<rect x="11" y="41" width="1" height="2" fill="#4DF785" />
<rect x="12" y="41" width="1" height="1" fill="#105427" />
<rect x="13" y="41" width="1" height="1" fill="#47C671" />
<rect x="16" y="41" width="1" height="1" fill="#47C671" />
<rect x="17" y="41" width="1" height="1" fill="#105427" />
<rect x="25" y="41" width="3" height="1" fill="#E2F4FC" />
<rect x="28" y="41" width="1" height="2" fill="#FFFFFF" />
<rect x="33" y="41" width="2" height="1" fill="#E2F4FC" />
<rect x="35" y="41" width="1" height="2" fill="#FFFFFF" />
<rect x="37" y="41" width="1" height="4" fill="#E2F4FC" />
<rect x="46" y="41" width="1" height="1" fill="#105427" />
<rect x="47" y="41" width="1" height="1" fill="#47C671" />
<rect x="50" y="41" width="1" height="1" fill="#47C671" />
<rect x="51" y="41" width="1" height="1" fill="#105427" />
<rect x="52" y="41" width="1" height="2" fill="#4DF785" />
<rect x="53" y="41" width="1" height="1" fill="#105427" />
<rect x="9" y="42" width="1" height="1" fill="#105427" />
<rect x="10" y="42" width="1" height="1" fill="#47C671" />
<rect x="12" y="42" width="1" height="1" fill="#4DF785" />
<rect x="13" y="42" width="1" height="1" fill="#11B848" />
<rect x="15" y="42" width="1" height="1" fill="#47C671" />
<rect x="16" y="42" width="1" height="2" fill="#11B848" />
<rect x="17" y="42" width="1" height="3" fill="#47C671" />
<rect x="18" y="42" width="1" height="2" fill="#105427" />
<rect x="19" y="42" width="2" height="1" fill="#99F0F4" />
<rect x="25" y="42" width="2" height="1" fill="#E2F4FC" />
<rect x="27" y="42" width="1" height="2" fill="#FFFFFF" />
<rect x="29" y="42" width="1" height="3" fill="#E2F4FC" />
<rect x="33" y="42" width="1" height="1" fill="#E2F4FC" />
<rect x="34" y="42" width="1" height="2" fill="#FFFFFF" />
<rect x="36" y="42" width="1" height="5" fill="#E2F4FC" />
<rect x="43" y="42" width="2" height="1" fill="#99F0F4" />
<rect x="45" y="42" width="1" height="2" fill="#105427" />
<rect x="46" y="42" width="1" height="3" fill="#47C671" />
<rect x="47" y="42" width="1" height="2" fill="#11B848" />
<rect x="48" y="42" width="1" height="1" fill="#47C671" />
<rect x="50" y="42" width="1" height="1" fill="#11B848" />
<rect x="51" y="42" width="1" height="1" fill="#4DF785" />
<rect x="53" y="42" width="1" height="1" fill="#47C671" />
<rect x="54" y="42" width="1" height="1" fill="#105427" />
<rect x="8" y="43" width="1" height="2" fill="#105427" />
<rect x="9" y="43" width="2" height="2" fill="#0D8D37" />
<rect x="11" y="43" width="2" height="1" fill="#47C671" />
<rect x="13" y="43" width="1" height="2" fill="#0D8D37" />
<rect x="14" y="43" width="2" height="1" fill="#11B848" />
<rect x="19" y="43" width="1" height="1" fill="#105427" />
<rect x="20" y="43" width="1" height="1" fill="#99F0F4" />
<rect x="25" y="43" width="1" height="1" fill="#E2F4FC" />
<rect x="26" y="43" width="1" height="2" fill="#FFFFFF" />
<rect x="28" y="43" width="1" height="5" fill="#E2F4FC" />
<rect x="33" y="43" width="1" height="2" fill="#FFFFFF" />
<rect x="35" y="43" width="1" height="5" fill="#E2F4FC" />
<rect x="43" y="43" width="1" height="1" fill="#99F0F4" />
<rect x="44" y="43" width="1" height="1" fill="#105427" />
<rect x="48" y="43" width="2" height="1" fill="#11B848" />
<rect x="50" y="43" width="1" height="2" fill="#0D8D37" />
<rect x="51" y="43" width="2" height="1" fill="#47C671" />
<rect x="53" y="43" width="2" height="2" fill="#0D8D37" />
<rect x="55" y="43" width="1" height="2" fill="#105427" />
<rect x="11" y="44" width="2" height="1" fill="#11B848" />
<rect x="14" y="44" width="3" height="1" fill="#0D8D37" />
<rect x="18" y="44" width="1" height="4" fill="#47C671" />
<rect x="19" y="44" width="1" height="3" fill="#4DF785" />
<rect x="20" y="44" width="1" height="1" fill="#105427" />
<rect x="25" y="44" width="1" height="1" fill="#FFFFFF" />
<rect x="27" y="44" width="1" height="4" fill="#E2F4FC" />
<rect x="34" y="44" width="1" height="5" fill="#E2F4FC" />
<rect x="38" y="44" width="1" height="3" fill="#FFFFFF" />
<rect x="43" y="44" width="1" height="1" fill="#105427" />
<rect x="44" y="44" width="1" height="3" fill="#4DF785" />
<rect x="45" y="44" width="1" height="4" fill="#47C671" />
<rect x="47" y="44" width="3" height="1" fill="#0D8D37" />
<rect x="51" y="44" width="2" height="1" fill="#11B848" />
<rect x="8" y="45" width="1" height="16" fill="#FAEF91" />
<rect x="9" y="45" width="1" height="2" fill="#105427" />
<rect x="10" y="45" width="2" height="2" fill="#0D8D37" />
<rect x="12" y="45" width="1" height="2" fill="#11B848" />
<rect x="13" y="45" width="2" height="2" fill="#4DF785" />
<rect x="15" y="45" width="2" height="2" fill="#0D8D37" />
<rect x="17" y="45" width="1" height="2" fill="#11B848" />
<rect x="20" y="45" width="1" height="2" fill="#47C671" />
<rect x="21" y="45" width="1" height="4" fill="#105427" />
<rect x="22" y="45" width="1" height="7" fill="#99F0F4" />
<rect x="25" y="45" width="2" height="4" fill="#E2F4FC" />
<rect x="29" y="45" width="2" height="2" fill="#FFFFFF" />
<rect x="33" y="45" width="1" height="5" fill="#E2F4FC" />
<rect x="37" y="45" width="1" height="3" fill="#FFFFFF" />
<rect x="41" y="45" width="1" height="7" fill="#99F0F4" />
<rect x="42" y="45" width="1" height="4" fill="#105427" />
<rect x="43" y="45" width="1" height="2" fill="#47C671" />
<rect x="46" y="45" width="1" height="2" fill="#11B848" />
<rect x="47" y="45" width="2" height="2" fill="#0D8D37" />
<rect x="49" y="45" width="2" height="2" fill="#4DF785" />
<rect x="51" y="45" width="1" height="2" fill="#11B848" />
<rect x="52" y="45" width="2" height="2" fill="#0D8D37" />
<rect x="54" y="45" width="1" height="2" fill="#105427" />
<rect x="55" y="45" width="1" height="16" fill="#FAEF91" />
<rect x="9" y="47" width="1" height="1" fill="#FAEF91" />
<rect x="10" y="47" width="1" height="1" fill="#105427" />
<rect x="11" y="47" width="1" height="2" fill="#0D8D37" />
<rect x="12" y="47" width="1" height="1" fill="#47C671" />
<rect x="13" y="47" width="1" height="2" fill="#11B848" />
<rect x="14" y="47" width="1" height="2" fill="#0D8D37" />
<rect x="15" y="47" width="1" height="1" fill="#47C671" />
<rect x="16" y="47" width="2" height="1" fill="#4DF785" />
<rect x="19" y="47" width="2" height="1" fill="#11B848" />
<rect x="29" y="47" width="1" height="2" fill="#FFFFFF" />
<rect x="30" y="47" width="1" height="5" fill="#E2F4FC" />
<rect x="36" y="47" width="1" height="2" fill="#FFFFFF" />
<rect x="38" y="47" width="1" height="5" fill="#E2F4FC" />
<rect x="43" y="47" width="2" height="1" fill="#11B848" />
<rect x="46" y="47" width="2" height="1" fill="#4DF785" />
<rect x="48" y="47" width="1" height="1" fill="#47C671" />
<rect x="49" y="47" width="1" height="2" fill="#0D8D37" />
<rect x="50" y="47" width="1" height="2" fill="#11B848" />
<rect x="51" y="47" width="1" height="1" fill="#47C671" />
<rect x="52" y="47" width="1" height="2" fill="#0D8D37" />
<rect x="53" y="47" width="1" height="1" fill="#105427" />
<rect x="54" y="47" width="1" height="1" fill="#FAEF91" />
<rect x="9" y="48" width="1" height="1" fill="#105427" />
<rect x="10" y="48" width="1" height="1" fill="#0D8D37" />
<rect x="12" y="48" width="1" height="1" fill="#11B848" />
<rect x="15" y="48" width="2" height="1" fill="#0D8D37" />
<rect x="17" y="48" width="1" height="1" fill="#4DF785" />
<rect x="18" y="48" width="2" height="1" fill="#11B848" />
<rect x="20" y="48" width="1" height="1" fill="#47C671" />
<rect x="27" y="48" width="2" height="1" fill="#FFFFFF" />
<rect x="35" y="48" width="1" height="2" fill="#FFFFFF" />
<rect x="37" y="48" width="1" height="4" fill="#E2F4FC" />
<rect x="43" y="48" width="1" height="1" fill="#47C671" />
<rect x="44" y="48" width="2" height="1" fill="#11B848" />
<rect x="46" y="48" width="1" height="1" fill="#4DF785" />
<rect x="47" y="48" width="2" height="1" fill="#0D8D37" />
<rect x="51" y="48" width="1" height="1" fill="#11B848" />
<rect x="53" y="48" width="1" height="1" fill="#0D8D37" />
<rect x="54" y="48" width="1" height="1" fill="#105427" />
<rect x="9" y="49" width="6" height="1" fill="#8D6E20" />
<rect x="15" y="49" width="6" height="1" fill="#C6A247" />
<rect x="21" y="49" width="1" height="3" fill="#99F0F4" />
<rect x="25" y="49" width="1" height="1" fill="#E2F4FC" />
<rect x="26" y="49" width="2" height="1" fill="#FFFFFF" />
<rect x="28" y="49" width="2" height="3" fill="#E2F4FC" />
<rect x="34" y="49" width="1" height="2" fill="#FFFFFF" />
<rect x="36" y="49" width="1" height="3" fill="#E2F4FC" />
<rect x="42" y="49" width="1" height="3" fill="#99F0F4" />
<rect x="43" y="49" width="6" height="1" fill="#C6A247" />
<rect x="49" y="49" width="6" height="1" fill="#8D6E20" />
<rect x="9" y="50" width="1" height="5" fill="#8D6E20" />
<rect x="10" y="50" width="10" height="2" fill="#E1BE65" />
<rect x="20" y="50" width="1" height="2" fill="#C6A247" />
<rect x="25" y="50" width="2" height="1" fill="#FFFFFF" />
<rect x="27" y="50" width="1" height="2" fill="#E2F4FC" />
<rect x="33" y="50" width="1" height="1" fill="#FFFFFF" />
<rect x="35" y="50" width="1" height="2" fill="#E2F4FC" />
<rect x="43" y="50" width="1" height="2" fill="#C6A247" />
<rect x="44" y="50" width="10" height="2" fill="#E1BE65" />
<rect x="54" y="50" width="1" height="5" fill="#8D6E20" />
<rect x="25" y="51" width="2" height="1" fill="#E2F4FC" />
<rect x="33" y="51" width="2" height="1" fill="#E2F4FC" />
<rect x="10" y="52" width="1" height="2" fill="#C6A247" />
<rect x="11" y="52" width="9" height="1" fill="#E1BE65" />
<rect x="20" y="52" width="1" height="3" fill="#8D6E20" />
<rect x="21" y="52" width="3" height="1" fill="#3E5EA0" />
<rect x="25" y="52" width="6" height="1" fill="#3E5EA0" />
<rect x="33" y="52" width="6" height="1" fill="#3E5EA0" />
<rect x="40" y="52" width="3" height="1" fill="#3E5EA0" />
<rect x="43" y="52" width="1" height="3" fill="#8D6E20" />
<rect x="44" y="52" width="9" height="1" fill="#E1BE65" />
<rect x="53" y="52" width="1" height="2" fill="#C6A247" />
<rect x="11" y="53" width="5" height="1" fill="#C6A247" />
<rect x="16" y="53" width="4" height="1" fill="#E1BE65" />
<rect x="21" y="53" width="22" height="8" fill="#FAEF91" />
<rect x="44" y="53" width="4" height="1" fill="#E1BE65" />
<rect x="48" y="53" width="5" height="1" fill="#C6A247" />
<rect x="10" y="54" width="10" height="1" fill="#8D6E20" />
<rect x="44" y="54" width="10" height="1" fill="#8D6E20" />
<rect x="9" y="55" width="12" height="6" fill="#FAEF91" />
<rect x="43" y="55" width="12" height="6" fill="#FAEF91" />
<rect x="3" y="59" width="1" height="5" fill="#F7AC6F" />
<rect x="60" y="59" width="1" height="5" fill="#F7AC6F" />
<rect x="4" y="60" width="1" height="4" fill="#F7AC6F" />
<rect x="59" y="60" width="1" height="4" fill="#F7AC6F" />
<rect x="5" y="61" width="54" height="3" fill="#F7AC6F" />
</svg>