<?xml version="1.0" encoding="UTF-8" ?>
<svg version="1.1" width="64" height="64" xmlns="http://www.w3.org/2000/svg" shape-rendering="crispEdges">
<rect x="18" y="15" width="22" height="1" fill="#000000" />
<rect x="15" y="16" width="3" height="1" fill="#000000" />
<rect x="18" y="16" width="11" height="1" fill="#323C39" />
<rect x="29" y="16" width="2" height="1" fill="#922109" />
<rect x="31" y="16" width="9" height="1" fill="#323C39" />
<rect x="40" y="16" width="3" height="1" fill="#000000" />
<rect x="14" y="17" width="1" height="2" fill="#000000" />
<rect x="15" y="17" width="5" height="1" fill="#323C39" />
<rect x="20" y="17" width="5" height="1" fill="#16211D" />
<rect x="25" y="17" width="2" height="1" fill="#922109" />
<rect x="27" y="17" width="1" height="1" fill="#323C39" />
<rect x="28" y="17" width="1" height="1" fill="#922109" />
<rect x="29" y="17" width="2" height="1" fill="#E4583A" />
<rect x="31" y="17" width="1" height="1" fill="#922109" />
<rect x="32" y="17" width="6" height="1" fill="#16211D" />
<rect x="38" y="17" width="5" height="1" fill="#323C39" />
<rect x="43" y="17" width="1" height="2" fill="#000000" />
<rect x="12" y="18" width="2" height="1" fill="#000000" />
<rect x="15" y="18" width="3" height="1" fill="#323C39" />
<rect x="18" y="18" width="2" height="1" fill="#16211D" />
<rect x="20" y="18" width="4" height="1" fill="#F7F2DD" />
<rect x="24" y="18" width="1" height="1" fill="#922109" />
<rect x="25" y="18" width="2" height="1" fill="#E4583A" />
<rect x="27" y="18" width="1" height="1" fill="#922109" />
<rect x="28" y="18" width="1" height="1" fill="#E4583A" />
<rect x="29" y="18" width="1" height="1" fill="#FFB4A4" />
<rect x="30" y="18" width="1" height="1" fill="#FF7F63" />
<rect x="31" y="18" width="1" height="1" fill="#E4583A" />
<rect x="32" y="18" width="2" height="1" fill="#922109" />
<rect x="34" y="18" width="4" height="1" fill="#F7F2DD" />
<rect x="38" y="18" width="2" height="1" fill="#16211D" />
<rect x="40" y="18" width="3" height="1" fill="#323C39" />
<rect x="44" y="18" width="2" height="1" fill="#000000" />
<rect x="11" y="19" width="1" height="1" fill="#000000" />
<rect x="12" y="19" width="3" height="1" fill="#323C39" />
<rect x="15" y="19" width="3" height="1" fill="#16211D" />
<rect x="18" y="19" width="5" height="1" fill="#F7F2DD" />
<rect x="23" y="19" width="1" height="2" fill="#922109" />
<rect x="24" y="19" width="1" height="2" fill="#E4583A" />
<rect x="25" y="19" width="1" height="1" fill="#FFB4A4" />
<rect x="26" y="19" width="1" height="1" fill="#FF7F63" />
<rect x="27" y="19" width="1" height="2" fill="#E4583A" />
<rect x="28" y="19" width="1" height="2" fill="#922109" />
<rect x="29" y="19" width="1" height="1" fill="#FF7F63" />
<rect x="30" y="19" width="1" height="1" fill="#E4583A" />
<rect x="31" y="19" width="1" height="1" fill="#922109" />
<rect x="32" y="19" width="2" height="1" fill="#E4583A" />
<rect x="34" y="19" width="1" height="1" fill="#922109" />
<rect x="35" y="19" width="5" height="1" fill="#F7F2DD" />
<rect x="40" y="19" width="3" height="1" fill="#16211D" />
<rect x="43" y="19" width="3" height="1" fill="#323C39" />
<rect x="46" y="19" width="1" height="1" fill="#000000" />
<rect x="10" y="20" width="1" height="20" fill="#000000" />
<rect x="11" y="20" width="3" height="1" fill="#323C39" />
<rect x="14" y="20" width="1" height="1" fill="#16211D" />
<rect x="15" y="20" width="3" height="1" fill="#F7F2DD" />
<rect x="18" y="20" width="2" height="1" fill="#FFFFFF" />
<rect x="20" y="20" width="1" height="5" fill="#F7F2DD" />
<rect x="21" y="20" width="2" height="3" fill="#D95763" />
<rect x="25" y="20" width="1" height="1" fill="#FF7F63" />
<rect x="26" y="20" width="1" height="2" fill="#E4583A" />
<rect x="29" y="20" width="1" height="1" fill="#E4583A" />
<rect x="30" y="20" width="1" height="2" fill="#922109" />
<rect x="31" y="20" width="1" height="2" fill="#E4583A" />
<rect x="32" y="20" width="1" height="1" fill="#FFB4A4" />
<rect x="33" y="20" width="2" height="2" fill="#E4583A" />
<rect x="35" y="20" width="1" height="2" fill="#922109" />
<rect x="36" y="20" width="2" height="5" fill="#F7F2DD" />
<rect x="38" y="20" width="2" height="1" fill="#FFFFFF" />
<rect x="40" y="20" width="3" height="1" fill="#F7F2DD" />
<rect x="43" y="20" width="1" height="1" fill="#16211D" />
<rect x="44" y="20" width="3" height="1" fill="#323C39" />
<rect x="47" y="20" width="1" height="18" fill="#000000" />
<rect x="11" y="21" width="2" height="4" fill="#323C39" />
<rect x="13" y="21" width="1" height="3" fill="#16211D" />
<rect x="14" y="21" width="2" height="1" fill="#F7F2DD" />
<rect x="16" y="21" width="3" height="1" fill="#FFFFFF" />
<rect x="19" y="21" width="1" height="2" fill="#F7F2DD" />
<rect x="23" y="21" width="1" height="2" fill="#D95763" />
<rect x="24" y="21" width="1" height="1" fill="#922109" />
<rect x="25" y="21" width="1" height="1" fill="#E4583A" />
<rect x="27" y="21" width="1" height="1" fill="#922109" />
<rect x="28" y="21" width="1" height="3" fill="#6ABE30" />
<rect x="29" y="21" width="1" height="1" fill="#922109" />
<rect x="32" y="21" width="1" height="1" fill="#FF7F63" />
<rect x="38" y="21" width="1" height="2" fill="#F7F2DD" />
<rect x="39" y="21" width="3" height="1" fill="#FFFFFF" />
<rect x="42" y="21" width="2" height="1" fill="#F7F2DD" />
<rect x="44" y="21" width="1" height="3" fill="#16211D" />
<rect x="45" y="21" width="2" height="4" fill="#323C39" />
<rect x="14" y="22" width="1" height="1" fill="#F7F2DD" />
<rect x="15" y="22" width="1" height="1" fill="#FFFFFF" />
<rect x="16" y="22" width="3" height="1" fill="#F7F2DD" />
<rect x="24" y="22" width="1" height="1" fill="#6ABE30" />
<rect x="25" y="22" width="2" height="1" fill="#922109" />
<rect x="27" y="22" width="1" height="2" fill="#6ABE30" />
<rect x="29" y="22" width="2" height="2" fill="#6ABE30" />
<rect x="31" y="22" width="1" height="1" fill="#922109" />
<rect x="32" y="22" width="2" height="1" fill="#E4583A" />
<rect x="34" y="22" width="1" height="1" fill="#922109" />
<rect x="35" y="22" width="1" height="1" fill="#FFFA8D" />
<rect x="39" y="22" width="3" height="1" fill="#F7F2DD" />
<rect x="42" y="22" width="1" height="1" fill="#FFFFFF" />
<rect x="43" y="22" width="1" height="1" fill="#F7F2DD" />
<rect x="14" y="23" width="1" height="1" fill="#16211D" />
<rect x="15" y="23" width="2" height="1" fill="#F7F2DD" />
<rect x="17" y="23" width="3" height="1" fill="#FFFFFF" />
<rect x="21" y="23" width="4" height="1" fill="#F7F2DD" />
<rect x="25" y="23" width="2" height="1" fill="#6ABE30" />
<rect x="31" y="23" width="1" height="1" fill="#6ABE30" />
<rect x="32" y="23" width="2" height="1" fill="#922109" />
<rect x="34" y="23" width="2" height="1" fill="#F7F2DD" />
<rect x="38" y="23" width="3" height="1" fill="#FFFFFF" />
<rect x="41" y="23" width="2" height="1" fill="#F7F2DD" />
<rect x="43" y="23" width="1" height="1" fill="#16211D" />
<rect x="13" y="24" width="2" height="1" fill="#323C39" />
<rect x="15" y="24" width="3" height="1" fill="#16211D" />
<rect x="18" y="24" width="2" height="1" fill="#F7F2DD" />
<rect x="21" y="24" width="2" height="1" fill="#F7F2DD" />
<rect x="23" y="24" width="3" height="1" fill="#FFFFFF" />
<rect x="26" y="24" width="6" height="2" fill="#F7F2DD" />
<rect x="32" y="24" width="3" height="1" fill="#FFFFFF" />
<rect x="35" y="24" width="1" height="2" fill="#F7F2DD" />
<rect x="38" y="24" width="2" height="1" fill="#F7F2DD" />
<rect x="40" y="24" width="3" height="1" fill="#16211D" />
<rect x="43" y="24" width="2" height="1" fill="#323C39" />
<rect x="11" y="25" width="1" height="1" fill="#323C39" />
<rect x="12" y="25" width="3" height="15" fill="#24312D" />
<rect x="15" y="25" width="3" height="1" fill="#323C39" />
<rect x="18" y="25" width="4" height="1" fill="#16211D" />
<rect x="22" y="25" width="4" height="1" fill="#F7F2DD" />
<rect x="32" y="25" width="3" height="1" fill="#F7F2DD" />
<rect x="36" y="25" width="4" height="1" fill="#16211D" />
<rect x="40" y="25" width="1" height="1" fill="#323C39" />
<rect x="41" y="25" width="5" height="2" fill="#16211D" />
<rect x="46" y="25" width="1" height="1" fill="#323C39" />
<rect x="11" y="26" width="1" height="13" fill="#24312D" />
<rect x="15" y="26" width="2" height="16" fill="#24312D" />
<rect x="17" y="26" width="5" height="1" fill="#323C39" />
<rect x="22" y="26" width="14" height="1" fill="#16211D" />
<rect x="36" y="26" width="2" height="1" fill="#323C39" />
<rect x="38" y="26" width="3" height="5" fill="#24312D" />
<rect x="46" y="26" width="1" height="12" fill="#16211D" />
<rect x="17" y="27" width="1" height="16" fill="#24312D" />
<rect x="18" y="27" width="2" height="1" fill="#323C39" />
<rect x="20" y="27" width="3" height="16" fill="#434F4B" />
<rect x="23" y="27" width="7" height="1" fill="#323C39" />
<rect x="30" y="27" width="2" height="2" fill="#383E3C" />
<rect x="32" y="27" width="1" height="1" fill="#323C39" />
<rect x="33" y="27" width="3" height="3" fill="#24312D" />
<rect x="36" y="27" width="1" height="1" fill="#323C39" />
<rect x="37" y="27" width="1" height="8" fill="#24312D" />
<rect x="41" y="27" width="1" height="3" fill="#24312D" />
<rect x="42" y="27" width="4" height="11" fill="#16211D" />
<rect x="18" y="28" width="1" height="16" fill="#24312D" />
<rect x="19" y="28" width="1" height="9" fill="#434F4B" />
<rect x="23" y="28" width="5" height="11" fill="#434F4B" />
<rect x="28" y="28" width="2" height="1" fill="#383E3C" />
<rect x="32" y="28" width="1" height="7" fill="#383E3C" />
<rect x="36" y="28" width="1" height="8" fill="#24312D" />
<rect x="28" y="29" width="3" height="6" fill="#434F4B" />
<rect x="31" y="29" width="1" height="1" fill="#383E3C" />
<rect x="31" y="30" width="1" height="3" fill="#434F4B" />
<rect x="33" y="30" width="1" height="3" fill="#383E3C" />
<rect x="34" y="30" width="2" height="9" fill="#24312D" />
<rect x="41" y="30" width="1" height="9" fill="#16211D" />
<rect x="38" y="31" width="2" height="1" fill="#24312D" />
<rect x="40" y="31" width="1" height="9" fill="#16211D" />
<rect x="38" y="32" width="1" height="1" fill="#24312D" />
<rect x="39" y="32" width="1" height="8" fill="#16211D" />
<rect x="31" y="33" width="1" height="4" fill="#383E3C" />
<rect x="33" y="33" width="1" height="9" fill="#24312D" />
<rect x="38" y="33" width="1" height="7" fill="#16211D" />
<rect x="28" y="35" width="2" height="1" fill="#434F4B" />
<rect x="30" y="35" width="1" height="4" fill="#383E3C" />
<rect x="32" y="35" width="1" height="7" fill="#24312D" />
<rect x="37" y="35" width="1" height="6" fill="#16211D" />
<rect x="28" y="36" width="1" height="1" fill="#434F4B" />
<rect x="29" y="36" width="1" height="4" fill="#383E3C" />
<rect x="36" y="36" width="1" height="5" fill="#16211D" />
<rect x="19" y="37" width="1" height="7" fill="#24312D" />
<rect x="28" y="37" width="1" height="4" fill="#383E3C" />
<rect x="31" y="37" width="1" height="6" fill="#24312D" />
<rect x="48" y="37" width="4" height="1" fill="#663931" />
<rect x="54" y="37" width="3" height="1" fill="#663931" />
<rect x="42" y="38" width="3" height="1" fill="#16211D" />
<rect x="45" y="38" width="3" height="1" fill="#663931" />
<rect x="48" y="38" width="4" height="1" fill="#FCDFC4" />
<rect x="52" y="38" width="2" height="1" fill="#663931" />
<rect x="54" y="38" width="3" height="2" fill="#FCDFC4" />
<rect x="57" y="38" width="1" height="4" fill="#663931" />
<rect x="11" y="39" width="1" height="1" fill="#323C39" />
<rect x="23" y="39" width="4" height="1" fill="#434F4B" />
<rect x="27" y="39" width="1" height="3" fill="#383E3C" />
<rect x="30" y="39" width="1" height="4" fill="#24312D" />
<rect x="34" y="39" width="1" height="2" fill="#24312D" />
<rect x="35" y="39" width="1" height="3" fill="#16211D" />
<rect x="41" y="39" width="4" height="1" fill="#663931" />
<rect x="45" y="39" width="5" height="1" fill="#FCDFC4" />
<rect x="50" y="39" width="3" height="1" fill="#663931" />
<rect x="53" y="39" width="1" height="3" fill="#FCDFC4" />
<rect x="11" y="40" width="1" height="1" fill="#000000" />
<rect x="12" y="40" width="1" height="1" fill="#323C39" />
<rect x="13" y="40" width="2" height="1" fill="#24312D" />
<rect x="23" y="40" width="3" height="2" fill="#434F4B" />
<rect x="26" y="40" width="1" height="3" fill="#383E3C" />
<rect x="29" y="40" width="1" height="3" fill="#24312D" />
<rect x="38" y="40" width="3" height="1" fill="#663931" />
<rect x="41" y="40" width="6" height="1" fill="#FCDFC4" />
<rect x="47" y="40" width="3" height="1" fill="#663931" />
<rect x="50" y="40" width="3" height="3" fill="#FCDFC4" />
<rect x="54" y="40" width="2" height="1" fill="#FCDFC4" />
<rect x="56" y="40" width="1" height="2" fill="#D69F6A" />
<rect x="12" y="41" width="3" height="1" fill="#000000" />
<rect x="28" y="41" width="1" height="2" fill="#24312D" />
<rect x="34" y="41" width="1" height="1" fill="#16211D" />
<rect x="36" y="41" width="2" height="1" fill="#663931" />
<rect x="38" y="41" width="8" height="1" fill="#FCDFC4" />
<rect x="46" y="41" width="1" height="1" fill="#663931" />
<rect x="47" y="41" width="3" height="3" fill="#FCDFC4" />
<rect x="54" y="41" width="1" height="1" fill="#FCDFC4" />
<rect x="55" y="41" width="1" height="2" fill="#D69F6A" />
<rect x="14" y="42" width="1" height="1" fill="#000000" />
<rect x="15" y="42" width="2" height="1" fill="#323C39" />
<rect x="23" y="42" width="2" height="1" fill="#434F4B" />
<rect x="25" y="42" width="1" height="1" fill="#383E3C" />
<rect x="27" y="42" width="1" height="2" fill="#24312D" />
<rect x="32" y="42" width="1" height="1" fill="#16211D" />
<rect x="33" y="42" width="3" height="1" fill="#663931" />
<rect x="36" y="42" width="7" height="1" fill="#FCDFC4" />
<rect x="43" y="42" width="3" height="1" fill="#663931" />
<rect x="46" y="42" width="1" height="4" fill="#FCDFC4" />
<rect x="53" y="42" width="2" height="1" fill="#D69F6A" />
<rect x="56" y="42" width="1" height="1" fill="#663931" />
<rect x="15" y="43" width="3" height="1" fill="#000000" />
<rect x="20" y="43" width="1" height="1" fill="#24312D" />
<rect x="21" y="43" width="3" height="1" fill="#434F4B" />
<rect x="24" y="43" width="1" height="1" fill="#383E3C" />
<rect x="25" y="43" width="2" height="1" fill="#323C39" />
<rect x="28" y="43" width="5" height="1" fill="#663931" />
<rect x="33" y="43" width="8" height="1" fill="#FCDFC4" />
<rect x="41" y="43" width="2" height="1" fill="#663931" />
<rect x="43" y="43" width="3" height="3" fill="#FCDFC4" />
<rect x="50" y="43" width="1" height="1" fill="#FCDFC4" />
<rect x="51" y="43" width="3" height="1" fill="#D69F6A" />
<rect x="54" y="43" width="2" height="1" fill="#663931" />
<rect x="18" y="44" width="7" height="1" fill="#000000" />
<rect x="25" y="44" width="3" height="1" fill="#663931" />
<rect x="28" y="44" width="10" height="1" fill="#FCDFC4" />
<rect x="38" y="44" width="1" height="1" fill="#D69F6A" />
<rect x="39" y="44" width="2" height="1" fill="#663931" />
<rect x="41" y="44" width="2" height="3" fill="#FCDFC4" />
<rect x="47" y="44" width="2" height="1" fill="#FCDFC4" />
<rect x="49" y="44" width="2" height="1" fill="#D69F6A" />
<rect x="51" y="44" width="3" height="1" fill="#663931" />
<rect x="19" y="45" width="6" height="1" fill="#663931" />
<rect x="25" y="45" width="5" height="1" fill="#FCDFC4" />
<rect x="30" y="45" width="7" height="1" fill="#D69F6A" />
<rect x="37" y="45" width="2" height="1" fill="#663931" />
<rect x="39" y="45" width="2" height="2" fill="#FCDFC4" />
<rect x="47" y="45" width="1" height="1" fill="#D69F6A" />
<rect x="48" y="45" width="3" height="1" fill="#663931" />
<rect x="16" y="46" width="3" height="1" fill="#663931" />
<rect x="19" y="46" width="7" height="1" fill="#FCDFC4" />
<rect x="26" y="46" width="6" height="1" fill="#D69F6A" />
<rect x="32" y="46" width="6" height="1" fill="#663931" />
<rect x="38" y="46" width="1" height="2" fill="#FCDFC4" />
<rect x="43" y="46" width="1" height="1" fill="#FCDFC4" />
<rect x="44" y="46" width="2" height="1" fill="#D69F6A" />
<rect x="46" y="46" width="2" height="1" fill="#663931" />
<rect x="15" y="47" width="1" height="2" fill="#663931" />
<rect x="16" y="47" width="3" height="1" fill="#FCDFC4" />
<rect x="19" y="47" width="7" height="1" fill="#D69F6A" />
<rect x="26" y="47" width="6" height="1" fill="#663931" />
<rect x="33" y="47" width="3" height="1" fill="#663931" />
<rect x="36" y="47" width="2" height="1" fill="#FCDFC4" />
<rect x="39" y="47" width="1" height="1" fill="#FCDFC4" />
<rect x="40" y="47" width="3" height="1" fill="#D69F6A" />
<rect x="43" y="47" width="3" height="1" fill="#663931" />
<rect x="16" y="48" width="4" height="1" fill="#D69F6A" />
<rect x="20" y="48" width="6" height="1" fill="#663931" />
<rect x="31" y="48" width="2" height="1" fill="#663931" />
<rect x="33" y="48" width="3" height="1" fill="#FCDFC4" />
<rect x="36" y="48" width="4" height="1" fill="#D69F6A" />
<rect x="40" y="48" width="3" height="1" fill="#663931" />
<rect x="16" y="49" width="4" height="1" fill="#663931" />
<rect x="28" y="49" width="3" height="1" fill="#663931" />
<rect x="31" y="49" width="4" height="1" fill="#FCDFC4" />
<rect x="35" y="49" width="3" height="1" fill="#D69F6A" />
<rect x="38" y="49" width="2" height="1" fill="#663931" />
<rect x="26" y="50" width="2" height="1" fill="#663931" />
<rect x="28" y="50" width="5" height="1" fill="#FCDFC4" />
<rect x="33" y="50" width="3" height="1" fill="#D69F6A" />
<rect x="36" y="50" width="2" height="1" fill="#663931" />
<rect x="22" y="51" width="4" height="1" fill="#663931" />
<rect x="26" y="51" width="2" height="1" fill="#EEC39A" />
<rect x="28" y="51" width="5" height="1" fill="#D69F6A" />
<rect x="33" y="51" width="3" height="1" fill="#663931" />
<rect x="21" y="52" width="1" height="2" fill="#663931" />
<rect x="22" y="52" width="3" height="1" fill="#EEC39A" />
<rect x="25" y="52" width="4" height="1" fill="#D69F6A" />
<rect x="29" y="52" width="4" height="1" fill="#663931" />
<rect x="22" y="53" width="4" height="1" fill="#D69F6A" />
<rect x="26" y="53" width="3" height="1" fill="#663931" />
<rect x="22" y="54" width="4" height="1" fill="#663931" />
</svg>